ISO-10303-21;
HEADER;
/* Generated by software containing ST-Developer
 * from STEP Tools, Inc. (www.steptools.com) 
 */

FILE_DESCRIPTION(
/* description */ (''),
/* implementation_level */ '2;1');

FILE_NAME(
/* name */ 'INDX PTFE Holder.step',
/* time_stamp */ '2026-08-05T19:18:56+02:00',
/* author */ (''),
/* organization */ (''),
/* preprocessor_version */ 'ST-DEVELOPER v20.1',
/* originating_system */ 'Autodesk Translation Framework v15.8.0.0',
/* authorisation */ '');

FILE_SCHEMA (('AUTOMOTIVE_DESIGN { 1 0 10303 214 3 1 1 }'));
ENDSEC;

DATA;
#10=MECHANICAL_DESIGN_GEOMETRIC_PRESENTATION_REPRESENTATION('',(#13),#602);
#11=SHAPE_REPRESENTATION_RELATIONSHIP('SRR','None',#609,#12);
#12=ADVANCED_BREP_SHAPE_REPRESENTATION('',(#14),#601);
#13=STYLED_ITEM('',(#618),#14);
#14=MANIFOLD_SOLID_BREP('K\X\F6rper1',#345);
#15=TOROIDAL_SURFACE('',#388,4.25,2.);
#16=FACE_BOUND('',#57,.T.);
#17=FACE_BOUND('',#60,.T.);
#18=FACE_BOUND('',#61,.T.);
#19=PLANE('',#362);
#20=PLANE('',#366);
#21=PLANE('',#372);
#22=PLANE('',#377);
#23=PLANE('',#383);
#24=PLANE('',#386);
#25=PLANE('',#392);
#26=PLANE('',#393);
#27=PLANE('',#394);
#28=PLANE('',#395);
#29=FACE_OUTER_BOUND('',#48,.T.);
#30=FACE_OUTER_BOUND('',#49,.T.);
#31=FACE_OUTER_BOUND('',#50,.T.);
#32=FACE_OUTER_BOUND('',#51,.T.);
#33=FACE_OUTER_BOUND('',#52,.T.);
#34=FACE_OUTER_BOUND('',#53,.T.);
#35=FACE_OUTER_BOUND('',#54,.T.);
#36=FACE_OUTER_BOUND('',#55,.T.);
#37=FACE_OUTER_BOUND('',#56,.T.);
#38=FACE_OUTER_BOUND('',#58,.T.);
#39=FACE_OUTER_BOUND('',#59,.T.);
#40=FACE_OUTER_BOUND('',#62,.T.);
#41=FACE_OUTER_BOUND('',#63,.T.);
#42=FACE_OUTER_BOUND('',#64,.T.);
#43=FACE_OUTER_BOUND('',#65,.T.);
#44=FACE_OUTER_BOUND('',#66,.T.);
#45=FACE_OUTER_BOUND('',#67,.T.);
#46=FACE_OUTER_BOUND('',#68,.T.);
#47=FACE_OUTER_BOUND('',#69,.T.);
#48=EDGE_LOOP('',(#224,#225,#226,#227));
#49=EDGE_LOOP('',(#228));
#50=EDGE_LOOP('',(#229,#230,#231,#232));
#51=EDGE_LOOP('',(#233,#234,#235,#236,#237,#238,#239,#240,#241,#242,#243));
#52=EDGE_LOOP('',(#244,#245,#246,#247));
#53=EDGE_LOOP('',(#248,#249,#250,#251));
#54=EDGE_LOOP('',(#252,#253,#254,#255));
#55=EDGE_LOOP('',(#256,#257,#258,#259));
#56=EDGE_LOOP('',(#260,#261,#262,#263,#264,#265));
#57=EDGE_LOOP('',(#266));
#58=EDGE_LOOP('',(#267,#268,#269,#270));
#59=EDGE_LOOP('',(#271,#272,#273,#274,#275,#276));
#60=EDGE_LOOP('',(#277));
#61=EDGE_LOOP('',(#278));
#62=EDGE_LOOP('',(#279,#280,#281,#282));
#63=EDGE_LOOP('',(#283,#284,#285,#286));
#64=EDGE_LOOP('',(#287,#288,#289,#290));
#65=EDGE_LOOP('',(#291,#292,#293,#294));
#66=EDGE_LOOP('',(#295,#296,#297,#298));
#67=EDGE_LOOP('',(#299,#300,#301,#302));
#68=EDGE_LOOP('',(#303,#304,#305,#306));
#69=EDGE_LOOP('',(#307,#308,#309,#310,#311,#312,#313,#314,#315,#316,#317));
#70=LINE('',#506,#99);
#71=LINE('',#514,#100);
#72=LINE('',#517,#101);
#73=LINE('',#520,#102);
#74=LINE('',#522,#103);
#75=LINE('',#524,#104);
#76=LINE('',#526,#105);
#77=LINE('',#530,#106);
#78=LINE('',#534,#107);
#79=LINE('',#537,#108);
#80=LINE('',#540,#109);
#81=LINE('',#543,#110);
#82=LINE('',#546,#111);
#83=LINE('',#547,#112);
#84=LINE('',#551,#113);
#85=LINE('',#554,#114);
#86=LINE('',#557,#115);
#87=LINE('',#562,#116);
#88=LINE('',#565,#117);
#89=LINE('',#572,#118);
#90=LINE('',#573,#119);
#91=LINE('',#576,#120);
#92=LINE('',#579,#121);
#93=LINE('',#580,#122);
#94=LINE('',#584,#123);
#95=LINE('',#591,#124);
#96=LINE('',#593,#125);
#97=LINE('',#595,#126);
#98=LINE('',#597,#127);
#99=VECTOR('',#402,0.5);
#100=VECTOR('',#411,10.);
#101=VECTOR('',#414,10.);
#102=VECTOR('',#417,10.);
#103=VECTOR('',#418,10.);
#104=VECTOR('',#419,10.);
#105=VECTOR('',#420,10.);
#106=VECTOR('',#423,10.);
#107=VECTOR('',#426,10.);
#108=VECTOR('',#429,10.);
#109=VECTOR('',#432,10.);
#110=VECTOR('',#435,10.);
#111=VECTOR('',#438,10.);
#112=VECTOR('',#439,10.);
#113=VECTOR('',#444,10.);
#114=VECTOR('',#447,10.);
#115=VECTOR('',#450,10.);
#116=VECTOR('',#455,10.);
#117=VECTOR('',#458,10.);
#118=VECTOR('',#465,10.);
#119=VECTOR('',#466,10.);
#120=VECTOR('',#469,10.);
#121=VECTOR('',#472,10.);
#122=VECTOR('',#473,10.);
#123=VECTOR('',#478,10.);
#124=VECTOR('',#489,2.25);
#125=VECTOR('',#492,10.);
#126=VECTOR('',#495,10.);
#127=VECTOR('',#498,10.);
#128=CIRCLE('',#360,0.5);
#129=CIRCLE('',#361,0.5);
#130=CIRCLE('',#364,3.);
#131=CIRCLE('',#365,3.);
#132=CIRCLE('',#367,1.);
#133=CIRCLE('',#368,1.);
#134=CIRCLE('',#369,1.);
#135=CIRCLE('',#371,1.);
#136=CIRCLE('',#374,1.);
#137=CIRCLE('',#376,1.);
#138=CIRCLE('',#378,5.);
#139=CIRCLE('',#379,5.);
#140=CIRCLE('',#380,2.25);
#141=CIRCLE('',#382,5.);
#142=CIRCLE('',#384,5.);
#143=CIRCLE('',#385,4.25);
#144=CIRCLE('',#389,2.);
#145=CIRCLE('',#390,2.25);
#146=VERTEX_POINT('',#503);
#147=VERTEX_POINT('',#505);
#148=VERTEX_POINT('',#510);
#149=VERTEX_POINT('',#511);
#150=VERTEX_POINT('',#513);
#151=VERTEX_POINT('',#515);
#152=VERTEX_POINT('',#519);
#153=VERTEX_POINT('',#521);
#154=VERTEX_POINT('',#523);
#155=VERTEX_POINT('',#525);
#156=VERTEX_POINT('',#527);
#157=VERTEX_POINT('',#529);
#158=VERTEX_POINT('',#531);
#159=VERTEX_POINT('',#533);
#160=VERTEX_POINT('',#535);
#161=VERTEX_POINT('',#539);
#162=VERTEX_POINT('',#541);
#163=VERTEX_POINT('',#545);
#164=VERTEX_POINT('',#549);
#165=VERTEX_POINT('',#553);
#166=VERTEX_POINT('',#555);
#167=VERTEX_POINT('',#559);
#168=VERTEX_POINT('',#561);
#169=VERTEX_POINT('',#563);
#170=VERTEX_POINT('',#566);
#171=VERTEX_POINT('',#569);
#172=VERTEX_POINT('',#570);
#173=VERTEX_POINT('',#575);
#174=VERTEX_POINT('',#578);
#175=VERTEX_POINT('',#581);
#176=VERTEX_POINT('',#587);
#177=EDGE_CURVE('',#146,#146,#128,.T.);
#178=EDGE_CURVE('',#146,#147,#70,.T.);
#179=EDGE_CURVE('',#147,#147,#129,.T.);
#180=EDGE_CURVE('',#148,#149,#130,.T.);
#181=EDGE_CURVE('',#149,#150,#71,.T.);
#182=EDGE_CURVE('',#150,#151,#131,.T.);
#183=EDGE_CURVE('',#151,#148,#72,.T.);
#184=EDGE_CURVE('',#152,#150,#73,.T.);
#185=EDGE_CURVE('',#153,#152,#74,.T.);
#186=EDGE_CURVE('',#154,#153,#75,.T.);
#187=EDGE_CURVE('',#155,#154,#76,.T.);
#188=EDGE_CURVE('',#156,#155,#132,.T.);
#189=EDGE_CURVE('',#157,#156,#77,.T.);
#190=EDGE_CURVE('',#158,#157,#133,.T.);
#191=EDGE_CURVE('',#159,#158,#78,.T.);
#192=EDGE_CURVE('',#160,#159,#134,.T.);
#193=EDGE_CURVE('',#151,#160,#79,.T.);
#194=EDGE_CURVE('',#159,#161,#80,.T.);
#195=EDGE_CURVE('',#161,#162,#135,.T.);
#196=EDGE_CURVE('',#162,#160,#81,.T.);
#197=EDGE_CURVE('',#163,#158,#82,.T.);
#198=EDGE_CURVE('',#161,#163,#83,.T.);
#199=EDGE_CURVE('',#164,#163,#136,.T.);
#200=EDGE_CURVE('',#157,#164,#84,.T.);
#201=EDGE_CURVE('',#155,#165,#85,.T.);
#202=EDGE_CURVE('',#165,#166,#137,.T.);
#203=EDGE_CURVE('',#166,#156,#86,.T.);
#204=EDGE_CURVE('',#167,#154,#138,.T.);
#205=EDGE_CURVE('',#167,#168,#87,.T.);
#206=EDGE_CURVE('',#169,#168,#139,.T.);
#207=EDGE_CURVE('',#165,#169,#88,.T.);
#208=EDGE_CURVE('',#170,#170,#140,.T.);
#209=EDGE_CURVE('',#171,#172,#141,.T.);
#210=EDGE_CURVE('',#172,#169,#89,.T.);
#211=EDGE_CURVE('',#168,#171,#90,.T.);
#212=EDGE_CURVE('',#173,#171,#91,.T.);
#213=EDGE_CURVE('',#153,#173,#142,.T.);
#214=EDGE_CURVE('',#152,#174,#92,.T.);
#215=EDGE_CURVE('',#172,#174,#93,.T.);
#216=EDGE_CURVE('',#175,#175,#143,.T.);
#217=EDGE_CURVE('',#173,#167,#94,.T.);
#218=EDGE_CURVE('',#175,#176,#144,.T.);
#219=EDGE_CURVE('',#176,#176,#145,.T.);
#220=EDGE_CURVE('',#176,#170,#95,.T.);
#221=EDGE_CURVE('',#148,#162,#96,.T.);
#222=EDGE_CURVE('',#174,#149,#97,.T.);
#223=EDGE_CURVE('',#164,#166,#98,.T.);
#224=ORIENTED_EDGE('',*,*,#177,.F.);
#225=ORIENTED_EDGE('',*,*,#178,.T.);
#226=ORIENTED_EDGE('',*,*,#179,.T.);
#227=ORIENTED_EDGE('',*,*,#178,.F.);
#228=ORIENTED_EDGE('',*,*,#179,.F.);
#229=ORIENTED_EDGE('',*,*,#180,.T.);
#230=ORIENTED_EDGE('',*,*,#181,.T.);
#231=ORIENTED_EDGE('',*,*,#182,.T.);
#232=ORIENTED_EDGE('',*,*,#183,.T.);
#233=ORIENTED_EDGE('',*,*,#182,.F.);
#234=ORIENTED_EDGE('',*,*,#184,.F.);
#235=ORIENTED_EDGE('',*,*,#185,.F.);
#236=ORIENTED_EDGE('',*,*,#186,.F.);
#237=ORIENTED_EDGE('',*,*,#187,.F.);
#238=ORIENTED_EDGE('',*,*,#188,.F.);
#239=ORIENTED_EDGE('',*,*,#189,.F.);
#240=ORIENTED_EDGE('',*,*,#190,.F.);
#241=ORIENTED_EDGE('',*,*,#191,.F.);
#242=ORIENTED_EDGE('',*,*,#192,.F.);
#243=ORIENTED_EDGE('',*,*,#193,.F.);
#244=ORIENTED_EDGE('',*,*,#192,.T.);
#245=ORIENTED_EDGE('',*,*,#194,.T.);
#246=ORIENTED_EDGE('',*,*,#195,.T.);
#247=ORIENTED_EDGE('',*,*,#196,.T.);
#248=ORIENTED_EDGE('',*,*,#194,.F.);
#249=ORIENTED_EDGE('',*,*,#191,.T.);
#250=ORIENTED_EDGE('',*,*,#197,.F.);
#251=ORIENTED_EDGE('',*,*,#198,.F.);
#252=ORIENTED_EDGE('',*,*,#199,.T.);
#253=ORIENTED_EDGE('',*,*,#197,.T.);
#254=ORIENTED_EDGE('',*,*,#190,.T.);
#255=ORIENTED_EDGE('',*,*,#200,.T.);
#256=ORIENTED_EDGE('',*,*,#188,.T.);
#257=ORIENTED_EDGE('',*,*,#201,.T.);
#258=ORIENTED_EDGE('',*,*,#202,.T.);
#259=ORIENTED_EDGE('',*,*,#203,.T.);
#260=ORIENTED_EDGE('',*,*,#201,.F.);
#261=ORIENTED_EDGE('',*,*,#187,.T.);
#262=ORIENTED_EDGE('',*,*,#204,.F.);
#263=ORIENTED_EDGE('',*,*,#205,.T.);
#264=ORIENTED_EDGE('',*,*,#206,.F.);
#265=ORIENTED_EDGE('',*,*,#207,.F.);
#266=ORIENTED_EDGE('',*,*,#208,.T.);
#267=ORIENTED_EDGE('',*,*,#209,.T.);
#268=ORIENTED_EDGE('',*,*,#210,.T.);
#269=ORIENTED_EDGE('',*,*,#206,.T.);
#270=ORIENTED_EDGE('',*,*,#211,.T.);
#271=ORIENTED_EDGE('',*,*,#209,.F.);
#272=ORIENTED_EDGE('',*,*,#212,.F.);
#273=ORIENTED_EDGE('',*,*,#213,.F.);
#274=ORIENTED_EDGE('',*,*,#185,.T.);
#275=ORIENTED_EDGE('',*,*,#214,.T.);
#276=ORIENTED_EDGE('',*,*,#215,.F.);
#277=ORIENTED_EDGE('',*,*,#177,.T.);
#278=ORIENTED_EDGE('',*,*,#216,.F.);
#279=ORIENTED_EDGE('',*,*,#211,.F.);
#280=ORIENTED_EDGE('',*,*,#205,.F.);
#281=ORIENTED_EDGE('',*,*,#217,.F.);
#282=ORIENTED_EDGE('',*,*,#212,.T.);
#283=ORIENTED_EDGE('',*,*,#213,.T.);
#284=ORIENTED_EDGE('',*,*,#217,.T.);
#285=ORIENTED_EDGE('',*,*,#204,.T.);
#286=ORIENTED_EDGE('',*,*,#186,.T.);
#287=ORIENTED_EDGE('',*,*,#216,.T.);
#288=ORIENTED_EDGE('',*,*,#218,.T.);
#289=ORIENTED_EDGE('',*,*,#219,.T.);
#290=ORIENTED_EDGE('',*,*,#218,.F.);
#291=ORIENTED_EDGE('',*,*,#219,.F.);
#292=ORIENTED_EDGE('',*,*,#220,.T.);
#293=ORIENTED_EDGE('',*,*,#208,.F.);
#294=ORIENTED_EDGE('',*,*,#220,.F.);
#295=ORIENTED_EDGE('',*,*,#196,.F.);
#296=ORIENTED_EDGE('',*,*,#221,.F.);
#297=ORIENTED_EDGE('',*,*,#183,.F.);
#298=ORIENTED_EDGE('',*,*,#193,.T.);
#299=ORIENTED_EDGE('',*,*,#181,.F.);
#300=ORIENTED_EDGE('',*,*,#222,.F.);
#301=ORIENTED_EDGE('',*,*,#214,.F.);
#302=ORIENTED_EDGE('',*,*,#184,.T.);
#303=ORIENTED_EDGE('',*,*,#200,.F.);
#304=ORIENTED_EDGE('',*,*,#189,.T.);
#305=ORIENTED_EDGE('',*,*,#203,.F.);
#306=ORIENTED_EDGE('',*,*,#223,.F.);
#307=ORIENTED_EDGE('',*,*,#180,.F.);
#308=ORIENTED_EDGE('',*,*,#221,.T.);
#309=ORIENTED_EDGE('',*,*,#195,.F.);
#310=ORIENTED_EDGE('',*,*,#198,.T.);
#311=ORIENTED_EDGE('',*,*,#199,.F.);
#312=ORIENTED_EDGE('',*,*,#223,.T.);
#313=ORIENTED_EDGE('',*,*,#202,.F.);
#314=ORIENTED_EDGE('',*,*,#207,.T.);
#315=ORIENTED_EDGE('',*,*,#210,.F.);
#316=ORIENTED_EDGE('',*,*,#215,.T.);
#317=ORIENTED_EDGE('',*,*,#222,.T.);
#318=CYLINDRICAL_SURFACE('',#359,0.5);
#319=CYLINDRICAL_SURFACE('',#363,3.);
#320=CYLINDRICAL_SURFACE('',#370,1.);
#321=CYLINDRICAL_SURFACE('',#373,1.);
#322=CYLINDRICAL_SURFACE('',#375,1.);
#323=CYLINDRICAL_SURFACE('',#381,5.);
#324=CYLINDRICAL_SURFACE('',#387,5.);
#325=CYLINDRICAL_SURFACE('',#391,2.25);
#326=ADVANCED_FACE('',(#29),#318,.F.);
#327=ADVANCED_FACE('',(#30),#19,.T.);
#328=ADVANCED_FACE('',(#31),#319,.T.);
#329=ADVANCED_FACE('',(#32),#20,.F.);
#330=ADVANCED_FACE('',(#33),#320,.F.);
#331=ADVANCED_FACE('',(#34),#21,.T.);
#332=ADVANCED_FACE('',(#35),#321,.T.);
#333=ADVANCED_FACE('',(#36),#322,.F.);
#334=ADVANCED_FACE('',(#37,#16),#22,.T.);
#335=ADVANCED_FACE('',(#38),#323,.T.);
#336=ADVANCED_FACE('',(#39,#17,#18),#23,.T.);
#337=ADVANCED_FACE('',(#40),#24,.T.);
#338=ADVANCED_FACE('',(#41),#324,.T.);
#339=ADVANCED_FACE('',(#42),#15,.T.);
#340=ADVANCED_FACE('',(#43),#325,.F.);
#341=ADVANCED_FACE('',(#44),#25,.T.);
#342=ADVANCED_FACE('',(#45),#26,.T.);
#343=ADVANCED_FACE('',(#46),#27,.T.);
#344=ADVANCED_FACE('',(#47),#28,.T.);
#345=CLOSED_SHELL('',(#326,#327,#328,#329,#330,#331,#332,#333,#334,#335,
#336,#337,#338,#339,#340,#341,#342,#343,#344));
#346=DERIVED_UNIT_ELEMENT(#348,1.);
#347=DERIVED_UNIT_ELEMENT(#604,-3.);
#348=(
MASS_UNIT()
NAMED_UNIT(*)
SI_UNIT(.KILO.,.GRAM.)
);
#349=DERIVED_UNIT((#346,#347));
#350=MEASURE_REPRESENTATION_ITEM('density measure',
POSITIVE_RATIO_MEASURE(992.85),#349);
#351=PROPERTY_DEFINITION_REPRESENTATION(#356,#353);
#352=PROPERTY_DEFINITION_REPRESENTATION(#357,#354);
#353=REPRESENTATION('material name',(#355),#601);
#354=REPRESENTATION('density',(#350),#601);
#355=DESCRIPTIVE_REPRESENTATION_ITEM(
'HP 3D HR CB PA 12 (mit 3D-Drucker HP Jet Fusion 580 Color)',
'HP 3D HR CB PA 12 (mit 3D-Drucker HP Jet Fusion 580 Color)');
#356=PROPERTY_DEFINITION('material property','material name',#611);
#357=PROPERTY_DEFINITION('material property','density of part',#611);
#358=AXIS2_PLACEMENT_3D('',#501,#396,#397);
#359=AXIS2_PLACEMENT_3D('',#502,#398,#399);
#360=AXIS2_PLACEMENT_3D('',#504,#400,#401);
#361=AXIS2_PLACEMENT_3D('',#507,#403,#404);
#362=AXIS2_PLACEMENT_3D('',#508,#405,#406);
#363=AXIS2_PLACEMENT_3D('',#509,#407,#408);
#364=AXIS2_PLACEMENT_3D('',#512,#409,#410);
#365=AXIS2_PLACEMENT_3D('',#516,#412,#413);
#366=AXIS2_PLACEMENT_3D('',#518,#415,#416);
#367=AXIS2_PLACEMENT_3D('',#528,#421,#422);
#368=AXIS2_PLACEMENT_3D('',#532,#424,#425);
#369=AXIS2_PLACEMENT_3D('',#536,#427,#428);
#370=AXIS2_PLACEMENT_3D('',#538,#430,#431);
#371=AXIS2_PLACEMENT_3D('',#542,#433,#434);
#372=AXIS2_PLACEMENT_3D('',#544,#436,#437);
#373=AXIS2_PLACEMENT_3D('',#548,#440,#441);
#374=AXIS2_PLACEMENT_3D('',#550,#442,#443);
#375=AXIS2_PLACEMENT_3D('',#552,#445,#446);
#376=AXIS2_PLACEMENT_3D('',#556,#448,#449);
#377=AXIS2_PLACEMENT_3D('',#558,#451,#452);
#378=AXIS2_PLACEMENT_3D('',#560,#453,#454);
#379=AXIS2_PLACEMENT_3D('',#564,#456,#457);
#380=AXIS2_PLACEMENT_3D('',#567,#459,#460);
#381=AXIS2_PLACEMENT_3D('',#568,#461,#462);
#382=AXIS2_PLACEMENT_3D('',#571,#463,#464);
#383=AXIS2_PLACEMENT_3D('',#574,#467,#468);
#384=AXIS2_PLACEMENT_3D('',#577,#470,#471);
#385=AXIS2_PLACEMENT_3D('',#582,#474,#475);
#386=AXIS2_PLACEMENT_3D('',#583,#476,#477);
#387=AXIS2_PLACEMENT_3D('',#585,#479,#480);
#388=AXIS2_PLACEMENT_3D('',#586,#481,#482);
#389=AXIS2_PLACEMENT_3D('',#588,#483,#484);
#390=AXIS2_PLACEMENT_3D('',#589,#485,#486);
#391=AXIS2_PLACEMENT_3D('',#590,#487,#488);
#392=AXIS2_PLACEMENT_3D('',#592,#490,#491);
#393=AXIS2_PLACEMENT_3D('',#594,#493,#494);
#394=AXIS2_PLACEMENT_3D('',#596,#496,#497);
#395=AXIS2_PLACEMENT_3D('',#598,#499,#500);
#396=DIRECTION('axis',(0.,0.,1.));
#397=DIRECTION('refdir',(1.,0.,0.));
#398=DIRECTION('center_axis',(0.,0.,-1.));
#399=DIRECTION('ref_axis',(-1.,0.,0.));
#400=DIRECTION('center_axis',(0.,0.,-1.));
#401=DIRECTION('ref_axis',(-1.,0.,0.));
#402=DIRECTION('',(0.,0.,-1.));
#403=DIRECTION('center_axis',(0.,0.,-1.));
#404=DIRECTION('ref_axis',(-1.,0.,0.));
#405=DIRECTION('center_axis',(0.,0.,1.));
#406=DIRECTION('ref_axis',(-1.,0.,0.));
#407=DIRECTION('center_axis',(1.,0.,0.));
#408=DIRECTION('ref_axis',(0.,-0.707106781186547,-0.707106781186548));
#409=DIRECTION('center_axis',(-1.,0.,0.));
#410=DIRECTION('ref_axis',(0.,-0.707106781186547,-0.707106781186548));
#411=DIRECTION('',(-1.,0.,0.));
#412=DIRECTION('center_axis',(1.,0.,0.));
#413=DIRECTION('ref_axis',(0.,-0.707106781186547,-0.707106781186548));
#414=DIRECTION('',(1.,0.,0.));
#415=DIRECTION('center_axis',(1.,0.,0.));
#416=DIRECTION('ref_axis',(0.,1.,0.));
#417=DIRECTION('',(0.,0.,-1.));
#418=DIRECTION('',(0.,-1.,0.));
#419=DIRECTION('',(0.,0.,1.));
#420=DIRECTION('',(0.,1.,0.));
#421=DIRECTION('center_axis',(-1.,0.,0.));
#422=DIRECTION('ref_axis',(0.,-0.707106781186549,0.707106781186546));
#423=DIRECTION('',(0.,0.,1.));
#424=DIRECTION('center_axis',(1.,0.,0.));
#425=DIRECTION('ref_axis',(0.,0.707106781186549,-0.707106781186546));
#426=DIRECTION('',(0.,1.,0.));
#427=DIRECTION('center_axis',(-1.,0.,0.));
#428=DIRECTION('ref_axis',(0.,-0.707106781186548,0.707106781186548));
#429=DIRECTION('',(0.,0.,1.));
#430=DIRECTION('center_axis',(1.,0.,0.));
#431=DIRECTION('ref_axis',(0.,-0.707106781186548,0.707106781186548));
#432=DIRECTION('',(1.,0.,0.));
#433=DIRECTION('center_axis',(1.,0.,0.));
#434=DIRECTION('ref_axis',(0.,-0.707106781186548,0.707106781186548));
#435=DIRECTION('',(-1.,0.,0.));
#436=DIRECTION('center_axis',(0.,0.,-1.));
#437=DIRECTION('ref_axis',(0.,1.,0.));
#438=DIRECTION('',(-1.,0.,0.));
#439=DIRECTION('',(0.,1.,0.));
#440=DIRECTION('center_axis',(1.,0.,0.));
#441=DIRECTION('ref_axis',(0.,0.707106781186549,-0.707106781186546));
#442=DIRECTION('center_axis',(-1.,0.,0.));
#443=DIRECTION('ref_axis',(0.,0.707106781186549,-0.707106781186546));
#444=DIRECTION('',(1.,0.,0.));
#445=DIRECTION('center_axis',(1.,0.,0.));
#446=DIRECTION('ref_axis',(0.,-0.707106781186549,0.707106781186546));
#447=DIRECTION('',(1.,0.,0.));
#448=DIRECTION('center_axis',(1.,0.,0.));
#449=DIRECTION('ref_axis',(0.,-0.707106781186549,0.707106781186546));
#450=DIRECTION('',(-1.,0.,0.));
#451=DIRECTION('center_axis',(0.,0.,-1.));
#452=DIRECTION('ref_axis',(0.,1.,0.));
#453=DIRECTION('center_axis',(0.,0.,1.));
#454=DIRECTION('ref_axis',(-0.707106781186547,0.707106781186547,0.));
#455=DIRECTION('',(1.,0.,0.));
#456=DIRECTION('center_axis',(0.,0.,1.));
#457=DIRECTION('ref_axis',(0.707106781186547,0.707106781186547,0.));
#458=DIRECTION('',(0.,1.,0.));
#459=DIRECTION('center_axis',(0.,0.,1.));
#460=DIRECTION('ref_axis',(-1.,0.,0.));
#461=DIRECTION('center_axis',(0.,0.,1.));
#462=DIRECTION('ref_axis',(0.707106781186547,0.707106781186547,0.));
#463=DIRECTION('center_axis',(0.,0.,-1.));
#464=DIRECTION('ref_axis',(0.707106781186547,0.707106781186547,0.));
#465=DIRECTION('',(0.,0.,-1.));
#466=DIRECTION('',(0.,0.,1.));
#467=DIRECTION('center_axis',(0.,0.,1.));
#468=DIRECTION('ref_axis',(0.,-1.,0.));
#469=DIRECTION('',(1.,0.,0.));
#470=DIRECTION('center_axis',(0.,0.,-1.));
#471=DIRECTION('ref_axis',(-0.707106781186547,0.707106781186547,0.));
#472=DIRECTION('',(1.,0.,0.));
#473=DIRECTION('',(0.,-1.,0.));
#474=DIRECTION('center_axis',(0.,0.,1.));
#475=DIRECTION('ref_axis',(-1.,0.,0.));
#476=DIRECTION('center_axis',(0.,1.,0.));
#477=DIRECTION('ref_axis',(0.,0.,1.));
#478=DIRECTION('',(0.,0.,-1.));
#479=DIRECTION('center_axis',(0.,0.,1.));
#480=DIRECTION('ref_axis',(-0.707106781186547,0.707106781186547,0.));
#481=DIRECTION('center_axis',(0.,0.,-1.));
#482=DIRECTION('ref_axis',(-1.,0.,0.));
#483=DIRECTION('center_axis',(0.,-1.,0.));
#484=DIRECTION('ref_axis',(1.,0.,0.));
#485=DIRECTION('center_axis',(0.,0.,-1.));
#486=DIRECTION('ref_axis',(-1.,0.,0.));
#487=DIRECTION('center_axis',(0.,0.,-1.));
#488=DIRECTION('ref_axis',(-1.,0.,0.));
#489=DIRECTION('',(0.,0.,-1.));
#490=DIRECTION('center_axis',(0.,1.,0.));
#491=DIRECTION('ref_axis',(0.,0.,1.));
#492=DIRECTION('',(0.,0.,1.));
#493=DIRECTION('center_axis',(0.,-1.,0.));
#494=DIRECTION('ref_axis',(0.,0.,-1.));
#495=DIRECTION('',(0.,0.,-1.));
#496=DIRECTION('center_axis',(0.,1.,0.));
#497=DIRECTION('ref_axis',(0.,0.,1.));
#498=DIRECTION('',(0.,0.,1.));
#499=DIRECTION('center_axis',(1.,0.,0.));
#500=DIRECTION('ref_axis',(0.,0.,-1.));
#501=CARTESIAN_POINT('',(0.,0.,0.));
#502=CARTESIAN_POINT('Origin',(5.5,5.50366056171278,65.));
#503=CARTESIAN_POINT('',(6.,5.50366056171278,65.));
#504=CARTESIAN_POINT('Origin',(5.5,5.50366056171278,65.));
#505=CARTESIAN_POINT('',(6.,5.50366056171278,50.));
#506=CARTESIAN_POINT('',(6.,5.50366056171278,65.));
#507=CARTESIAN_POINT('Origin',(5.5,5.50366056171278,50.));
#508=CARTESIAN_POINT('Origin',(5.5,5.50366056171278,50.));
#509=CARTESIAN_POINT('Origin',(0.,3.,3.));
#510=CARTESIAN_POINT('',(11.,3.,0.));
#511=CARTESIAN_POINT('',(11.,0.,3.00000000000001));
#512=CARTESIAN_POINT('Origin',(11.,3.,3.));
#513=CARTESIAN_POINT('',(0.,0.,3.00000000000001));
#514=CARTESIAN_POINT('',(0.,0.,3.));
#515=CARTESIAN_POINT('',(0.,3.,0.));
#516=CARTESIAN_POINT('Origin',(0.,3.,3.));
#517=CARTESIAN_POINT('',(0.,3.,0.));
#518=CARTESIAN_POINT('Origin',(0.,12.,32.5));
#519=CARTESIAN_POINT('',(0.,0.,65.));
#520=CARTESIAN_POINT('',(0.,0.,65.));
#521=CARTESIAN_POINT('',(0.,19.,65.));
#522=CARTESIAN_POINT('',(0.,24.,65.));
#523=CARTESIAN_POINT('',(0.,19.,45.));
#524=CARTESIAN_POINT('',(0.,19.,38.75));
#525=CARTESIAN_POINT('',(0.,12.,45.));
#526=CARTESIAN_POINT('',(0.,11.,45.));
#527=CARTESIAN_POINT('',(0.,11.,44.));
#528=CARTESIAN_POINT('Origin',(0.,12.,44.));
#529=CARTESIAN_POINT('',(0.,11.,21.));
#530=CARTESIAN_POINT('',(0.,11.,20.));
#531=CARTESIAN_POINT('',(0.,10.,20.));
#532=CARTESIAN_POINT('Origin',(0.,10.,21.));
#533=CARTESIAN_POINT('',(0.,4.,20.));
#534=CARTESIAN_POINT('',(0.,3.,20.));
#535=CARTESIAN_POINT('',(0.,3.,19.));
#536=CARTESIAN_POINT('Origin',(0.,4.,19.));
#537=CARTESIAN_POINT('',(0.,3.,0.));
#538=CARTESIAN_POINT('Origin',(0.,4.,19.));
#539=CARTESIAN_POINT('',(11.,4.,20.));
#540=CARTESIAN_POINT('',(0.,4.,20.));
#541=CARTESIAN_POINT('',(11.,3.,19.));
#542=CARTESIAN_POINT('Origin',(11.,4.,19.));
#543=CARTESIAN_POINT('',(0.,3.,19.));
#544=CARTESIAN_POINT('Origin',(0.,3.,20.));
#545=CARTESIAN_POINT('',(11.,10.,20.));
#546=CARTESIAN_POINT('',(0.,10.,20.));
#547=CARTESIAN_POINT('',(11.,3.,20.));
#548=CARTESIAN_POINT('Origin',(0.,10.,21.));
#549=CARTESIAN_POINT('',(11.,11.,21.));
#550=CARTESIAN_POINT('Origin',(11.,10.,21.));
#551=CARTESIAN_POINT('',(0.,11.,21.));
#552=CARTESIAN_POINT('Origin',(0.,12.,44.));
#553=CARTESIAN_POINT('',(11.,12.,45.));
#554=CARTESIAN_POINT('',(0.,12.,45.));
#555=CARTESIAN_POINT('',(11.,11.,44.));
#556=CARTESIAN_POINT('Origin',(11.,12.,44.));
#557=CARTESIAN_POINT('',(0.,11.,44.));
#558=CARTESIAN_POINT('Origin',(0.,11.,45.));
#559=CARTESIAN_POINT('',(5.,24.,45.));
#560=CARTESIAN_POINT('Origin',(5.,19.,45.));
#561=CARTESIAN_POINT('',(6.,24.,45.));
#562=CARTESIAN_POINT('',(0.,24.,45.));
#563=CARTESIAN_POINT('',(11.,19.,45.));
#564=CARTESIAN_POINT('Origin',(6.,19.,45.));
#565=CARTESIAN_POINT('',(11.,11.,45.));
#566=CARTESIAN_POINT('',(7.75,18.0000002682209,45.));
#567=CARTESIAN_POINT('Origin',(5.5,18.0000002682209,45.));
#568=CARTESIAN_POINT('Origin',(6.,19.,38.75));
#569=CARTESIAN_POINT('',(6.,24.,65.));
#570=CARTESIAN_POINT('',(11.,19.,65.));
#571=CARTESIAN_POINT('Origin',(6.,19.,65.));
#572=CARTESIAN_POINT('',(11.,19.,38.75));
#573=CARTESIAN_POINT('',(6.,24.,38.75));
#574=CARTESIAN_POINT('Origin',(0.,24.,65.));
#575=CARTESIAN_POINT('',(5.,24.,65.));
#576=CARTESIAN_POINT('',(0.,24.,65.));
#577=CARTESIAN_POINT('Origin',(5.,19.,65.));
#578=CARTESIAN_POINT('',(11.,0.,65.));
#579=CARTESIAN_POINT('',(0.,0.,65.));
#580=CARTESIAN_POINT('',(11.,24.,65.));
#581=CARTESIAN_POINT('',(9.75,18.0000002682209,65.));
#582=CARTESIAN_POINT('Origin',(5.5,18.0000002682209,65.));
#583=CARTESIAN_POINT('Origin',(0.,24.,45.));
#584=CARTESIAN_POINT('',(5.,24.,38.75));
#585=CARTESIAN_POINT('Origin',(5.,19.,38.75));
#586=CARTESIAN_POINT('Origin',(5.5,18.0000002682209,63.));
#587=CARTESIAN_POINT('',(7.75,18.0000002682209,63.));
#588=CARTESIAN_POINT('Origin',(9.75,18.0000002682209,63.));
#589=CARTESIAN_POINT('Origin',(5.5,18.0000002682209,63.));
#590=CARTESIAN_POINT('Origin',(5.5,18.0000002682209,65.));
#591=CARTESIAN_POINT('',(7.75,18.0000002682209,65.));
#592=CARTESIAN_POINT('Origin',(0.,3.,0.));
#593=CARTESIAN_POINT('',(11.,3.,0.));
#594=CARTESIAN_POINT('Origin',(0.,0.,65.));
#595=CARTESIAN_POINT('',(11.,0.,65.));
#596=CARTESIAN_POINT('Origin',(0.,11.,20.));
#597=CARTESIAN_POINT('',(11.,11.,20.));
#598=CARTESIAN_POINT('Origin',(11.,12.,32.5));
#599=UNCERTAINTY_MEASURE_WITH_UNIT(LENGTH_MEASURE(0.01),#603,
'DISTANCE_ACCURACY_VALUE',
'Maximum model space distance between geometric entities at asserted c
onnectivities');
#600=UNCERTAINTY_MEASURE_WITH_UNIT(LENGTH_MEASURE(0.01),#603,
'DISTANCE_ACCURACY_VALUE',
'Maximum model space distance between geometric entities at asserted c
onnectivities');
#601=(
GEOMETRIC_REPRESENTATION_CONTEXT(3)
GLOBAL_UNCERTAINTY_ASSIGNED_CONTEXT((#599))
GLOBAL_UNIT_ASSIGNED_CONTEXT((#603,#605,#606))
REPRESENTATION_CONTEXT('','3D')
);
#602=(
GEOMETRIC_REPRESENTATION_CONTEXT(3)
GLOBAL_UNCERTAINTY_ASSIGNED_CONTEXT((#600))
GLOBAL_UNIT_ASSIGNED_CONTEXT((#603,#605,#606))
REPRESENTATION_CONTEXT('','3D')
);
#603=(
LENGTH_UNIT()
NAMED_UNIT(*)
SI_UNIT(.MILLI.,.METRE.)
);
#604=(
LENGTH_UNIT()
NAMED_UNIT(*)
SI_UNIT($,.METRE.)
);
#605=(
NAMED_UNIT(*)
PLANE_ANGLE_UNIT()
SI_UNIT($,.RADIAN.)
);
#606=(
NAMED_UNIT(*)
SI_UNIT($,.STERADIAN.)
SOLID_ANGLE_UNIT()
);
#607=SHAPE_DEFINITION_REPRESENTATION(#608,#609);
#608=PRODUCT_DEFINITION_SHAPE('',$,#611);
#609=SHAPE_REPRESENTATION('',(#358),#601);
#610=PRODUCT_DEFINITION_CONTEXT('part definition',#615,'design');
#611=PRODUCT_DEFINITION('INDX PTFE Holder','INDX PTFE Holder v2',#612,#610);
#612=PRODUCT_DEFINITION_FORMATION('',$,#617);
#613=PRODUCT_RELATED_PRODUCT_CATEGORY('INDX PTFE Holder v2',
'INDX PTFE Holder v2',(#617));
#614=APPLICATION_PROTOCOL_DEFINITION('international standard',
'automotive_design',2009,#615);
#615=APPLICATION_CONTEXT(
'Core Data for Automotive Mechanical Design Process');
#616=PRODUCT_CONTEXT('part definition',#615,'mechanical');
#617=PRODUCT('INDX PTFE Holder','INDX PTFE Holder v2',$,(#616));
#618=PRESENTATION_STYLE_ASSIGNMENT((#619));
#619=SURFACE_STYLE_USAGE(.BOTH.,#620);
#620=SURFACE_SIDE_STYLE('',(#621));
#621=SURFACE_STYLE_FILL_AREA(#622);
#622=FILL_AREA_STYLE(
'HP 3D HR CB PA 12 (mit 3D-Drucker HP Jet Fusion 580 Color)',(#623));
#623=FILL_AREA_STYLE_COLOUR(
'HP 3D HR CB PA 12 (mit 3D-Drucker HP Jet Fusion 580 Color)',#624);
#624=COLOUR_RGB(
'HP 3D HR CB PA 12 (mit 3D-Drucker HP Jet Fusion 580 Color)',0.964705882352941,
0.964705882352941,0.952941176470588);
ENDSEC;
END-ISO-10303-21;
