ISO-10303-21;
HEADER;
/* Generated by software containing ST-Developer
 * from STEP Tools, Inc. (www.steptools.com) 
 */

FILE_DESCRIPTION(
/* description */ (''),
/* implementation_level */ '2;1');

FILE_NAME(
/* name */ 'PTFE Federbandstahl holder.step',
/* time_stamp */ '2026-05-09T21:08:38+02:00',
/* author */ (''),
/* organization */ (''),
/* preprocessor_version */ 'ST-DEVELOPER v20.1',
/* originating_system */ 'Autodesk Translation Framework v15.8.0.0',
/* authorisation */ '');

FILE_SCHEMA (('AUTOMOTIVE_DESIGN { 1 0 10303 214 3 1 1 }'));
ENDSEC;

DATA;
#10=MECHANICAL_DESIGN_GEOMETRIC_PRESENTATION_REPRESENTATION('',(#13),#636);
#11=SHAPE_REPRESENTATION_RELATIONSHIP('SRR','None',#643,#12);
#12=ADVANCED_BREP_SHAPE_REPRESENTATION('',(#14),#635);
#13=STYLED_ITEM('',(#652),#14);
#14=MANIFOLD_SOLID_BREP('K\X\F6rper1',#372);
#15=CYLINDRICAL_SURFACE('',#395,2.25);
#16=CYLINDRICAL_SURFACE('',#402,4.99999999999996);
#17=CYLINDRICAL_SURFACE('',#405,3.);
#18=CYLINDRICAL_SURFACE('',#407,4.25000000138754);
#19=CYLINDRICAL_SURFACE('',#409,2.99999999999999);
#20=CYLINDRICAL_SURFACE('',#412,4.99999999999989);
#21=CYLINDRICAL_SURFACE('',#415,1.);
#22=CYLINDRICAL_SURFACE('',#418,1.);
#23=FACE_BOUND('',#47,.T.);
#24=FACE_BOUND('',#48,.T.);
#25=FACE_BOUND('',#67,.T.);
#26=FACE_BOUND('',#68,.T.);
#27=FACE_OUTER_BOUND('',#46,.T.);
#28=FACE_OUTER_BOUND('',#49,.T.);
#29=FACE_OUTER_BOUND('',#50,.T.);
#30=FACE_OUTER_BOUND('',#51,.T.);
#31=FACE_OUTER_BOUND('',#52,.T.);
#32=FACE_OUTER_BOUND('',#53,.T.);
#33=FACE_OUTER_BOUND('',#54,.T.);
#34=FACE_OUTER_BOUND('',#55,.T.);
#35=FACE_OUTER_BOUND('',#56,.T.);
#36=FACE_OUTER_BOUND('',#57,.T.);
#37=FACE_OUTER_BOUND('',#58,.T.);
#38=FACE_OUTER_BOUND('',#59,.T.);
#39=FACE_OUTER_BOUND('',#60,.T.);
#40=FACE_OUTER_BOUND('',#61,.T.);
#41=FACE_OUTER_BOUND('',#62,.T.);
#42=FACE_OUTER_BOUND('',#63,.T.);
#43=FACE_OUTER_BOUND('',#64,.T.);
#44=FACE_OUTER_BOUND('',#65,.T.);
#45=FACE_OUTER_BOUND('',#66,.T.);
#46=EDGE_LOOP('',(#240,#241,#242,#243,#244,#245,#246,#247,#248,#249,#250,
#251));
#47=EDGE_LOOP('',(#252,#253,#254,#255));
#48=EDGE_LOOP('',(#256));
#49=EDGE_LOOP('',(#257,#258,#259,#260));
#50=EDGE_LOOP('',(#261,#262,#263,#264));
#51=EDGE_LOOP('',(#265,#266,#267,#268));
#52=EDGE_LOOP('',(#269,#270,#271,#272));
#53=EDGE_LOOP('',(#273,#274,#275,#276));
#54=EDGE_LOOP('',(#277,#278,#279,#280));
#55=EDGE_LOOP('',(#281,#282,#283,#284));
#56=EDGE_LOOP('',(#285,#286,#287,#288));
#57=EDGE_LOOP('',(#289,#290,#291,#292));
#58=EDGE_LOOP('',(#293,#294,#295,#296));
#59=EDGE_LOOP('',(#297,#298,#299,#300));
#60=EDGE_LOOP('',(#301,#302,#303,#304));
#61=EDGE_LOOP('',(#305,#306,#307,#308));
#62=EDGE_LOOP('',(#309,#310,#311,#312));
#63=EDGE_LOOP('',(#313,#314,#315,#316));
#64=EDGE_LOOP('',(#317,#318,#319,#320));
#65=EDGE_LOOP('',(#321,#322,#323,#324));
#66=EDGE_LOOP('',(#325,#326,#327,#328,#329,#330,#331,#332,#333,#334,#335,
#336));
#67=EDGE_LOOP('',(#337,#338,#339,#340));
#68=EDGE_LOOP('',(#341));
#69=LINE('',#534,#104);
#70=LINE('',#538,#105);
#71=LINE('',#542,#106);
#72=LINE('',#550,#107);
#73=LINE('',#553,#108);
#74=LINE('',#556,#109);
#75=LINE('',#558,#110);
#76=LINE('',#560,#111);
#77=LINE('',#561,#112);
#78=LINE('',#566,#113);
#79=LINE('',#571,#114);
#80=LINE('',#572,#115);
#81=LINE('',#573,#116);
#82=LINE('',#576,#117);
#83=LINE('',#577,#118);
#84=LINE('',#580,#119);
#85=LINE('',#581,#120);
#86=LINE('',#583,#121);
#87=LINE('',#587,#122);
#88=LINE('',#588,#123);
#89=LINE('',#589,#124);
#90=LINE('',#593,#125);
#91=LINE('',#596,#126);
#92=LINE('',#597,#127);
#93=LINE('',#601,#128);
#94=LINE('',#605,#129);
#95=LINE('',#609,#130);
#96=LINE('',#612,#131);
#97=LINE('',#613,#132);
#98=LINE('',#617,#133);
#99=LINE('',#620,#134);
#100=LINE('',#621,#135);
#101=LINE('',#625,#136);
#102=LINE('',#628,#137);
#103=LINE('',#629,#138);
#104=VECTOR('',#427,10.);
#105=VECTOR('',#430,10.);
#106=VECTOR('',#433,10.);
#107=VECTOR('',#440,10.);
#108=VECTOR('',#443,10.);
#109=VECTOR('',#444,10.);
#110=VECTOR('',#445,10.);
#111=VECTOR('',#446,10.);
#112=VECTOR('',#447,10.);
#113=VECTOR('',#452,2.25);
#114=VECTOR('',#457,10.);
#115=VECTOR('',#458,10.);
#116=VECTOR('',#459,10.);
#117=VECTOR('',#462,10.);
#118=VECTOR('',#463,10.);
#119=VECTOR('',#466,10.);
#120=VECTOR('',#467,10.);
#121=VECTOR('',#470,10.);
#122=VECTOR('',#473,10.);
#123=VECTOR('',#474,10.);
#124=VECTOR('',#475,10.);
#125=VECTOR('',#480,10.);
#126=VECTOR('',#483,10.);
#127=VECTOR('',#484,10.);
#128=VECTOR('',#489,10.);
#129=VECTOR('',#494,10.);
#130=VECTOR('',#499,10.);
#131=VECTOR('',#502,10.);
#132=VECTOR('',#503,10.);
#133=VECTOR('',#508,10.);
#134=VECTOR('',#511,10.);
#135=VECTOR('',#512,10.);
#136=VECTOR('',#517,10.);
#137=VECTOR('',#520,10.);
#138=VECTOR('',#521,10.);
#139=CIRCLE('',#387,1.);
#140=CIRCLE('',#388,1.);
#141=CIRCLE('',#389,4.99999999999989);
#142=CIRCLE('',#390,2.99999999999999);
#143=CIRCLE('',#391,4.25000000138754);
#144=CIRCLE('',#392,3.);
#145=CIRCLE('',#393,4.99999999999996);
#146=CIRCLE('',#394,2.25);
#147=CIRCLE('',#396,2.25);
#148=CIRCLE('',#403,4.99999999999996);
#149=CIRCLE('',#406,3.);
#150=CIRCLE('',#408,4.25000000138754);
#151=CIRCLE('',#410,2.99999999999999);
#152=CIRCLE('',#413,4.99999999999989);
#153=CIRCLE('',#416,1.);
#154=CIRCLE('',#419,1.);
#155=VERTEX_POINT('',#530);
#156=VERTEX_POINT('',#531);
#157=VERTEX_POINT('',#533);
#158=VERTEX_POINT('',#535);
#159=VERTEX_POINT('',#537);
#160=VERTEX_POINT('',#539);
#161=VERTEX_POINT('',#541);
#162=VERTEX_POINT('',#543);
#163=VERTEX_POINT('',#545);
#164=VERTEX_POINT('',#547);
#165=VERTEX_POINT('',#549);
#166=VERTEX_POINT('',#551);
#167=VERTEX_POINT('',#554);
#168=VERTEX_POINT('',#555);
#169=VERTEX_POINT('',#557);
#170=VERTEX_POINT('',#559);
#171=VERTEX_POINT('',#562);
#172=VERTEX_POINT('',#565);
#173=VERTEX_POINT('',#569);
#174=VERTEX_POINT('',#570);
#175=VERTEX_POINT('',#575);
#176=VERTEX_POINT('',#579);
#177=VERTEX_POINT('',#585);
#178=VERTEX_POINT('',#586);
#179=VERTEX_POINT('',#591);
#180=VERTEX_POINT('',#595);
#181=VERTEX_POINT('',#599);
#182=VERTEX_POINT('',#603);
#183=VERTEX_POINT('',#607);
#184=VERTEX_POINT('',#611);
#185=VERTEX_POINT('',#615);
#186=VERTEX_POINT('',#619);
#187=VERTEX_POINT('',#623);
#188=VERTEX_POINT('',#627);
#189=EDGE_CURVE('',#155,#156,#139,.T.);
#190=EDGE_CURVE('',#156,#157,#69,.T.);
#191=EDGE_CURVE('',#157,#158,#140,.T.);
#192=EDGE_CURVE('',#158,#159,#70,.T.);
#193=EDGE_CURVE('',#159,#160,#141,.T.);
#194=EDGE_CURVE('',#160,#161,#71,.T.);
#195=EDGE_CURVE('',#161,#162,#142,.T.);
#196=EDGE_CURVE('',#162,#163,#143,.T.);
#197=EDGE_CURVE('',#163,#164,#144,.T.);
#198=EDGE_CURVE('',#164,#165,#72,.T.);
#199=EDGE_CURVE('',#165,#166,#145,.T.);
#200=EDGE_CURVE('',#166,#155,#73,.T.);
#201=EDGE_CURVE('',#167,#168,#74,.T.);
#202=EDGE_CURVE('',#168,#169,#75,.T.);
#203=EDGE_CURVE('',#169,#170,#76,.T.);
#204=EDGE_CURVE('',#170,#167,#77,.T.);
#205=EDGE_CURVE('',#171,#171,#146,.T.);
#206=EDGE_CURVE('',#171,#172,#78,.T.);
#207=EDGE_CURVE('',#172,#172,#147,.T.);
#208=EDGE_CURVE('',#173,#174,#79,.T.);
#209=EDGE_CURVE('',#174,#167,#80,.T.);
#210=EDGE_CURVE('',#173,#170,#81,.T.);
#211=EDGE_CURVE('',#175,#173,#82,.T.);
#212=EDGE_CURVE('',#175,#169,#83,.T.);
#213=EDGE_CURVE('',#176,#175,#84,.T.);
#214=EDGE_CURVE('',#176,#168,#85,.T.);
#215=EDGE_CURVE('',#174,#176,#86,.T.);
#216=EDGE_CURVE('',#177,#178,#87,.T.);
#217=EDGE_CURVE('',#177,#155,#88,.T.);
#218=EDGE_CURVE('',#178,#166,#89,.T.);
#219=EDGE_CURVE('',#179,#178,#148,.T.);
#220=EDGE_CURVE('',#179,#165,#90,.T.);
#221=EDGE_CURVE('',#179,#180,#91,.T.);
#222=EDGE_CURVE('',#180,#164,#92,.T.);
#223=EDGE_CURVE('',#181,#180,#149,.T.);
#224=EDGE_CURVE('',#181,#163,#93,.T.);
#225=EDGE_CURVE('',#182,#181,#150,.T.);
#226=EDGE_CURVE('',#182,#162,#94,.T.);
#227=EDGE_CURVE('',#183,#182,#151,.T.);
#228=EDGE_CURVE('',#183,#161,#95,.T.);
#229=EDGE_CURVE('',#184,#183,#96,.T.);
#230=EDGE_CURVE('',#184,#160,#97,.T.);
#231=EDGE_CURVE('',#185,#184,#152,.T.);
#232=EDGE_CURVE('',#185,#159,#98,.T.);
#233=EDGE_CURVE('',#186,#185,#99,.T.);
#234=EDGE_CURVE('',#186,#158,#100,.T.);
#235=EDGE_CURVE('',#187,#186,#153,.T.);
#236=EDGE_CURVE('',#187,#157,#101,.T.);
#237=EDGE_CURVE('',#188,#187,#102,.T.);
#238=EDGE_CURVE('',#188,#156,#103,.T.);
#239=EDGE_CURVE('',#177,#188,#154,.T.);
#240=ORIENTED_EDGE('',*,*,#189,.T.);
#241=ORIENTED_EDGE('',*,*,#190,.T.);
#242=ORIENTED_EDGE('',*,*,#191,.T.);
#243=ORIENTED_EDGE('',*,*,#192,.T.);
#244=ORIENTED_EDGE('',*,*,#193,.T.);
#245=ORIENTED_EDGE('',*,*,#194,.T.);
#246=ORIENTED_EDGE('',*,*,#195,.T.);
#247=ORIENTED_EDGE('',*,*,#196,.T.);
#248=ORIENTED_EDGE('',*,*,#197,.T.);
#249=ORIENTED_EDGE('',*,*,#198,.T.);
#250=ORIENTED_EDGE('',*,*,#199,.T.);
#251=ORIENTED_EDGE('',*,*,#200,.T.);
#252=ORIENTED_EDGE('',*,*,#201,.T.);
#253=ORIENTED_EDGE('',*,*,#202,.T.);
#254=ORIENTED_EDGE('',*,*,#203,.T.);
#255=ORIENTED_EDGE('',*,*,#204,.T.);
#256=ORIENTED_EDGE('',*,*,#205,.T.);
#257=ORIENTED_EDGE('',*,*,#205,.F.);
#258=ORIENTED_EDGE('',*,*,#206,.T.);
#259=ORIENTED_EDGE('',*,*,#207,.T.);
#260=ORIENTED_EDGE('',*,*,#206,.F.);
#261=ORIENTED_EDGE('',*,*,#208,.T.);
#262=ORIENTED_EDGE('',*,*,#209,.T.);
#263=ORIENTED_EDGE('',*,*,#204,.F.);
#264=ORIENTED_EDGE('',*,*,#210,.F.);
#265=ORIENTED_EDGE('',*,*,#211,.T.);
#266=ORIENTED_EDGE('',*,*,#210,.T.);
#267=ORIENTED_EDGE('',*,*,#203,.F.);
#268=ORIENTED_EDGE('',*,*,#212,.F.);
#269=ORIENTED_EDGE('',*,*,#213,.T.);
#270=ORIENTED_EDGE('',*,*,#212,.T.);
#271=ORIENTED_EDGE('',*,*,#202,.F.);
#272=ORIENTED_EDGE('',*,*,#214,.F.);
#273=ORIENTED_EDGE('',*,*,#215,.T.);
#274=ORIENTED_EDGE('',*,*,#214,.T.);
#275=ORIENTED_EDGE('',*,*,#201,.F.);
#276=ORIENTED_EDGE('',*,*,#209,.F.);
#277=ORIENTED_EDGE('',*,*,#216,.F.);
#278=ORIENTED_EDGE('',*,*,#217,.T.);
#279=ORIENTED_EDGE('',*,*,#200,.F.);
#280=ORIENTED_EDGE('',*,*,#218,.F.);
#281=ORIENTED_EDGE('',*,*,#219,.T.);
#282=ORIENTED_EDGE('',*,*,#218,.T.);
#283=ORIENTED_EDGE('',*,*,#199,.F.);
#284=ORIENTED_EDGE('',*,*,#220,.F.);
#285=ORIENTED_EDGE('',*,*,#221,.F.);
#286=ORIENTED_EDGE('',*,*,#220,.T.);
#287=ORIENTED_EDGE('',*,*,#198,.F.);
#288=ORIENTED_EDGE('',*,*,#222,.F.);
#289=ORIENTED_EDGE('',*,*,#223,.T.);
#290=ORIENTED_EDGE('',*,*,#222,.T.);
#291=ORIENTED_EDGE('',*,*,#197,.F.);
#292=ORIENTED_EDGE('',*,*,#224,.F.);
#293=ORIENTED_EDGE('',*,*,#225,.T.);
#294=ORIENTED_EDGE('',*,*,#224,.T.);
#295=ORIENTED_EDGE('',*,*,#196,.F.);
#296=ORIENTED_EDGE('',*,*,#226,.F.);
#297=ORIENTED_EDGE('',*,*,#227,.T.);
#298=ORIENTED_EDGE('',*,*,#226,.T.);
#299=ORIENTED_EDGE('',*,*,#195,.F.);
#300=ORIENTED_EDGE('',*,*,#228,.F.);
#301=ORIENTED_EDGE('',*,*,#229,.T.);
#302=ORIENTED_EDGE('',*,*,#228,.T.);
#303=ORIENTED_EDGE('',*,*,#194,.F.);
#304=ORIENTED_EDGE('',*,*,#230,.F.);
#305=ORIENTED_EDGE('',*,*,#231,.T.);
#306=ORIENTED_EDGE('',*,*,#230,.T.);
#307=ORIENTED_EDGE('',*,*,#193,.F.);
#308=ORIENTED_EDGE('',*,*,#232,.F.);
#309=ORIENTED_EDGE('',*,*,#233,.T.);
#310=ORIENTED_EDGE('',*,*,#232,.T.);
#311=ORIENTED_EDGE('',*,*,#192,.F.);
#312=ORIENTED_EDGE('',*,*,#234,.F.);
#313=ORIENTED_EDGE('',*,*,#235,.T.);
#314=ORIENTED_EDGE('',*,*,#234,.T.);
#315=ORIENTED_EDGE('',*,*,#191,.F.);
#316=ORIENTED_EDGE('',*,*,#236,.F.);
#317=ORIENTED_EDGE('',*,*,#237,.T.);
#318=ORIENTED_EDGE('',*,*,#236,.T.);
#319=ORIENTED_EDGE('',*,*,#190,.F.);
#320=ORIENTED_EDGE('',*,*,#238,.F.);
#321=ORIENTED_EDGE('',*,*,#239,.T.);
#322=ORIENTED_EDGE('',*,*,#238,.T.);
#323=ORIENTED_EDGE('',*,*,#189,.F.);
#324=ORIENTED_EDGE('',*,*,#217,.F.);
#325=ORIENTED_EDGE('',*,*,#239,.F.);
#326=ORIENTED_EDGE('',*,*,#216,.T.);
#327=ORIENTED_EDGE('',*,*,#219,.F.);
#328=ORIENTED_EDGE('',*,*,#221,.T.);
#329=ORIENTED_EDGE('',*,*,#223,.F.);
#330=ORIENTED_EDGE('',*,*,#225,.F.);
#331=ORIENTED_EDGE('',*,*,#227,.F.);
#332=ORIENTED_EDGE('',*,*,#229,.F.);
#333=ORIENTED_EDGE('',*,*,#231,.F.);
#334=ORIENTED_EDGE('',*,*,#233,.F.);
#335=ORIENTED_EDGE('',*,*,#235,.F.);
#336=ORIENTED_EDGE('',*,*,#237,.F.);
#337=ORIENTED_EDGE('',*,*,#215,.F.);
#338=ORIENTED_EDGE('',*,*,#208,.F.);
#339=ORIENTED_EDGE('',*,*,#211,.F.);
#340=ORIENTED_EDGE('',*,*,#213,.F.);
#341=ORIENTED_EDGE('',*,*,#207,.F.);
#342=PLANE('',#386);
#343=PLANE('',#397);
#344=PLANE('',#398);
#345=PLANE('',#399);
#346=PLANE('',#400);
#347=PLANE('',#401);
#348=PLANE('',#404);
#349=PLANE('',#411);
#350=PLANE('',#414);
#351=PLANE('',#417);
#352=PLANE('',#420);
#353=ADVANCED_FACE('',(#27,#23,#24),#342,.T.);
#354=ADVANCED_FACE('',(#28),#15,.F.);
#355=ADVANCED_FACE('',(#29),#343,.T.);
#356=ADVANCED_FACE('',(#30),#344,.T.);
#357=ADVANCED_FACE('',(#31),#345,.T.);
#358=ADVANCED_FACE('',(#32),#346,.T.);
#359=ADVANCED_FACE('',(#33),#347,.T.);
#360=ADVANCED_FACE('',(#34),#16,.T.);
#361=ADVANCED_FACE('',(#35),#348,.T.);
#362=ADVANCED_FACE('',(#36),#17,.T.);
#363=ADVANCED_FACE('',(#37),#18,.T.);
#364=ADVANCED_FACE('',(#38),#19,.T.);
#365=ADVANCED_FACE('',(#39),#349,.T.);
#366=ADVANCED_FACE('',(#40),#20,.T.);
#367=ADVANCED_FACE('',(#41),#350,.T.);
#368=ADVANCED_FACE('',(#42),#21,.T.);
#369=ADVANCED_FACE('',(#43),#351,.T.);
#370=ADVANCED_FACE('',(#44),#22,.T.);
#371=ADVANCED_FACE('',(#45,#25,#26),#352,.F.);
#372=CLOSED_SHELL('',(#353,#354,#355,#356,#357,#358,#359,#360,#361,#362,
#363,#364,#365,#366,#367,#368,#369,#370,#371));
#373=DERIVED_UNIT_ELEMENT(#375,1.);
#374=DERIVED_UNIT_ELEMENT(#638,-3.);
#375=(
MASS_UNIT()
NAMED_UNIT(*)
SI_UNIT(.KILO.,.GRAM.)
);
#376=DERIVED_UNIT((#373,#374));
#377=MEASURE_REPRESENTATION_ITEM('density measure',
POSITIVE_RATIO_MEASURE(992.85),#376);
#378=PROPERTY_DEFINITION_REPRESENTATION(#383,#380);
#379=PROPERTY_DEFINITION_REPRESENTATION(#384,#381);
#380=REPRESENTATION('material name',(#382),#635);
#381=REPRESENTATION('density',(#377),#635);
#382=DESCRIPTIVE_REPRESENTATION_ITEM(
'HP 3D HR CB PA 12 (mit 3D-Drucker HP Jet Fusion 580 Color)',
'HP 3D HR CB PA 12 (mit 3D-Drucker HP Jet Fusion 580 Color)');
#383=PROPERTY_DEFINITION('material property','material name',#645);
#384=PROPERTY_DEFINITION('material property','density of part',#645);
#385=AXIS2_PLACEMENT_3D('',#528,#421,#422);
#386=AXIS2_PLACEMENT_3D('',#529,#423,#424);
#387=AXIS2_PLACEMENT_3D('',#532,#425,#426);
#388=AXIS2_PLACEMENT_3D('',#536,#428,#429);
#389=AXIS2_PLACEMENT_3D('',#540,#431,#432);
#390=AXIS2_PLACEMENT_3D('',#544,#434,#435);
#391=AXIS2_PLACEMENT_3D('',#546,#436,#437);
#392=AXIS2_PLACEMENT_3D('',#548,#438,#439);
#393=AXIS2_PLACEMENT_3D('',#552,#441,#442);
#394=AXIS2_PLACEMENT_3D('',#563,#448,#449);
#395=AXIS2_PLACEMENT_3D('',#564,#450,#451);
#396=AXIS2_PLACEMENT_3D('',#567,#453,#454);
#397=AXIS2_PLACEMENT_3D('',#568,#455,#456);
#398=AXIS2_PLACEMENT_3D('',#574,#460,#461);
#399=AXIS2_PLACEMENT_3D('',#578,#464,#465);
#400=AXIS2_PLACEMENT_3D('',#582,#468,#469);
#401=AXIS2_PLACEMENT_3D('',#584,#471,#472);
#402=AXIS2_PLACEMENT_3D('',#590,#476,#477);
#403=AXIS2_PLACEMENT_3D('',#592,#478,#479);
#404=AXIS2_PLACEMENT_3D('',#594,#481,#482);
#405=AXIS2_PLACEMENT_3D('',#598,#485,#486);
#406=AXIS2_PLACEMENT_3D('',#600,#487,#488);
#407=AXIS2_PLACEMENT_3D('',#602,#490,#491);
#408=AXIS2_PLACEMENT_3D('',#604,#492,#493);
#409=AXIS2_PLACEMENT_3D('',#606,#495,#496);
#410=AXIS2_PLACEMENT_3D('',#608,#497,#498);
#411=AXIS2_PLACEMENT_3D('',#610,#500,#501);
#412=AXIS2_PLACEMENT_3D('',#614,#504,#505);
#413=AXIS2_PLACEMENT_3D('',#616,#506,#507);
#414=AXIS2_PLACEMENT_3D('',#618,#509,#510);
#415=AXIS2_PLACEMENT_3D('',#622,#513,#514);
#416=AXIS2_PLACEMENT_3D('',#624,#515,#516);
#417=AXIS2_PLACEMENT_3D('',#626,#518,#519);
#418=AXIS2_PLACEMENT_3D('',#630,#522,#523);
#419=AXIS2_PLACEMENT_3D('',#631,#524,#525);
#420=AXIS2_PLACEMENT_3D('',#632,#526,#527);
#421=DIRECTION('axis',(0.,0.,1.));
#422=DIRECTION('refdir',(1.,0.,0.));
#423=DIRECTION('center_axis',(0.,0.,1.));
#424=DIRECTION('ref_axis',(1.,0.,0.));
#425=DIRECTION('center_axis',(0.,0.,1.));
#426=DIRECTION('ref_axis',(-1.,0.,0.));
#427=DIRECTION('',(1.,0.,0.));
#428=DIRECTION('center_axis',(0.,0.,1.));
#429=DIRECTION('ref_axis',(-1.11022302462516E-15,-1.,0.));
#430=DIRECTION('',(0.,1.,0.));
#431=DIRECTION('center_axis',(0.,0.,1.));
#432=DIRECTION('ref_axis',(1.,-4.57966997657887E-15,0.));
#433=DIRECTION('',(-0.422885473092989,0.906183136373062,0.));
#434=DIRECTION('center_axis',(0.,0.,1.));
#435=DIRECTION('ref_axis',(0.906183136373062,0.422885473092988,0.));
#436=DIRECTION('center_axis',(0.,0.,1.));
#437=DIRECTION('ref_axis',(0.307515891292213,0.951542945222524,0.));
#438=DIRECTION('center_axis',(0.,0.,1.));
#439=DIRECTION('ref_axis',(-0.307515891292211,0.951542945222525,0.));
#440=DIRECTION('',(-0.422885473092989,-0.906183136373062,0.));
#441=DIRECTION('center_axis',(0.,0.,1.));
#442=DIRECTION('ref_axis',(-0.906183136373061,0.42288547309299,0.));
#443=DIRECTION('',(0.,-1.,0.));
#444=DIRECTION('',(1.6049416203227E-33,1.,0.));
#445=DIRECTION('',(1.,0.,0.));
#446=DIRECTION('',(0.,-1.,0.));
#447=DIRECTION('',(-1.,0.,0.));
#448=DIRECTION('center_axis',(0.,0.,-1.));
#449=DIRECTION('ref_axis',(1.,0.,0.));
#450=DIRECTION('center_axis',(0.,0.,1.));
#451=DIRECTION('ref_axis',(1.,0.,0.));
#452=DIRECTION('',(0.,0.,-1.));
#453=DIRECTION('center_axis',(0.,0.,-1.));
#454=DIRECTION('ref_axis',(1.,0.,0.));
#455=DIRECTION('center_axis',(0.,1.,0.));
#456=DIRECTION('ref_axis',(-1.,0.,0.));
#457=DIRECTION('',(-1.,0.,0.));
#458=DIRECTION('',(0.,0.,1.));
#459=DIRECTION('',(0.,0.,1.));
#460=DIRECTION('center_axis',(-1.,0.,0.));
#461=DIRECTION('ref_axis',(0.,-1.,0.));
#462=DIRECTION('',(0.,-1.,0.));
#463=DIRECTION('',(0.,0.,1.));
#464=DIRECTION('center_axis',(0.,-1.,0.));
#465=DIRECTION('ref_axis',(1.,0.,0.));
#466=DIRECTION('',(1.,0.,0.));
#467=DIRECTION('',(0.,0.,1.));
#468=DIRECTION('center_axis',(1.,-1.6049416203227E-33,0.));
#469=DIRECTION('ref_axis',(1.6049416203227E-33,1.,0.));
#470=DIRECTION('',(1.6049416203227E-33,1.,0.));
#471=DIRECTION('center_axis',(-1.,0.,0.));
#472=DIRECTION('ref_axis',(0.,-1.,0.));
#473=DIRECTION('',(0.,1.,0.));
#474=DIRECTION('',(0.,0.,1.));
#475=DIRECTION('',(0.,0.,1.));
#476=DIRECTION('center_axis',(0.,0.,1.));
#477=DIRECTION('ref_axis',(-0.906183136373061,0.42288547309299,0.));
#478=DIRECTION('center_axis',(0.,0.,1.));
#479=DIRECTION('ref_axis',(-0.906183136373061,0.42288547309299,0.));
#480=DIRECTION('',(0.,0.,1.));
#481=DIRECTION('center_axis',(-0.906183136373062,0.422885473092989,0.));
#482=DIRECTION('ref_axis',(-0.422885473092989,-0.906183136373062,0.));
#483=DIRECTION('',(0.422885473092989,0.906183136373062,0.));
#484=DIRECTION('',(0.,0.,1.));
#485=DIRECTION('center_axis',(0.,0.,1.));
#486=DIRECTION('ref_axis',(-0.307515891292211,0.951542945222525,0.));
#487=DIRECTION('center_axis',(0.,0.,1.));
#488=DIRECTION('ref_axis',(-0.307515891292211,0.951542945222525,0.));
#489=DIRECTION('',(0.,0.,1.));
#490=DIRECTION('center_axis',(0.,0.,1.));
#491=DIRECTION('ref_axis',(0.307515891292213,0.951542945222524,0.));
#492=DIRECTION('center_axis',(0.,0.,1.));
#493=DIRECTION('ref_axis',(0.307515891292213,0.951542945222524,0.));
#494=DIRECTION('',(0.,0.,1.));
#495=DIRECTION('center_axis',(0.,0.,1.));
#496=DIRECTION('ref_axis',(0.906183136373062,0.422885473092988,0.));
#497=DIRECTION('center_axis',(0.,0.,1.));
#498=DIRECTION('ref_axis',(0.906183136373062,0.422885473092988,0.));
#499=DIRECTION('',(0.,0.,1.));
#500=DIRECTION('center_axis',(0.906183136373062,0.422885473092989,0.));
#501=DIRECTION('ref_axis',(-0.422885473092989,0.906183136373062,0.));
#502=DIRECTION('',(-0.422885473092989,0.906183136373062,0.));
#503=DIRECTION('',(0.,0.,1.));
#504=DIRECTION('center_axis',(0.,0.,1.));
#505=DIRECTION('ref_axis',(1.,-4.57966997657887E-15,0.));
#506=DIRECTION('center_axis',(0.,0.,1.));
#507=DIRECTION('ref_axis',(1.,-4.57966997657887E-15,0.));
#508=DIRECTION('',(0.,0.,1.));
#509=DIRECTION('center_axis',(1.,0.,0.));
#510=DIRECTION('ref_axis',(0.,1.,0.));
#511=DIRECTION('',(0.,1.,0.));
#512=DIRECTION('',(0.,0.,1.));
#513=DIRECTION('center_axis',(0.,0.,1.));
#514=DIRECTION('ref_axis',(-1.11022302462516E-15,-1.,0.));
#515=DIRECTION('center_axis',(0.,0.,1.));
#516=DIRECTION('ref_axis',(-1.11022302462516E-15,-1.,0.));
#517=DIRECTION('',(0.,0.,1.));
#518=DIRECTION('center_axis',(0.,-1.,0.));
#519=DIRECTION('ref_axis',(1.,0.,0.));
#520=DIRECTION('',(1.,0.,0.));
#521=DIRECTION('',(0.,0.,1.));
#522=DIRECTION('center_axis',(0.,0.,1.));
#523=DIRECTION('ref_axis',(-1.,0.,0.));
#524=DIRECTION('center_axis',(0.,0.,1.));
#525=DIRECTION('ref_axis',(-1.,0.,0.));
#526=DIRECTION('center_axis',(0.,0.,1.));
#527=DIRECTION('ref_axis',(1.,0.,0.));
#528=CARTESIAN_POINT('',(0.,0.,0.));
#529=CARTESIAN_POINT('Origin',(4.,3.2999456517652,3.));
#530=CARTESIAN_POINT('',(-2.,-1.,3.));
#531=CARTESIAN_POINT('',(-1.,-2.,3.));
#532=CARTESIAN_POINT('Origin',(-1.,-1.,3.));
#533=CARTESIAN_POINT('',(9.,-2.,3.));
#534=CARTESIAN_POINT('',(-1.,-2.,3.));
#535=CARTESIAN_POINT('',(10.,-1.,3.));
#536=CARTESIAN_POINT('Origin',(9.,-1.,3.));
#537=CARTESIAN_POINT('',(10.,-0.509246719626332,3.));
#538=CARTESIAN_POINT('',(10.,-1.,3.));
#539=CARTESIAN_POINT('',(9.53091568186531,1.60518064583861,3.));
#540=CARTESIAN_POINT('Origin',(5.00000000000011,-0.509246719626309,3.));
#541=CARTESIAN_POINT('',(7.10294427366114,6.80797640427028,3.));
#542=CARTESIAN_POINT('',(9.53091568186531,1.60518064583861,3.));
#543=CARTESIAN_POINT('',(5.3069425384186,8.39394882065888,3.));
#544=CARTESIAN_POINT('Origin',(4.38439486454196,5.53931998499132,3.));
#545=CARTESIAN_POINT('',(2.69305746158141,8.39394882065888,3.));
#546=CARTESIAN_POINT('Origin',(4.,4.34989130214285,3.));
#547=CARTESIAN_POINT('',(0.89705572633886,6.80797640427028,3.));
#548=CARTESIAN_POINT('Origin',(3.61560513545804,5.53931998499131,3.));
#549=CARTESIAN_POINT('',(-1.53091568186531,1.60518064583861,3.));
#550=CARTESIAN_POINT('',(-1.53091568186531,1.60518064583861,3.));
#551=CARTESIAN_POINT('',(-2.,-0.509246719626334,3.));
#552=CARTESIAN_POINT('Origin',(2.99999999999996,-0.509246719626324,3.));
#553=CARTESIAN_POINT('',(-2.,-1.,3.));
#554=CARTESIAN_POINT('',(0.,0.,3.));
#555=CARTESIAN_POINT('',(9.62964972193618E-34,0.6,3.));
#556=CARTESIAN_POINT('',(9.62964972193618E-34,0.6,3.));
#557=CARTESIAN_POINT('',(8.,0.6,3.));
#558=CARTESIAN_POINT('',(8.,0.6,3.));
#559=CARTESIAN_POINT('',(8.,0.,3.));
#560=CARTESIAN_POINT('',(8.,0.,3.));
#561=CARTESIAN_POINT('',(0.,0.,3.));
#562=CARTESIAN_POINT('',(1.75,4.34999990276992,3.));
#563=CARTESIAN_POINT('Origin',(4.,4.34999990276992,3.));
#564=CARTESIAN_POINT('Origin',(4.,4.34999990276992,0.));
#565=CARTESIAN_POINT('',(1.75,4.34999990276992,0.));
#566=CARTESIAN_POINT('',(1.75,4.34999990276992,0.));
#567=CARTESIAN_POINT('Origin',(4.,4.34999990276992,0.));
#568=CARTESIAN_POINT('Origin',(8.,0.,0.));
#569=CARTESIAN_POINT('',(8.,0.,0.));
#570=CARTESIAN_POINT('',(0.,0.,0.));
#571=CARTESIAN_POINT('',(0.,0.,0.));
#572=CARTESIAN_POINT('',(0.,0.,0.));
#573=CARTESIAN_POINT('',(8.,0.,0.));
#574=CARTESIAN_POINT('Origin',(8.,0.6,0.));
#575=CARTESIAN_POINT('',(8.,0.6,0.));
#576=CARTESIAN_POINT('',(8.,0.,0.));
#577=CARTESIAN_POINT('',(8.,0.6,0.));
#578=CARTESIAN_POINT('Origin',(0.,0.6,0.));
#579=CARTESIAN_POINT('',(9.62964972193618E-34,0.6,0.));
#580=CARTESIAN_POINT('',(8.,0.6,0.));
#581=CARTESIAN_POINT('',(9.62964972193618E-34,0.6,0.));
#582=CARTESIAN_POINT('Origin',(0.,0.,0.));
#583=CARTESIAN_POINT('',(9.62964972193618E-34,0.6,0.));
#584=CARTESIAN_POINT('Origin',(-2.,-0.509246719626334,0.));
#585=CARTESIAN_POINT('',(-2.,-1.,0.));
#586=CARTESIAN_POINT('',(-2.,-0.509246719626334,0.));
#587=CARTESIAN_POINT('',(-2.,-1.,0.));
#588=CARTESIAN_POINT('',(-2.,-1.,0.));
#589=CARTESIAN_POINT('',(-2.,-0.509246719626334,0.));
#590=CARTESIAN_POINT('Origin',(2.99999999999996,-0.509246719626324,0.));
#591=CARTESIAN_POINT('',(-1.53091568186531,1.60518064583861,0.));
#592=CARTESIAN_POINT('Origin',(2.99999999999996,-0.509246719626324,0.));
#593=CARTESIAN_POINT('',(-1.53091568186531,1.60518064583861,0.));
#594=CARTESIAN_POINT('Origin',(0.89705572633886,6.80797640427028,0.));
#595=CARTESIAN_POINT('',(0.89705572633886,6.80797640427028,0.));
#596=CARTESIAN_POINT('',(-1.53091568186531,1.60518064583861,0.));
#597=CARTESIAN_POINT('',(0.89705572633886,6.80797640427028,0.));
#598=CARTESIAN_POINT('Origin',(3.61560513545804,5.53931998499131,0.));
#599=CARTESIAN_POINT('',(2.69305746158141,8.39394882065888,0.));
#600=CARTESIAN_POINT('Origin',(3.61560513545804,5.53931998499131,0.));
#601=CARTESIAN_POINT('',(2.69305746158141,8.39394882065888,0.));
#602=CARTESIAN_POINT('Origin',(4.,4.34989130214285,0.));
#603=CARTESIAN_POINT('',(5.3069425384186,8.39394882065888,0.));
#604=CARTESIAN_POINT('Origin',(4.,4.34989130214285,0.));
#605=CARTESIAN_POINT('',(5.3069425384186,8.39394882065888,0.));
#606=CARTESIAN_POINT('Origin',(4.38439486454196,5.53931998499132,0.));
#607=CARTESIAN_POINT('',(7.10294427366114,6.80797640427028,0.));
#608=CARTESIAN_POINT('Origin',(4.38439486454196,5.53931998499132,0.));
#609=CARTESIAN_POINT('',(7.10294427366114,6.80797640427028,0.));
#610=CARTESIAN_POINT('Origin',(9.53091568186531,1.60518064583861,0.));
#611=CARTESIAN_POINT('',(9.53091568186531,1.60518064583861,0.));
#612=CARTESIAN_POINT('',(9.53091568186531,1.60518064583861,0.));
#613=CARTESIAN_POINT('',(9.53091568186531,1.60518064583861,0.));
#614=CARTESIAN_POINT('Origin',(5.00000000000011,-0.509246719626309,0.));
#615=CARTESIAN_POINT('',(10.,-0.509246719626332,0.));
#616=CARTESIAN_POINT('Origin',(5.00000000000011,-0.509246719626309,0.));
#617=CARTESIAN_POINT('',(10.,-0.509246719626332,0.));
#618=CARTESIAN_POINT('Origin',(10.,-1.,0.));
#619=CARTESIAN_POINT('',(10.,-1.,0.));
#620=CARTESIAN_POINT('',(10.,-1.,0.));
#621=CARTESIAN_POINT('',(10.,-1.,0.));
#622=CARTESIAN_POINT('Origin',(9.,-1.,0.));
#623=CARTESIAN_POINT('',(9.,-2.,0.));
#624=CARTESIAN_POINT('Origin',(9.,-1.,0.));
#625=CARTESIAN_POINT('',(9.,-2.,0.));
#626=CARTESIAN_POINT('Origin',(-1.,-2.,0.));
#627=CARTESIAN_POINT('',(-1.,-2.,0.));
#628=CARTESIAN_POINT('',(-1.,-2.,0.));
#629=CARTESIAN_POINT('',(-1.,-2.,0.));
#630=CARTESIAN_POINT('Origin',(-1.,-1.,0.));
#631=CARTESIAN_POINT('Origin',(-1.,-1.,0.));
#632=CARTESIAN_POINT('Origin',(4.,3.2999456517652,0.));
#633=UNCERTAINTY_MEASURE_WITH_UNIT(LENGTH_MEASURE(0.01),#637,
'DISTANCE_ACCURACY_VALUE',
'Maximum model space distance between geometric entities at asserted c
onnectivities');
#634=UNCERTAINTY_MEASURE_WITH_UNIT(LENGTH_MEASURE(0.01),#637,
'DISTANCE_ACCURACY_VALUE',
'Maximum model space distance between geometric entities at asserted c
onnectivities');
#635=(
GEOMETRIC_REPRESENTATION_CONTEXT(3)
GLOBAL_UNCERTAINTY_ASSIGNED_CONTEXT((#633))
GLOBAL_UNIT_ASSIGNED_CONTEXT((#637,#639,#640))
REPRESENTATION_CONTEXT('','3D')
);
#636=(
GEOMETRIC_REPRESENTATION_CONTEXT(3)
GLOBAL_UNCERTAINTY_ASSIGNED_CONTEXT((#634))
GLOBAL_UNIT_ASSIGNED_CONTEXT((#637,#639,#640))
REPRESENTATION_CONTEXT('','3D')
);
#637=(
LENGTH_UNIT()
NAMED_UNIT(*)
SI_UNIT(.MILLI.,.METRE.)
);
#638=(
LENGTH_UNIT()
NAMED_UNIT(*)
SI_UNIT($,.METRE.)
);
#639=(
NAMED_UNIT(*)
PLANE_ANGLE_UNIT()
SI_UNIT($,.RADIAN.)
);
#640=(
NAMED_UNIT(*)
SI_UNIT($,.STERADIAN.)
SOLID_ANGLE_UNIT()
);
#641=SHAPE_DEFINITION_REPRESENTATION(#642,#643);
#642=PRODUCT_DEFINITION_SHAPE('',$,#645);
#643=SHAPE_REPRESENTATION('',(#385),#635);
#644=PRODUCT_DEFINITION_CONTEXT('part definition',#649,'design');
#645=PRODUCT_DEFINITION('PTFE Federbandstahl holder',
'PTFE Federbandstahl holder v1',#646,#644);
#646=PRODUCT_DEFINITION_FORMATION('',$,#651);
#647=PRODUCT_RELATED_PRODUCT_CATEGORY('PTFE Federbandstahl holder v1',
'PTFE Federbandstahl holder v1',(#651));
#648=APPLICATION_PROTOCOL_DEFINITION('international standard',
'automotive_design',2009,#649);
#649=APPLICATION_CONTEXT(
'Core Data for Automotive Mechanical Design Process');
#650=PRODUCT_CONTEXT('part definition',#649,'mechanical');
#651=PRODUCT('PTFE Federbandstahl holder',
'PTFE Federbandstahl holder v1',$,(#650));
#652=PRESENTATION_STYLE_ASSIGNMENT((#653));
#653=SURFACE_STYLE_USAGE(.BOTH.,#654);
#654=SURFACE_SIDE_STYLE('',(#655));
#655=SURFACE_STYLE_FILL_AREA(#656);
#656=FILL_AREA_STYLE(
'HP 3D HR CB PA 12 (mit 3D-Drucker HP Jet Fusion 580 Color)',(#657));
#657=FILL_AREA_STYLE_COLOUR(
'HP 3D HR CB PA 12 (mit 3D-Drucker HP Jet Fusion 580 Color)',#658);
#658=COLOUR_RGB(
'HP 3D HR CB PA 12 (mit 3D-Drucker HP Jet Fusion 580 Color)',0.964705882352941,
0.964705882352941,0.952941176470588);
ENDSEC;
END-ISO-10303-21;
