ISO-10303-21;
HEADER;
/* Generated by software containing ST-Developer
 * from STEP Tools, Inc. (www.steptools.com) 
 */

FILE_DESCRIPTION(
/* description */ (''),
/* implementation_level */ '2;1');

FILE_NAME(
/* name */ 'SV08max 1515 holder rev4.step',
/* time_stamp */ '2026-04-02T19:56:46+02:00',
/* author */ (''),
/* organization */ (''),
/* preprocessor_version */ 'ST-DEVELOPER v20.1',
/* originating_system */ 'Autodesk Translation Framework v14.24.0.0',
/* authorisation */ '');

FILE_SCHEMA (('AUTOMOTIVE_DESIGN { 1 0 10303 214 3 1 1 }'));
ENDSEC;

DATA;
#10=MECHANICAL_DESIGN_GEOMETRIC_PRESENTATION_REPRESENTATION('',(#13,#14),
#2304);
#11=SHAPE_REPRESENTATION_RELATIONSHIP('SRR','None',#2311,#12);
#12=ADVANCED_BREP_SHAPE_REPRESENTATION('',(#15,#16),#2303);
#13=STYLED_ITEM('',(#2320),#15);
#14=STYLED_ITEM('',(#2320),#16);
#15=MANIFOLD_SOLID_BREP('K\X\F6rper5',#1419);
#16=MANIFOLD_SOLID_BREP('K\X\F6rper13',#1420);
#17=ELLIPSE('',#1448,3.77300108535402,3.5);
#18=ELLIPSE('',#1451,3.62783089804271,3.5);
#19=ELLIPSE('',#1500,3.77300108535402,3.5);
#20=ELLIPSE('',#1503,3.62783089804271,3.5);
#21=CYLINDRICAL_SURFACE('',#1443,1.5);
#22=CYLINDRICAL_SURFACE('',#1449,3.5);
#23=CYLINDRICAL_SURFACE('',#1450,3.5);
#24=CYLINDRICAL_SURFACE('',#1455,1.5);
#25=CYLINDRICAL_SURFACE('',#1457,2.5);
#26=CYLINDRICAL_SURFACE('',#1460,2.5);
#27=CYLINDRICAL_SURFACE('',#1473,2.5);
#28=CYLINDRICAL_SURFACE('',#1495,1.5);
#29=CYLINDRICAL_SURFACE('',#1501,3.5);
#30=CYLINDRICAL_SURFACE('',#1502,3.5);
#31=CYLINDRICAL_SURFACE('',#1507,1.5);
#32=CYLINDRICAL_SURFACE('',#1509,2.5);
#33=CYLINDRICAL_SURFACE('',#1512,2.5);
#34=CYLINDRICAL_SURFACE('',#1525,2.5);
#35=CIRCLE('',#1436,1.5);
#36=CIRCLE('',#1440,1.5);
#37=CIRCLE('',#1444,1.5);
#38=CIRCLE('',#1446,3.5);
#39=CIRCLE('',#1452,3.5);
#40=CIRCLE('',#1454,1.5);
#41=CIRCLE('',#1458,2.5);
#42=CIRCLE('',#1459,2.5);
#43=CIRCLE('',#1461,2.5);
#44=CIRCLE('',#1462,2.5);
#45=CIRCLE('',#1469,2.5);
#46=CIRCLE('',#1471,2.5);
#47=CIRCLE('',#1488,1.5);
#48=CIRCLE('',#1493,1.5);
#49=CIRCLE('',#1496,1.5);
#50=CIRCLE('',#1498,3.5);
#51=CIRCLE('',#1504,3.5);
#52=CIRCLE('',#1506,1.5);
#53=CIRCLE('',#1510,2.5);
#54=CIRCLE('',#1511,2.5);
#55=CIRCLE('',#1513,2.5);
#56=CIRCLE('',#1514,2.5);
#57=CIRCLE('',#1521,2.5);
#58=CIRCLE('',#1523,2.5);
#59=FACE_BOUND('',#162,.T.);
#60=FACE_BOUND('',#164,.T.);
#61=FACE_BOUND('',#168,.T.);
#62=FACE_BOUND('',#173,.T.);
#63=FACE_BOUND('',#175,.T.);
#64=FACE_BOUND('',#179,.T.);
#65=FACE_BOUND('',#187,.T.);
#66=FACE_BOUND('',#191,.T.);
#67=FACE_BOUND('',#193,.T.);
#68=FACE_BOUND('',#197,.T.);
#69=FACE_BOUND('',#198,.T.);
#70=FACE_BOUND('',#210,.T.);
#71=FACE_BOUND('',#211,.T.);
#72=FACE_BOUND('',#213,.T.);
#73=FACE_BOUND('',#215,.T.);
#74=FACE_BOUND('',#220,.T.);
#75=FACE_BOUND('',#224,.T.);
#76=FACE_BOUND('',#226,.T.);
#77=FACE_BOUND('',#230,.T.);
#78=FACE_BOUND('',#238,.T.);
#79=FACE_BOUND('',#242,.T.);
#80=FACE_BOUND('',#244,.T.);
#81=FACE_BOUND('',#248,.T.);
#82=FACE_BOUND('',#249,.T.);
#83=FACE_BOUND('',#261,.T.);
#84=FACE_BOUND('',#262,.T.);
#85=FACE_OUTER_BOUND('',#161,.T.);
#86=FACE_OUTER_BOUND('',#163,.T.);
#87=FACE_OUTER_BOUND('',#165,.T.);
#88=FACE_OUTER_BOUND('',#166,.T.);
#89=FACE_OUTER_BOUND('',#167,.T.);
#90=FACE_OUTER_BOUND('',#169,.T.);
#91=FACE_OUTER_BOUND('',#170,.T.);
#92=FACE_OUTER_BOUND('',#171,.T.);
#93=FACE_OUTER_BOUND('',#172,.T.);
#94=FACE_OUTER_BOUND('',#174,.T.);
#95=FACE_OUTER_BOUND('',#176,.T.);
#96=FACE_OUTER_BOUND('',#177,.T.);
#97=FACE_OUTER_BOUND('',#178,.T.);
#98=FACE_OUTER_BOUND('',#180,.T.);
#99=FACE_OUTER_BOUND('',#181,.T.);
#100=FACE_OUTER_BOUND('',#182,.T.);
#101=FACE_OUTER_BOUND('',#183,.T.);
#102=FACE_OUTER_BOUND('',#184,.T.);
#103=FACE_OUTER_BOUND('',#185,.T.);
#104=FACE_OUTER_BOUND('',#186,.T.);
#105=FACE_OUTER_BOUND('',#188,.T.);
#106=FACE_OUTER_BOUND('',#189,.T.);
#107=FACE_OUTER_BOUND('',#190,.T.);
#108=FACE_OUTER_BOUND('',#192,.T.);
#109=FACE_OUTER_BOUND('',#194,.T.);
#110=FACE_OUTER_BOUND('',#195,.T.);
#111=FACE_OUTER_BOUND('',#196,.T.);
#112=FACE_OUTER_BOUND('',#199,.T.);
#113=FACE_OUTER_BOUND('',#200,.T.);
#114=FACE_OUTER_BOUND('',#201,.T.);
#115=FACE_OUTER_BOUND('',#202,.T.);
#116=FACE_OUTER_BOUND('',#203,.T.);
#117=FACE_OUTER_BOUND('',#204,.T.);
#118=FACE_OUTER_BOUND('',#205,.T.);
#119=FACE_OUTER_BOUND('',#206,.T.);
#120=FACE_OUTER_BOUND('',#207,.T.);
#121=FACE_OUTER_BOUND('',#208,.T.);
#122=FACE_OUTER_BOUND('',#209,.T.);
#123=FACE_OUTER_BOUND('',#212,.T.);
#124=FACE_OUTER_BOUND('',#214,.T.);
#125=FACE_OUTER_BOUND('',#216,.T.);
#126=FACE_OUTER_BOUND('',#217,.T.);
#127=FACE_OUTER_BOUND('',#218,.T.);
#128=FACE_OUTER_BOUND('',#219,.T.);
#129=FACE_OUTER_BOUND('',#221,.T.);
#130=FACE_OUTER_BOUND('',#222,.T.);
#131=FACE_OUTER_BOUND('',#223,.T.);
#132=FACE_OUTER_BOUND('',#225,.T.);
#133=FACE_OUTER_BOUND('',#227,.T.);
#134=FACE_OUTER_BOUND('',#228,.T.);
#135=FACE_OUTER_BOUND('',#229,.T.);
#136=FACE_OUTER_BOUND('',#231,.T.);
#137=FACE_OUTER_BOUND('',#232,.T.);
#138=FACE_OUTER_BOUND('',#233,.T.);
#139=FACE_OUTER_BOUND('',#234,.T.);
#140=FACE_OUTER_BOUND('',#235,.T.);
#141=FACE_OUTER_BOUND('',#236,.T.);
#142=FACE_OUTER_BOUND('',#237,.T.);
#143=FACE_OUTER_BOUND('',#239,.T.);
#144=FACE_OUTER_BOUND('',#240,.T.);
#145=FACE_OUTER_BOUND('',#241,.T.);
#146=FACE_OUTER_BOUND('',#243,.T.);
#147=FACE_OUTER_BOUND('',#245,.T.);
#148=FACE_OUTER_BOUND('',#246,.T.);
#149=FACE_OUTER_BOUND('',#247,.T.);
#150=FACE_OUTER_BOUND('',#250,.T.);
#151=FACE_OUTER_BOUND('',#251,.T.);
#152=FACE_OUTER_BOUND('',#252,.T.);
#153=FACE_OUTER_BOUND('',#253,.T.);
#154=FACE_OUTER_BOUND('',#254,.T.);
#155=FACE_OUTER_BOUND('',#255,.T.);
#156=FACE_OUTER_BOUND('',#256,.T.);
#157=FACE_OUTER_BOUND('',#257,.T.);
#158=FACE_OUTER_BOUND('',#258,.T.);
#159=FACE_OUTER_BOUND('',#259,.T.);
#160=FACE_OUTER_BOUND('',#260,.T.);
#161=EDGE_LOOP('',(#901,#902,#903,#904));
#162=EDGE_LOOP('',(#905,#906,#907,#908));
#163=EDGE_LOOP('',(#909,#910,#911,#912));
#164=EDGE_LOOP('',(#913));
#165=EDGE_LOOP('',(#914,#915,#916,#917));
#166=EDGE_LOOP('',(#918,#919,#920,#921));
#167=EDGE_LOOP('',(#922,#923,#924,#925));
#168=EDGE_LOOP('',(#926));
#169=EDGE_LOOP('',(#927,#928,#929,#930));
#170=EDGE_LOOP('',(#931,#932,#933,#934));
#171=EDGE_LOOP('',(#935,#936,#937,#938));
#172=EDGE_LOOP('',(#939));
#173=EDGE_LOOP('',(#940));
#174=EDGE_LOOP('',(#941,#942,#943,#944));
#175=EDGE_LOOP('',(#945));
#176=EDGE_LOOP('',(#946,#947,#948,#949));
#177=EDGE_LOOP('',(#950,#951,#952,#953));
#178=EDGE_LOOP('',(#954));
#179=EDGE_LOOP('',(#955));
#180=EDGE_LOOP('',(#956,#957,#958,#959));
#181=EDGE_LOOP('',(#960,#961,#962,#963));
#182=EDGE_LOOP('',(#964,#965,#966,#967));
#183=EDGE_LOOP('',(#968,#969,#970,#971));
#184=EDGE_LOOP('',(#972,#973,#974,#975,#976,#977,#978,#979));
#185=EDGE_LOOP('',(#980,#981,#982,#983));
#186=EDGE_LOOP('',(#984,#985,#986,#987));
#187=EDGE_LOOP('',(#988));
#188=EDGE_LOOP('',(#989,#990,#991,#992));
#189=EDGE_LOOP('',(#993,#994,#995,#996));
#190=EDGE_LOOP('',(#997,#998,#999,#1000,#1001,#1002));
#191=EDGE_LOOP('',(#1003));
#192=EDGE_LOOP('',(#1004,#1005,#1006,#1007,#1008,#1009,#1010,#1011));
#193=EDGE_LOOP('',(#1012));
#194=EDGE_LOOP('',(#1013,#1014,#1015,#1016));
#195=EDGE_LOOP('',(#1017,#1018,#1019,#1020));
#196=EDGE_LOOP('',(#1021,#1022,#1023,#1024,#1025,#1026));
#197=EDGE_LOOP('',(#1027));
#198=EDGE_LOOP('',(#1028));
#199=EDGE_LOOP('',(#1029,#1030,#1031,#1032));
#200=EDGE_LOOP('',(#1033,#1034,#1035,#1036));
#201=EDGE_LOOP('',(#1037,#1038,#1039,#1040));
#202=EDGE_LOOP('',(#1041,#1042,#1043,#1044));
#203=EDGE_LOOP('',(#1045,#1046,#1047,#1048));
#204=EDGE_LOOP('',(#1049,#1050,#1051,#1052));
#205=EDGE_LOOP('',(#1053,#1054,#1055,#1056,#1057,#1058,#1059,#1060));
#206=EDGE_LOOP('',(#1061,#1062,#1063,#1064,#1065,#1066,#1067,#1068));
#207=EDGE_LOOP('',(#1069,#1070,#1071,#1072,#1073,#1074,#1075,#1076));
#208=EDGE_LOOP('',(#1077,#1078,#1079,#1080));
#209=EDGE_LOOP('',(#1081,#1082,#1083,#1084,#1085,#1086,#1087,#1088));
#210=EDGE_LOOP('',(#1089));
#211=EDGE_LOOP('',(#1090));
#212=EDGE_LOOP('',(#1091,#1092,#1093,#1094));
#213=EDGE_LOOP('',(#1095,#1096,#1097,#1098));
#214=EDGE_LOOP('',(#1099,#1100,#1101,#1102));
#215=EDGE_LOOP('',(#1103));
#216=EDGE_LOOP('',(#1104,#1105,#1106,#1107));
#217=EDGE_LOOP('',(#1108,#1109,#1110,#1111));
#218=EDGE_LOOP('',(#1112,#1113,#1114,#1115));
#219=EDGE_LOOP('',(#1116,#1117,#1118,#1119));
#220=EDGE_LOOP('',(#1120));
#221=EDGE_LOOP('',(#1121,#1122,#1123,#1124));
#222=EDGE_LOOP('',(#1125,#1126,#1127,#1128));
#223=EDGE_LOOP('',(#1129));
#224=EDGE_LOOP('',(#1130));
#225=EDGE_LOOP('',(#1131,#1132,#1133,#1134));
#226=EDGE_LOOP('',(#1135));
#227=EDGE_LOOP('',(#1136,#1137,#1138,#1139));
#228=EDGE_LOOP('',(#1140,#1141,#1142,#1143));
#229=EDGE_LOOP('',(#1144));
#230=EDGE_LOOP('',(#1145));
#231=EDGE_LOOP('',(#1146,#1147,#1148,#1149));
#232=EDGE_LOOP('',(#1150,#1151,#1152,#1153));
#233=EDGE_LOOP('',(#1154,#1155,#1156,#1157));
#234=EDGE_LOOP('',(#1158,#1159,#1160,#1161));
#235=EDGE_LOOP('',(#1162,#1163,#1164,#1165,#1166,#1167,#1168,#1169));
#236=EDGE_LOOP('',(#1170,#1171,#1172,#1173));
#237=EDGE_LOOP('',(#1174,#1175,#1176,#1177));
#238=EDGE_LOOP('',(#1178));
#239=EDGE_LOOP('',(#1179,#1180,#1181,#1182));
#240=EDGE_LOOP('',(#1183,#1184,#1185,#1186));
#241=EDGE_LOOP('',(#1187,#1188,#1189,#1190,#1191,#1192));
#242=EDGE_LOOP('',(#1193));
#243=EDGE_LOOP('',(#1194,#1195,#1196,#1197,#1198,#1199,#1200,#1201));
#244=EDGE_LOOP('',(#1202));
#245=EDGE_LOOP('',(#1203,#1204,#1205,#1206));
#246=EDGE_LOOP('',(#1207,#1208,#1209,#1210));
#247=EDGE_LOOP('',(#1211,#1212,#1213,#1214,#1215,#1216));
#248=EDGE_LOOP('',(#1217));
#249=EDGE_LOOP('',(#1218));
#250=EDGE_LOOP('',(#1219,#1220,#1221,#1222));
#251=EDGE_LOOP('',(#1223,#1224,#1225,#1226));
#252=EDGE_LOOP('',(#1227,#1228,#1229,#1230));
#253=EDGE_LOOP('',(#1231,#1232,#1233,#1234));
#254=EDGE_LOOP('',(#1235,#1236,#1237,#1238));
#255=EDGE_LOOP('',(#1239,#1240,#1241,#1242));
#256=EDGE_LOOP('',(#1243,#1244,#1245,#1246,#1247,#1248,#1249,#1250));
#257=EDGE_LOOP('',(#1251,#1252,#1253,#1254,#1255,#1256,#1257,#1258));
#258=EDGE_LOOP('',(#1259,#1260,#1261,#1262,#1263,#1264,#1265,#1266));
#259=EDGE_LOOP('',(#1267,#1268,#1269,#1270));
#260=EDGE_LOOP('',(#1271,#1272,#1273,#1274,#1275,#1276,#1277,#1278));
#261=EDGE_LOOP('',(#1279));
#262=EDGE_LOOP('',(#1280));
#263=LINE('',#1914,#425);
#264=LINE('',#1916,#426);
#265=LINE('',#1918,#427);
#266=LINE('',#1919,#428);
#267=LINE('',#1922,#429);
#268=LINE('',#1924,#430);
#269=LINE('',#1926,#431);
#270=LINE('',#1927,#432);
#271=LINE('',#1930,#433);
#272=LINE('',#1932,#434);
#273=LINE('',#1933,#435);
#274=LINE('',#1938,#436);
#275=LINE('',#1939,#437);
#276=LINE('',#1943,#438);
#277=LINE('',#1945,#439);
#278=LINE('',#1947,#440);
#279=LINE('',#1948,#441);
#280=LINE('',#1951,#442);
#281=LINE('',#1952,#443);
#282=LINE('',#1956,#444);
#283=LINE('',#1960,#445);
#284=LINE('',#1968,#446);
#285=LINE('',#1969,#447);
#286=LINE('',#1970,#448);
#287=LINE('',#1974,#449);
#288=LINE('',#1979,#450);
#289=LINE('',#1985,#451);
#290=LINE('',#1989,#452);
#291=LINE('',#1991,#453);
#292=LINE('',#1993,#454);
#293=LINE('',#1994,#455);
#294=LINE('',#1999,#456);
#295=LINE('',#2005,#457);
#296=LINE('',#2010,#458);
#297=LINE('',#2012,#459);
#298=LINE('',#2013,#460);
#299=LINE('',#2015,#461);
#300=LINE('',#2017,#462);
#301=LINE('',#2019,#463);
#302=LINE('',#2020,#464);
#303=LINE('',#2023,#465);
#304=LINE('',#2024,#466);
#305=LINE('',#2027,#467);
#306=LINE('',#2028,#468);
#307=LINE('',#2030,#469);
#308=LINE('',#2032,#470);
#309=LINE('',#2033,#471);
#310=LINE('',#2036,#472);
#311=LINE('',#2037,#473);
#312=LINE('',#2038,#474);
#313=LINE('',#2043,#475);
#314=LINE('',#2045,#476);
#315=LINE('',#2047,#477);
#316=LINE('',#2049,#478);
#317=LINE('',#2051,#479);
#318=LINE('',#2052,#480);
#319=LINE('',#2056,#481);
#320=LINE('',#2058,#482);
#321=LINE('',#2060,#483);
#322=LINE('',#2061,#484);
#323=LINE('',#2064,#485);
#324=LINE('',#2065,#486);
#325=LINE('',#2069,#487);
#326=LINE('',#2070,#488);
#327=LINE('',#2071,#489);
#328=LINE('',#2075,#490);
#329=LINE('',#2077,#491);
#330=LINE('',#2079,#492);
#331=LINE('',#2080,#493);
#332=LINE('',#2083,#494);
#333=LINE('',#2085,#495);
#334=LINE('',#2086,#496);
#335=LINE('',#2089,#497);
#336=LINE('',#2091,#498);
#337=LINE('',#2092,#499);
#338=LINE('',#2094,#500);
#339=LINE('',#2095,#501);
#340=LINE('',#2098,#502);
#341=LINE('',#2099,#503);
#342=LINE('',#2101,#504);
#343=LINE('',#2103,#505);
#344=LINE('',#2109,#506);
#345=LINE('',#2111,#507);
#346=LINE('',#2113,#508);
#347=LINE('',#2114,#509);
#348=LINE('',#2117,#510);
#349=LINE('',#2119,#511);
#350=LINE('',#2121,#512);
#351=LINE('',#2122,#513);
#352=LINE('',#2125,#514);
#353=LINE('',#2127,#515);
#354=LINE('',#2128,#516);
#355=LINE('',#2133,#517);
#356=LINE('',#2134,#518);
#357=LINE('',#2138,#519);
#358=LINE('',#2140,#520);
#359=LINE('',#2142,#521);
#360=LINE('',#2143,#522);
#361=LINE('',#2146,#523);
#362=LINE('',#2147,#524);
#363=LINE('',#2149,#525);
#364=LINE('',#2155,#526);
#365=LINE('',#2163,#527);
#366=LINE('',#2164,#528);
#367=LINE('',#2165,#529);
#368=LINE('',#2169,#530);
#369=LINE('',#2174,#531);
#370=LINE('',#2180,#532);
#371=LINE('',#2184,#533);
#372=LINE('',#2186,#534);
#373=LINE('',#2188,#535);
#374=LINE('',#2189,#536);
#375=LINE('',#2194,#537);
#376=LINE('',#2200,#538);
#377=LINE('',#2205,#539);
#378=LINE('',#2207,#540);
#379=LINE('',#2209,#541);
#380=LINE('',#2211,#542);
#381=LINE('',#2212,#543);
#382=LINE('',#2214,#544);
#383=LINE('',#2215,#545);
#384=LINE('',#2218,#546);
#385=LINE('',#2219,#547);
#386=LINE('',#2222,#548);
#387=LINE('',#2223,#549);
#388=LINE('',#2225,#550);
#389=LINE('',#2227,#551);
#390=LINE('',#2228,#552);
#391=LINE('',#2230,#553);
#392=LINE('',#2232,#554);
#393=LINE('',#2233,#555);
#394=LINE('',#2238,#556);
#395=LINE('',#2240,#557);
#396=LINE('',#2242,#558);
#397=LINE('',#2244,#559);
#398=LINE('',#2246,#560);
#399=LINE('',#2247,#561);
#400=LINE('',#2251,#562);
#401=LINE('',#2253,#563);
#402=LINE('',#2255,#564);
#403=LINE('',#2256,#565);
#404=LINE('',#2259,#566);
#405=LINE('',#2260,#567);
#406=LINE('',#2264,#568);
#407=LINE('',#2265,#569);
#408=LINE('',#2266,#570);
#409=LINE('',#2270,#571);
#410=LINE('',#2272,#572);
#411=LINE('',#2274,#573);
#412=LINE('',#2275,#574);
#413=LINE('',#2278,#575);
#414=LINE('',#2280,#576);
#415=LINE('',#2281,#577);
#416=LINE('',#2284,#578);
#417=LINE('',#2286,#579);
#418=LINE('',#2287,#580);
#419=LINE('',#2289,#581);
#420=LINE('',#2290,#582);
#421=LINE('',#2293,#583);
#422=LINE('',#2294,#584);
#423=LINE('',#2296,#585);
#424=LINE('',#2298,#586);
#425=VECTOR('',#1542,10.);
#426=VECTOR('',#1543,10.);
#427=VECTOR('',#1544,10.);
#428=VECTOR('',#1545,10.);
#429=VECTOR('',#1546,10.);
#430=VECTOR('',#1547,10.);
#431=VECTOR('',#1548,10.);
#432=VECTOR('',#1549,10.);
#433=VECTOR('',#1552,10.);
#434=VECTOR('',#1553,10.);
#435=VECTOR('',#1554,10.);
#436=VECTOR('',#1559,10.);
#437=VECTOR('',#1560,10.);
#438=VECTOR('',#1563,10.);
#439=VECTOR('',#1564,10.);
#440=VECTOR('',#1565,10.);
#441=VECTOR('',#1566,10.);
#442=VECTOR('',#1569,10.);
#443=VECTOR('',#1570,10.);
#444=VECTOR('',#1575,10.);
#445=VECTOR('',#1580,1.5);
#446=VECTOR('',#1589,10.);
#447=VECTOR('',#1590,10.);
#448=VECTOR('',#1591,10.);
#449=VECTOR('',#1596,3.5);
#450=VECTOR('',#1601,3.5);
#451=VECTOR('',#1610,1.5);
#452=VECTOR('',#1613,10.);
#453=VECTOR('',#1614,10.);
#454=VECTOR('',#1615,10.);
#455=VECTOR('',#1616,10.);
#456=VECTOR('',#1621,2.5);
#457=VECTOR('',#1628,2.5);
#458=VECTOR('',#1633,10.);
#459=VECTOR('',#1634,10.);
#460=VECTOR('',#1635,10.);
#461=VECTOR('',#1636,10.);
#462=VECTOR('',#1637,10.);
#463=VECTOR('',#1638,10.);
#464=VECTOR('',#1639,10.);
#465=VECTOR('',#1642,10.);
#466=VECTOR('',#1643,10.);
#467=VECTOR('',#1646,10.);
#468=VECTOR('',#1647,10.);
#469=VECTOR('',#1650,10.);
#470=VECTOR('',#1653,10.);
#471=VECTOR('',#1654,10.);
#472=VECTOR('',#1657,10.);
#473=VECTOR('',#1658,10.);
#474=VECTOR('',#1659,10.);
#475=VECTOR('',#1664,10.);
#476=VECTOR('',#1665,10.);
#477=VECTOR('',#1666,10.);
#478=VECTOR('',#1667,10.);
#479=VECTOR('',#1668,10.);
#480=VECTOR('',#1669,10.);
#481=VECTOR('',#1674,10.);
#482=VECTOR('',#1677,2.5);
#483=VECTOR('',#1680,10.);
#484=VECTOR('',#1681,10.);
#485=VECTOR('',#1684,10.);
#486=VECTOR('',#1685,10.);
#487=VECTOR('',#1688,10.);
#488=VECTOR('',#1689,10.);
#489=VECTOR('',#1690,10.);
#490=VECTOR('',#1693,10.);
#491=VECTOR('',#1694,10.);
#492=VECTOR('',#1695,10.);
#493=VECTOR('',#1696,10.);
#494=VECTOR('',#1699,10.);
#495=VECTOR('',#1700,10.);
#496=VECTOR('',#1701,10.);
#497=VECTOR('',#1704,10.);
#498=VECTOR('',#1705,10.);
#499=VECTOR('',#1706,10.);
#500=VECTOR('',#1709,10.);
#501=VECTOR('',#1710,10.);
#502=VECTOR('',#1713,10.);
#503=VECTOR('',#1714,10.);
#504=VECTOR('',#1717,10.);
#505=VECTOR('',#1720,10.);
#506=VECTOR('',#1727,10.);
#507=VECTOR('',#1728,10.);
#508=VECTOR('',#1729,10.);
#509=VECTOR('',#1730,10.);
#510=VECTOR('',#1731,10.);
#511=VECTOR('',#1732,10.);
#512=VECTOR('',#1733,10.);
#513=VECTOR('',#1734,10.);
#514=VECTOR('',#1737,10.);
#515=VECTOR('',#1738,10.);
#516=VECTOR('',#1739,10.);
#517=VECTOR('',#1744,10.);
#518=VECTOR('',#1745,10.);
#519=VECTOR('',#1748,10.);
#520=VECTOR('',#1749,10.);
#521=VECTOR('',#1750,10.);
#522=VECTOR('',#1751,10.);
#523=VECTOR('',#1754,10.);
#524=VECTOR('',#1755,10.);
#525=VECTOR('',#1758,10.);
#526=VECTOR('',#1765,1.5);
#527=VECTOR('',#1774,10.);
#528=VECTOR('',#1775,10.);
#529=VECTOR('',#1776,10.);
#530=VECTOR('',#1781,3.5);
#531=VECTOR('',#1786,3.5);
#532=VECTOR('',#1795,1.5);
#533=VECTOR('',#1798,10.);
#534=VECTOR('',#1799,10.);
#535=VECTOR('',#1800,10.);
#536=VECTOR('',#1801,10.);
#537=VECTOR('',#1806,2.5);
#538=VECTOR('',#1813,2.5);
#539=VECTOR('',#1818,10.);
#540=VECTOR('',#1819,10.);
#541=VECTOR('',#1820,10.);
#542=VECTOR('',#1821,10.);
#543=VECTOR('',#1822,10.);
#544=VECTOR('',#1823,10.);
#545=VECTOR('',#1824,10.);
#546=VECTOR('',#1827,10.);
#547=VECTOR('',#1828,10.);
#548=VECTOR('',#1831,10.);
#549=VECTOR('',#1832,10.);
#550=VECTOR('',#1835,10.);
#551=VECTOR('',#1838,10.);
#552=VECTOR('',#1839,10.);
#553=VECTOR('',#1842,10.);
#554=VECTOR('',#1843,10.);
#555=VECTOR('',#1844,10.);
#556=VECTOR('',#1849,10.);
#557=VECTOR('',#1850,10.);
#558=VECTOR('',#1851,10.);
#559=VECTOR('',#1852,10.);
#560=VECTOR('',#1853,10.);
#561=VECTOR('',#1854,10.);
#562=VECTOR('',#1859,10.);
#563=VECTOR('',#1862,2.5);
#564=VECTOR('',#1865,10.);
#565=VECTOR('',#1866,10.);
#566=VECTOR('',#1869,10.);
#567=VECTOR('',#1870,10.);
#568=VECTOR('',#1873,10.);
#569=VECTOR('',#1874,10.);
#570=VECTOR('',#1875,10.);
#571=VECTOR('',#1878,10.);
#572=VECTOR('',#1879,10.);
#573=VECTOR('',#1880,10.);
#574=VECTOR('',#1881,10.);
#575=VECTOR('',#1884,10.);
#576=VECTOR('',#1885,10.);
#577=VECTOR('',#1886,10.);
#578=VECTOR('',#1889,10.);
#579=VECTOR('',#1890,10.);
#580=VECTOR('',#1891,10.);
#581=VECTOR('',#1894,10.);
#582=VECTOR('',#1895,10.);
#583=VECTOR('',#1898,10.);
#584=VECTOR('',#1899,10.);
#585=VECTOR('',#1902,10.);
#586=VECTOR('',#1905,10.);
#587=VERTEX_POINT('',#1912);
#588=VERTEX_POINT('',#1913);
#589=VERTEX_POINT('',#1915);
#590=VERTEX_POINT('',#1917);
#591=VERTEX_POINT('',#1920);
#592=VERTEX_POINT('',#1921);
#593=VERTEX_POINT('',#1923);
#594=VERTEX_POINT('',#1925);
#595=VERTEX_POINT('',#1929);
#596=VERTEX_POINT('',#1931);
#597=VERTEX_POINT('',#1934);
#598=VERTEX_POINT('',#1937);
#599=VERTEX_POINT('',#1941);
#600=VERTEX_POINT('',#1942);
#601=VERTEX_POINT('',#1944);
#602=VERTEX_POINT('',#1946);
#603=VERTEX_POINT('',#1950);
#604=VERTEX_POINT('',#1953);
#605=VERTEX_POINT('',#1959);
#606=VERTEX_POINT('',#1963);
#607=VERTEX_POINT('',#1966);
#608=VERTEX_POINT('',#1967);
#609=VERTEX_POINT('',#1971);
#610=VERTEX_POINT('',#1976);
#611=VERTEX_POINT('',#1978);
#612=VERTEX_POINT('',#1982);
#613=VERTEX_POINT('',#1987);
#614=VERTEX_POINT('',#1988);
#615=VERTEX_POINT('',#1990);
#616=VERTEX_POINT('',#1992);
#617=VERTEX_POINT('',#1996);
#618=VERTEX_POINT('',#1998);
#619=VERTEX_POINT('',#2002);
#620=VERTEX_POINT('',#2004);
#621=VERTEX_POINT('',#2008);
#622=VERTEX_POINT('',#2009);
#623=VERTEX_POINT('',#2011);
#624=VERTEX_POINT('',#2014);
#625=VERTEX_POINT('',#2016);
#626=VERTEX_POINT('',#2018);
#627=VERTEX_POINT('',#2022);
#628=VERTEX_POINT('',#2026);
#629=VERTEX_POINT('',#2035);
#630=VERTEX_POINT('',#2039);
#631=VERTEX_POINT('',#2042);
#632=VERTEX_POINT('',#2044);
#633=VERTEX_POINT('',#2046);
#634=VERTEX_POINT('',#2048);
#635=VERTEX_POINT('',#2050);
#636=VERTEX_POINT('',#2053);
#637=VERTEX_POINT('',#2063);
#638=VERTEX_POINT('',#2067);
#639=VERTEX_POINT('',#2068);
#640=VERTEX_POINT('',#2073);
#641=VERTEX_POINT('',#2074);
#642=VERTEX_POINT('',#2076);
#643=VERTEX_POINT('',#2078);
#644=VERTEX_POINT('',#2082);
#645=VERTEX_POINT('',#2084);
#646=VERTEX_POINT('',#2088);
#647=VERTEX_POINT('',#2090);
#648=VERTEX_POINT('',#2097);
#649=VERTEX_POINT('',#2107);
#650=VERTEX_POINT('',#2108);
#651=VERTEX_POINT('',#2110);
#652=VERTEX_POINT('',#2112);
#653=VERTEX_POINT('',#2115);
#654=VERTEX_POINT('',#2116);
#655=VERTEX_POINT('',#2118);
#656=VERTEX_POINT('',#2120);
#657=VERTEX_POINT('',#2124);
#658=VERTEX_POINT('',#2126);
#659=VERTEX_POINT('',#2129);
#660=VERTEX_POINT('',#2132);
#661=VERTEX_POINT('',#2136);
#662=VERTEX_POINT('',#2137);
#663=VERTEX_POINT('',#2139);
#664=VERTEX_POINT('',#2141);
#665=VERTEX_POINT('',#2145);
#666=VERTEX_POINT('',#2150);
#667=VERTEX_POINT('',#2154);
#668=VERTEX_POINT('',#2158);
#669=VERTEX_POINT('',#2161);
#670=VERTEX_POINT('',#2162);
#671=VERTEX_POINT('',#2166);
#672=VERTEX_POINT('',#2171);
#673=VERTEX_POINT('',#2173);
#674=VERTEX_POINT('',#2177);
#675=VERTEX_POINT('',#2182);
#676=VERTEX_POINT('',#2183);
#677=VERTEX_POINT('',#2185);
#678=VERTEX_POINT('',#2187);
#679=VERTEX_POINT('',#2191);
#680=VERTEX_POINT('',#2193);
#681=VERTEX_POINT('',#2197);
#682=VERTEX_POINT('',#2199);
#683=VERTEX_POINT('',#2203);
#684=VERTEX_POINT('',#2204);
#685=VERTEX_POINT('',#2206);
#686=VERTEX_POINT('',#2208);
#687=VERTEX_POINT('',#2210);
#688=VERTEX_POINT('',#2213);
#689=VERTEX_POINT('',#2217);
#690=VERTEX_POINT('',#2221);
#691=VERTEX_POINT('',#2231);
#692=VERTEX_POINT('',#2234);
#693=VERTEX_POINT('',#2237);
#694=VERTEX_POINT('',#2239);
#695=VERTEX_POINT('',#2241);
#696=VERTEX_POINT('',#2243);
#697=VERTEX_POINT('',#2245);
#698=VERTEX_POINT('',#2248);
#699=VERTEX_POINT('',#2258);
#700=VERTEX_POINT('',#2262);
#701=VERTEX_POINT('',#2263);
#702=VERTEX_POINT('',#2268);
#703=VERTEX_POINT('',#2269);
#704=VERTEX_POINT('',#2271);
#705=VERTEX_POINT('',#2273);
#706=VERTEX_POINT('',#2277);
#707=VERTEX_POINT('',#2279);
#708=VERTEX_POINT('',#2283);
#709=VERTEX_POINT('',#2285);
#710=VERTEX_POINT('',#2292);
#711=EDGE_CURVE('',#587,#588,#263,.T.);
#712=EDGE_CURVE('',#589,#587,#264,.T.);
#713=EDGE_CURVE('',#590,#589,#265,.T.);
#714=EDGE_CURVE('',#588,#590,#266,.T.);
#715=EDGE_CURVE('',#591,#592,#267,.T.);
#716=EDGE_CURVE('',#593,#591,#268,.T.);
#717=EDGE_CURVE('',#594,#593,#269,.T.);
#718=EDGE_CURVE('',#592,#594,#270,.T.);
#719=EDGE_CURVE('',#591,#595,#271,.T.);
#720=EDGE_CURVE('',#595,#596,#272,.T.);
#721=EDGE_CURVE('',#593,#596,#273,.T.);
#722=EDGE_CURVE('',#597,#597,#35,.T.);
#723=EDGE_CURVE('',#592,#598,#274,.T.);
#724=EDGE_CURVE('',#598,#595,#275,.T.);
#725=EDGE_CURVE('',#599,#600,#276,.T.);
#726=EDGE_CURVE('',#601,#600,#277,.T.);
#727=EDGE_CURVE('',#602,#601,#278,.T.);
#728=EDGE_CURVE('',#599,#602,#279,.T.);
#729=EDGE_CURVE('',#594,#603,#280,.T.);
#730=EDGE_CURVE('',#603,#598,#281,.T.);
#731=EDGE_CURVE('',#604,#604,#36,.T.);
#732=EDGE_CURVE('',#596,#603,#282,.T.);
#733=EDGE_CURVE('',#597,#605,#283,.T.);
#734=EDGE_CURVE('',#605,#605,#37,.T.);
#735=EDGE_CURVE('',#606,#606,#38,.T.);
#736=EDGE_CURVE('',#607,#608,#284,.T.);
#737=EDGE_CURVE('',#607,#589,#285,.T.);
#738=EDGE_CURVE('',#608,#587,#286,.T.);
#739=EDGE_CURVE('',#609,#609,#17,.T.);
#740=EDGE_CURVE('',#609,#606,#287,.T.);
#741=EDGE_CURVE('',#610,#610,#18,.T.);
#742=EDGE_CURVE('',#610,#611,#288,.T.);
#743=EDGE_CURVE('',#611,#611,#39,.T.);
#744=EDGE_CURVE('',#612,#612,#40,.T.);
#745=EDGE_CURVE('',#612,#604,#289,.T.);
#746=EDGE_CURVE('',#613,#614,#290,.T.);
#747=EDGE_CURVE('',#614,#615,#291,.T.);
#748=EDGE_CURVE('',#615,#616,#292,.T.);
#749=EDGE_CURVE('',#613,#616,#293,.T.);
#750=EDGE_CURVE('',#617,#617,#41,.T.);
#751=EDGE_CURVE('',#617,#618,#294,.T.);
#752=EDGE_CURVE('',#618,#618,#42,.T.);
#753=EDGE_CURVE('',#619,#619,#43,.T.);
#754=EDGE_CURVE('',#619,#620,#295,.T.);
#755=EDGE_CURVE('',#620,#620,#44,.T.);
#756=EDGE_CURVE('',#621,#622,#296,.T.);
#757=EDGE_CURVE('',#622,#623,#297,.T.);
#758=EDGE_CURVE('',#623,#600,#298,.T.);
#759=EDGE_CURVE('',#599,#624,#299,.T.);
#760=EDGE_CURVE('',#624,#625,#300,.T.);
#761=EDGE_CURVE('',#625,#626,#301,.T.);
#762=EDGE_CURVE('',#621,#626,#302,.T.);
#763=EDGE_CURVE('',#608,#627,#303,.T.);
#764=EDGE_CURVE('',#627,#588,#304,.T.);
#765=EDGE_CURVE('',#627,#628,#305,.T.);
#766=EDGE_CURVE('',#628,#590,#306,.T.);
#767=EDGE_CURVE('',#628,#607,#307,.T.);
#768=EDGE_CURVE('',#616,#626,#308,.T.);
#769=EDGE_CURVE('',#621,#615,#309,.T.);
#770=EDGE_CURVE('',#629,#602,#310,.T.);
#771=EDGE_CURVE('',#629,#607,#311,.T.);
#772=EDGE_CURVE('',#608,#624,#312,.T.);
#773=EDGE_CURVE('',#630,#630,#45,.T.);
#774=EDGE_CURVE('',#623,#631,#313,.T.);
#775=EDGE_CURVE('',#631,#632,#314,.T.);
#776=EDGE_CURVE('',#632,#633,#315,.T.);
#777=EDGE_CURVE('',#633,#634,#316,.T.);
#778=EDGE_CURVE('',#635,#634,#317,.T.);
#779=EDGE_CURVE('',#635,#601,#318,.T.);
#780=EDGE_CURVE('',#636,#636,#46,.T.);
#781=EDGE_CURVE('',#635,#629,#319,.T.);
#782=EDGE_CURVE('',#636,#630,#320,.T.);
#783=EDGE_CURVE('',#625,#627,#321,.T.);
#784=EDGE_CURVE('',#613,#628,#322,.T.);
#785=EDGE_CURVE('',#637,#631,#323,.T.);
#786=EDGE_CURVE('',#622,#637,#324,.T.);
#787=EDGE_CURVE('',#638,#639,#325,.T.);
#788=EDGE_CURVE('',#633,#639,#326,.T.);
#789=EDGE_CURVE('',#632,#638,#327,.T.);
#790=EDGE_CURVE('',#640,#641,#328,.T.);
#791=EDGE_CURVE('',#641,#642,#329,.T.);
#792=EDGE_CURVE('',#642,#643,#330,.T.);
#793=EDGE_CURVE('',#640,#643,#331,.T.);
#794=EDGE_CURVE('',#644,#641,#332,.T.);
#795=EDGE_CURVE('',#645,#640,#333,.T.);
#796=EDGE_CURVE('',#645,#644,#334,.T.);
#797=EDGE_CURVE('',#646,#644,#335,.T.);
#798=EDGE_CURVE('',#647,#645,#336,.T.);
#799=EDGE_CURVE('',#647,#646,#337,.T.);
#800=EDGE_CURVE('',#638,#646,#338,.T.);
#801=EDGE_CURVE('',#639,#647,#339,.T.);
#802=EDGE_CURVE('',#643,#648,#340,.T.);
#803=EDGE_CURVE('',#648,#634,#341,.T.);
#804=EDGE_CURVE('',#614,#648,#342,.T.);
#805=EDGE_CURVE('',#637,#642,#343,.T.);
#806=EDGE_CURVE('',#649,#650,#344,.T.);
#807=EDGE_CURVE('',#650,#651,#345,.T.);
#808=EDGE_CURVE('',#651,#652,#346,.T.);
#809=EDGE_CURVE('',#652,#649,#347,.T.);
#810=EDGE_CURVE('',#653,#654,#348,.T.);
#811=EDGE_CURVE('',#655,#653,#349,.T.);
#812=EDGE_CURVE('',#656,#655,#350,.T.);
#813=EDGE_CURVE('',#654,#656,#351,.T.);
#814=EDGE_CURVE('',#653,#657,#352,.T.);
#815=EDGE_CURVE('',#658,#657,#353,.T.);
#816=EDGE_CURVE('',#655,#658,#354,.T.);
#817=EDGE_CURVE('',#659,#659,#47,.T.);
#818=EDGE_CURVE('',#654,#660,#355,.T.);
#819=EDGE_CURVE('',#657,#660,#356,.T.);
#820=EDGE_CURVE('',#661,#662,#357,.T.);
#821=EDGE_CURVE('',#661,#663,#358,.T.);
#822=EDGE_CURVE('',#663,#664,#359,.T.);
#823=EDGE_CURVE('',#664,#662,#360,.T.);
#824=EDGE_CURVE('',#665,#658,#361,.T.);
#825=EDGE_CURVE('',#656,#665,#362,.T.);
#826=EDGE_CURVE('',#660,#665,#363,.T.);
#827=EDGE_CURVE('',#666,#666,#48,.T.);
#828=EDGE_CURVE('',#666,#667,#364,.T.);
#829=EDGE_CURVE('',#667,#667,#49,.T.);
#830=EDGE_CURVE('',#668,#668,#50,.T.);
#831=EDGE_CURVE('',#669,#670,#365,.T.);
#832=EDGE_CURVE('',#670,#649,#366,.T.);
#833=EDGE_CURVE('',#669,#652,#367,.T.);
#834=EDGE_CURVE('',#671,#671,#19,.T.);
#835=EDGE_CURVE('',#671,#668,#368,.T.);
#836=EDGE_CURVE('',#672,#672,#20,.T.);
#837=EDGE_CURVE('',#672,#673,#369,.T.);
#838=EDGE_CURVE('',#673,#673,#51,.T.);
#839=EDGE_CURVE('',#674,#674,#52,.T.);
#840=EDGE_CURVE('',#674,#659,#370,.T.);
#841=EDGE_CURVE('',#675,#676,#371,.T.);
#842=EDGE_CURVE('',#675,#677,#372,.T.);
#843=EDGE_CURVE('',#678,#677,#373,.T.);
#844=EDGE_CURVE('',#676,#678,#374,.T.);
#845=EDGE_CURVE('',#679,#679,#53,.T.);
#846=EDGE_CURVE('',#679,#680,#375,.T.);
#847=EDGE_CURVE('',#680,#680,#54,.T.);
#848=EDGE_CURVE('',#681,#681,#55,.T.);
#849=EDGE_CURVE('',#681,#682,#376,.T.);
#850=EDGE_CURVE('',#682,#682,#56,.T.);
#851=EDGE_CURVE('',#683,#684,#377,.T.);
#852=EDGE_CURVE('',#683,#685,#378,.T.);
#853=EDGE_CURVE('',#686,#685,#379,.T.);
#854=EDGE_CURVE('',#687,#686,#380,.T.);
#855=EDGE_CURVE('',#661,#687,#381,.T.);
#856=EDGE_CURVE('',#688,#662,#382,.T.);
#857=EDGE_CURVE('',#684,#688,#383,.T.);
#858=EDGE_CURVE('',#670,#689,#384,.T.);
#859=EDGE_CURVE('',#689,#650,#385,.T.);
#860=EDGE_CURVE('',#689,#690,#386,.T.);
#861=EDGE_CURVE('',#690,#651,#387,.T.);
#862=EDGE_CURVE('',#690,#669,#388,.T.);
#863=EDGE_CURVE('',#683,#678,#389,.T.);
#864=EDGE_CURVE('',#677,#685,#390,.T.);
#865=EDGE_CURVE('',#670,#687,#391,.T.);
#866=EDGE_CURVE('',#691,#669,#392,.T.);
#867=EDGE_CURVE('',#691,#663,#393,.T.);
#868=EDGE_CURVE('',#692,#692,#57,.T.);
#869=EDGE_CURVE('',#688,#693,#394,.T.);
#870=EDGE_CURVE('',#694,#664,#395,.T.);
#871=EDGE_CURVE('',#694,#695,#396,.T.);
#872=EDGE_CURVE('',#696,#695,#397,.T.);
#873=EDGE_CURVE('',#697,#696,#398,.T.);
#874=EDGE_CURVE('',#693,#697,#399,.T.);
#875=EDGE_CURVE('',#698,#698,#58,.T.);
#876=EDGE_CURVE('',#694,#691,#400,.T.);
#877=EDGE_CURVE('',#698,#692,#401,.T.);
#878=EDGE_CURVE('',#675,#690,#402,.T.);
#879=EDGE_CURVE('',#686,#689,#403,.T.);
#880=EDGE_CURVE('',#699,#693,#404,.T.);
#881=EDGE_CURVE('',#684,#699,#405,.T.);
#882=EDGE_CURVE('',#700,#701,#406,.T.);
#883=EDGE_CURVE('',#697,#700,#407,.T.);
#884=EDGE_CURVE('',#696,#701,#408,.T.);
#885=EDGE_CURVE('',#702,#703,#409,.T.);
#886=EDGE_CURVE('',#702,#704,#410,.T.);
#887=EDGE_CURVE('',#705,#704,#411,.T.);
#888=EDGE_CURVE('',#703,#705,#412,.T.);
#889=EDGE_CURVE('',#706,#703,#413,.T.);
#890=EDGE_CURVE('',#707,#706,#414,.T.);
#891=EDGE_CURVE('',#707,#702,#415,.T.);
#892=EDGE_CURVE('',#708,#706,#416,.T.);
#893=EDGE_CURVE('',#709,#708,#417,.T.);
#894=EDGE_CURVE('',#709,#707,#418,.T.);
#895=EDGE_CURVE('',#700,#708,#419,.T.);
#896=EDGE_CURVE('',#701,#709,#420,.T.);
#897=EDGE_CURVE('',#704,#710,#421,.T.);
#898=EDGE_CURVE('',#710,#695,#422,.T.);
#899=EDGE_CURVE('',#676,#710,#423,.T.);
#900=EDGE_CURVE('',#699,#705,#424,.T.);
#901=ORIENTED_EDGE('',*,*,#711,.F.);
#902=ORIENTED_EDGE('',*,*,#712,.F.);
#903=ORIENTED_EDGE('',*,*,#713,.F.);
#904=ORIENTED_EDGE('',*,*,#714,.F.);
#905=ORIENTED_EDGE('',*,*,#715,.F.);
#906=ORIENTED_EDGE('',*,*,#716,.F.);
#907=ORIENTED_EDGE('',*,*,#717,.F.);
#908=ORIENTED_EDGE('',*,*,#718,.F.);
#909=ORIENTED_EDGE('',*,*,#716,.T.);
#910=ORIENTED_EDGE('',*,*,#719,.T.);
#911=ORIENTED_EDGE('',*,*,#720,.T.);
#912=ORIENTED_EDGE('',*,*,#721,.F.);
#913=ORIENTED_EDGE('',*,*,#722,.F.);
#914=ORIENTED_EDGE('',*,*,#715,.T.);
#915=ORIENTED_EDGE('',*,*,#723,.T.);
#916=ORIENTED_EDGE('',*,*,#724,.T.);
#917=ORIENTED_EDGE('',*,*,#719,.F.);
#918=ORIENTED_EDGE('',*,*,#725,.T.);
#919=ORIENTED_EDGE('',*,*,#726,.F.);
#920=ORIENTED_EDGE('',*,*,#727,.F.);
#921=ORIENTED_EDGE('',*,*,#728,.F.);
#922=ORIENTED_EDGE('',*,*,#718,.T.);
#923=ORIENTED_EDGE('',*,*,#729,.T.);
#924=ORIENTED_EDGE('',*,*,#730,.T.);
#925=ORIENTED_EDGE('',*,*,#723,.F.);
#926=ORIENTED_EDGE('',*,*,#731,.F.);
#927=ORIENTED_EDGE('',*,*,#717,.T.);
#928=ORIENTED_EDGE('',*,*,#721,.T.);
#929=ORIENTED_EDGE('',*,*,#732,.T.);
#930=ORIENTED_EDGE('',*,*,#729,.F.);
#931=ORIENTED_EDGE('',*,*,#720,.F.);
#932=ORIENTED_EDGE('',*,*,#724,.F.);
#933=ORIENTED_EDGE('',*,*,#730,.F.);
#934=ORIENTED_EDGE('',*,*,#732,.F.);
#935=ORIENTED_EDGE('',*,*,#722,.T.);
#936=ORIENTED_EDGE('',*,*,#733,.T.);
#937=ORIENTED_EDGE('',*,*,#734,.T.);
#938=ORIENTED_EDGE('',*,*,#733,.F.);
#939=ORIENTED_EDGE('',*,*,#735,.F.);
#940=ORIENTED_EDGE('',*,*,#734,.F.);
#941=ORIENTED_EDGE('',*,*,#736,.F.);
#942=ORIENTED_EDGE('',*,*,#737,.T.);
#943=ORIENTED_EDGE('',*,*,#712,.T.);
#944=ORIENTED_EDGE('',*,*,#738,.F.);
#945=ORIENTED_EDGE('',*,*,#739,.T.);
#946=ORIENTED_EDGE('',*,*,#739,.F.);
#947=ORIENTED_EDGE('',*,*,#740,.T.);
#948=ORIENTED_EDGE('',*,*,#735,.T.);
#949=ORIENTED_EDGE('',*,*,#740,.F.);
#950=ORIENTED_EDGE('',*,*,#741,.F.);
#951=ORIENTED_EDGE('',*,*,#742,.T.);
#952=ORIENTED_EDGE('',*,*,#743,.T.);
#953=ORIENTED_EDGE('',*,*,#742,.F.);
#954=ORIENTED_EDGE('',*,*,#743,.F.);
#955=ORIENTED_EDGE('',*,*,#744,.F.);
#956=ORIENTED_EDGE('',*,*,#744,.T.);
#957=ORIENTED_EDGE('',*,*,#745,.T.);
#958=ORIENTED_EDGE('',*,*,#731,.T.);
#959=ORIENTED_EDGE('',*,*,#745,.F.);
#960=ORIENTED_EDGE('',*,*,#746,.T.);
#961=ORIENTED_EDGE('',*,*,#747,.T.);
#962=ORIENTED_EDGE('',*,*,#748,.T.);
#963=ORIENTED_EDGE('',*,*,#749,.F.);
#964=ORIENTED_EDGE('',*,*,#750,.F.);
#965=ORIENTED_EDGE('',*,*,#751,.T.);
#966=ORIENTED_EDGE('',*,*,#752,.T.);
#967=ORIENTED_EDGE('',*,*,#751,.F.);
#968=ORIENTED_EDGE('',*,*,#753,.F.);
#969=ORIENTED_EDGE('',*,*,#754,.T.);
#970=ORIENTED_EDGE('',*,*,#755,.T.);
#971=ORIENTED_EDGE('',*,*,#754,.F.);
#972=ORIENTED_EDGE('',*,*,#756,.T.);
#973=ORIENTED_EDGE('',*,*,#757,.T.);
#974=ORIENTED_EDGE('',*,*,#758,.T.);
#975=ORIENTED_EDGE('',*,*,#725,.F.);
#976=ORIENTED_EDGE('',*,*,#759,.T.);
#977=ORIENTED_EDGE('',*,*,#760,.T.);
#978=ORIENTED_EDGE('',*,*,#761,.T.);
#979=ORIENTED_EDGE('',*,*,#762,.F.);
#980=ORIENTED_EDGE('',*,*,#763,.F.);
#981=ORIENTED_EDGE('',*,*,#738,.T.);
#982=ORIENTED_EDGE('',*,*,#711,.T.);
#983=ORIENTED_EDGE('',*,*,#764,.F.);
#984=ORIENTED_EDGE('',*,*,#765,.F.);
#985=ORIENTED_EDGE('',*,*,#764,.T.);
#986=ORIENTED_EDGE('',*,*,#714,.T.);
#987=ORIENTED_EDGE('',*,*,#766,.F.);
#988=ORIENTED_EDGE('',*,*,#741,.T.);
#989=ORIENTED_EDGE('',*,*,#767,.F.);
#990=ORIENTED_EDGE('',*,*,#766,.T.);
#991=ORIENTED_EDGE('',*,*,#713,.T.);
#992=ORIENTED_EDGE('',*,*,#737,.F.);
#993=ORIENTED_EDGE('',*,*,#762,.T.);
#994=ORIENTED_EDGE('',*,*,#768,.F.);
#995=ORIENTED_EDGE('',*,*,#748,.F.);
#996=ORIENTED_EDGE('',*,*,#769,.F.);
#997=ORIENTED_EDGE('',*,*,#728,.T.);
#998=ORIENTED_EDGE('',*,*,#770,.F.);
#999=ORIENTED_EDGE('',*,*,#771,.T.);
#1000=ORIENTED_EDGE('',*,*,#736,.T.);
#1001=ORIENTED_EDGE('',*,*,#772,.T.);
#1002=ORIENTED_EDGE('',*,*,#759,.F.);
#1003=ORIENTED_EDGE('',*,*,#773,.F.);
#1004=ORIENTED_EDGE('',*,*,#774,.T.);
#1005=ORIENTED_EDGE('',*,*,#775,.T.);
#1006=ORIENTED_EDGE('',*,*,#776,.T.);
#1007=ORIENTED_EDGE('',*,*,#777,.T.);
#1008=ORIENTED_EDGE('',*,*,#778,.F.);
#1009=ORIENTED_EDGE('',*,*,#779,.T.);
#1010=ORIENTED_EDGE('',*,*,#726,.T.);
#1011=ORIENTED_EDGE('',*,*,#758,.F.);
#1012=ORIENTED_EDGE('',*,*,#780,.T.);
#1013=ORIENTED_EDGE('',*,*,#727,.T.);
#1014=ORIENTED_EDGE('',*,*,#779,.F.);
#1015=ORIENTED_EDGE('',*,*,#781,.T.);
#1016=ORIENTED_EDGE('',*,*,#770,.T.);
#1017=ORIENTED_EDGE('',*,*,#780,.F.);
#1018=ORIENTED_EDGE('',*,*,#782,.T.);
#1019=ORIENTED_EDGE('',*,*,#773,.T.);
#1020=ORIENTED_EDGE('',*,*,#782,.F.);
#1021=ORIENTED_EDGE('',*,*,#768,.T.);
#1022=ORIENTED_EDGE('',*,*,#761,.F.);
#1023=ORIENTED_EDGE('',*,*,#783,.T.);
#1024=ORIENTED_EDGE('',*,*,#765,.T.);
#1025=ORIENTED_EDGE('',*,*,#784,.F.);
#1026=ORIENTED_EDGE('',*,*,#749,.T.);
#1027=ORIENTED_EDGE('',*,*,#753,.T.);
#1028=ORIENTED_EDGE('',*,*,#750,.T.);
#1029=ORIENTED_EDGE('',*,*,#785,.T.);
#1030=ORIENTED_EDGE('',*,*,#774,.F.);
#1031=ORIENTED_EDGE('',*,*,#757,.F.);
#1032=ORIENTED_EDGE('',*,*,#786,.T.);
#1033=ORIENTED_EDGE('',*,*,#787,.T.);
#1034=ORIENTED_EDGE('',*,*,#788,.F.);
#1035=ORIENTED_EDGE('',*,*,#776,.F.);
#1036=ORIENTED_EDGE('',*,*,#789,.T.);
#1037=ORIENTED_EDGE('',*,*,#790,.T.);
#1038=ORIENTED_EDGE('',*,*,#791,.T.);
#1039=ORIENTED_EDGE('',*,*,#792,.T.);
#1040=ORIENTED_EDGE('',*,*,#793,.F.);
#1041=ORIENTED_EDGE('',*,*,#794,.T.);
#1042=ORIENTED_EDGE('',*,*,#790,.F.);
#1043=ORIENTED_EDGE('',*,*,#795,.F.);
#1044=ORIENTED_EDGE('',*,*,#796,.T.);
#1045=ORIENTED_EDGE('',*,*,#797,.T.);
#1046=ORIENTED_EDGE('',*,*,#796,.F.);
#1047=ORIENTED_EDGE('',*,*,#798,.F.);
#1048=ORIENTED_EDGE('',*,*,#799,.T.);
#1049=ORIENTED_EDGE('',*,*,#800,.T.);
#1050=ORIENTED_EDGE('',*,*,#799,.F.);
#1051=ORIENTED_EDGE('',*,*,#801,.F.);
#1052=ORIENTED_EDGE('',*,*,#787,.F.);
#1053=ORIENTED_EDGE('',*,*,#802,.T.);
#1054=ORIENTED_EDGE('',*,*,#803,.T.);
#1055=ORIENTED_EDGE('',*,*,#777,.F.);
#1056=ORIENTED_EDGE('',*,*,#788,.T.);
#1057=ORIENTED_EDGE('',*,*,#801,.T.);
#1058=ORIENTED_EDGE('',*,*,#798,.T.);
#1059=ORIENTED_EDGE('',*,*,#795,.T.);
#1060=ORIENTED_EDGE('',*,*,#793,.T.);
#1061=ORIENTED_EDGE('',*,*,#784,.T.);
#1062=ORIENTED_EDGE('',*,*,#767,.T.);
#1063=ORIENTED_EDGE('',*,*,#771,.F.);
#1064=ORIENTED_EDGE('',*,*,#781,.F.);
#1065=ORIENTED_EDGE('',*,*,#778,.T.);
#1066=ORIENTED_EDGE('',*,*,#803,.F.);
#1067=ORIENTED_EDGE('',*,*,#804,.F.);
#1068=ORIENTED_EDGE('',*,*,#746,.F.);
#1069=ORIENTED_EDGE('',*,*,#785,.F.);
#1070=ORIENTED_EDGE('',*,*,#805,.T.);
#1071=ORIENTED_EDGE('',*,*,#791,.F.);
#1072=ORIENTED_EDGE('',*,*,#794,.F.);
#1073=ORIENTED_EDGE('',*,*,#797,.F.);
#1074=ORIENTED_EDGE('',*,*,#800,.F.);
#1075=ORIENTED_EDGE('',*,*,#789,.F.);
#1076=ORIENTED_EDGE('',*,*,#775,.F.);
#1077=ORIENTED_EDGE('',*,*,#763,.T.);
#1078=ORIENTED_EDGE('',*,*,#783,.F.);
#1079=ORIENTED_EDGE('',*,*,#760,.F.);
#1080=ORIENTED_EDGE('',*,*,#772,.F.);
#1081=ORIENTED_EDGE('',*,*,#792,.F.);
#1082=ORIENTED_EDGE('',*,*,#805,.F.);
#1083=ORIENTED_EDGE('',*,*,#786,.F.);
#1084=ORIENTED_EDGE('',*,*,#756,.F.);
#1085=ORIENTED_EDGE('',*,*,#769,.T.);
#1086=ORIENTED_EDGE('',*,*,#747,.F.);
#1087=ORIENTED_EDGE('',*,*,#804,.T.);
#1088=ORIENTED_EDGE('',*,*,#802,.F.);
#1089=ORIENTED_EDGE('',*,*,#752,.F.);
#1090=ORIENTED_EDGE('',*,*,#755,.F.);
#1091=ORIENTED_EDGE('',*,*,#806,.T.);
#1092=ORIENTED_EDGE('',*,*,#807,.T.);
#1093=ORIENTED_EDGE('',*,*,#808,.T.);
#1094=ORIENTED_EDGE('',*,*,#809,.T.);
#1095=ORIENTED_EDGE('',*,*,#810,.F.);
#1096=ORIENTED_EDGE('',*,*,#811,.F.);
#1097=ORIENTED_EDGE('',*,*,#812,.F.);
#1098=ORIENTED_EDGE('',*,*,#813,.F.);
#1099=ORIENTED_EDGE('',*,*,#811,.T.);
#1100=ORIENTED_EDGE('',*,*,#814,.T.);
#1101=ORIENTED_EDGE('',*,*,#815,.F.);
#1102=ORIENTED_EDGE('',*,*,#816,.F.);
#1103=ORIENTED_EDGE('',*,*,#817,.T.);
#1104=ORIENTED_EDGE('',*,*,#810,.T.);
#1105=ORIENTED_EDGE('',*,*,#818,.T.);
#1106=ORIENTED_EDGE('',*,*,#819,.F.);
#1107=ORIENTED_EDGE('',*,*,#814,.F.);
#1108=ORIENTED_EDGE('',*,*,#820,.F.);
#1109=ORIENTED_EDGE('',*,*,#821,.T.);
#1110=ORIENTED_EDGE('',*,*,#822,.T.);
#1111=ORIENTED_EDGE('',*,*,#823,.T.);
#1112=ORIENTED_EDGE('',*,*,#812,.T.);
#1113=ORIENTED_EDGE('',*,*,#816,.T.);
#1114=ORIENTED_EDGE('',*,*,#824,.F.);
#1115=ORIENTED_EDGE('',*,*,#825,.F.);
#1116=ORIENTED_EDGE('',*,*,#813,.T.);
#1117=ORIENTED_EDGE('',*,*,#825,.T.);
#1118=ORIENTED_EDGE('',*,*,#826,.F.);
#1119=ORIENTED_EDGE('',*,*,#818,.F.);
#1120=ORIENTED_EDGE('',*,*,#827,.T.);
#1121=ORIENTED_EDGE('',*,*,#826,.T.);
#1122=ORIENTED_EDGE('',*,*,#824,.T.);
#1123=ORIENTED_EDGE('',*,*,#815,.T.);
#1124=ORIENTED_EDGE('',*,*,#819,.T.);
#1125=ORIENTED_EDGE('',*,*,#827,.F.);
#1126=ORIENTED_EDGE('',*,*,#828,.T.);
#1127=ORIENTED_EDGE('',*,*,#829,.F.);
#1128=ORIENTED_EDGE('',*,*,#828,.F.);
#1129=ORIENTED_EDGE('',*,*,#830,.T.);
#1130=ORIENTED_EDGE('',*,*,#829,.T.);
#1131=ORIENTED_EDGE('',*,*,#831,.T.);
#1132=ORIENTED_EDGE('',*,*,#832,.T.);
#1133=ORIENTED_EDGE('',*,*,#809,.F.);
#1134=ORIENTED_EDGE('',*,*,#833,.F.);
#1135=ORIENTED_EDGE('',*,*,#834,.F.);
#1136=ORIENTED_EDGE('',*,*,#834,.T.);
#1137=ORIENTED_EDGE('',*,*,#835,.T.);
#1138=ORIENTED_EDGE('',*,*,#830,.F.);
#1139=ORIENTED_EDGE('',*,*,#835,.F.);
#1140=ORIENTED_EDGE('',*,*,#836,.T.);
#1141=ORIENTED_EDGE('',*,*,#837,.T.);
#1142=ORIENTED_EDGE('',*,*,#838,.F.);
#1143=ORIENTED_EDGE('',*,*,#837,.F.);
#1144=ORIENTED_EDGE('',*,*,#838,.T.);
#1145=ORIENTED_EDGE('',*,*,#839,.T.);
#1146=ORIENTED_EDGE('',*,*,#839,.F.);
#1147=ORIENTED_EDGE('',*,*,#840,.T.);
#1148=ORIENTED_EDGE('',*,*,#817,.F.);
#1149=ORIENTED_EDGE('',*,*,#840,.F.);
#1150=ORIENTED_EDGE('',*,*,#841,.F.);
#1151=ORIENTED_EDGE('',*,*,#842,.T.);
#1152=ORIENTED_EDGE('',*,*,#843,.F.);
#1153=ORIENTED_EDGE('',*,*,#844,.F.);
#1154=ORIENTED_EDGE('',*,*,#845,.T.);
#1155=ORIENTED_EDGE('',*,*,#846,.T.);
#1156=ORIENTED_EDGE('',*,*,#847,.F.);
#1157=ORIENTED_EDGE('',*,*,#846,.F.);
#1158=ORIENTED_EDGE('',*,*,#848,.T.);
#1159=ORIENTED_EDGE('',*,*,#849,.T.);
#1160=ORIENTED_EDGE('',*,*,#850,.F.);
#1161=ORIENTED_EDGE('',*,*,#849,.F.);
#1162=ORIENTED_EDGE('',*,*,#851,.F.);
#1163=ORIENTED_EDGE('',*,*,#852,.T.);
#1164=ORIENTED_EDGE('',*,*,#853,.F.);
#1165=ORIENTED_EDGE('',*,*,#854,.F.);
#1166=ORIENTED_EDGE('',*,*,#855,.F.);
#1167=ORIENTED_EDGE('',*,*,#820,.T.);
#1168=ORIENTED_EDGE('',*,*,#856,.F.);
#1169=ORIENTED_EDGE('',*,*,#857,.F.);
#1170=ORIENTED_EDGE('',*,*,#858,.T.);
#1171=ORIENTED_EDGE('',*,*,#859,.T.);
#1172=ORIENTED_EDGE('',*,*,#806,.F.);
#1173=ORIENTED_EDGE('',*,*,#832,.F.);
#1174=ORIENTED_EDGE('',*,*,#860,.T.);
#1175=ORIENTED_EDGE('',*,*,#861,.T.);
#1176=ORIENTED_EDGE('',*,*,#807,.F.);
#1177=ORIENTED_EDGE('',*,*,#859,.F.);
#1178=ORIENTED_EDGE('',*,*,#836,.F.);
#1179=ORIENTED_EDGE('',*,*,#862,.T.);
#1180=ORIENTED_EDGE('',*,*,#833,.T.);
#1181=ORIENTED_EDGE('',*,*,#808,.F.);
#1182=ORIENTED_EDGE('',*,*,#861,.F.);
#1183=ORIENTED_EDGE('',*,*,#852,.F.);
#1184=ORIENTED_EDGE('',*,*,#863,.T.);
#1185=ORIENTED_EDGE('',*,*,#843,.T.);
#1186=ORIENTED_EDGE('',*,*,#864,.T.);
#1187=ORIENTED_EDGE('',*,*,#821,.F.);
#1188=ORIENTED_EDGE('',*,*,#855,.T.);
#1189=ORIENTED_EDGE('',*,*,#865,.F.);
#1190=ORIENTED_EDGE('',*,*,#831,.F.);
#1191=ORIENTED_EDGE('',*,*,#866,.F.);
#1192=ORIENTED_EDGE('',*,*,#867,.T.);
#1193=ORIENTED_EDGE('',*,*,#868,.T.);
#1194=ORIENTED_EDGE('',*,*,#869,.F.);
#1195=ORIENTED_EDGE('',*,*,#856,.T.);
#1196=ORIENTED_EDGE('',*,*,#823,.F.);
#1197=ORIENTED_EDGE('',*,*,#870,.F.);
#1198=ORIENTED_EDGE('',*,*,#871,.T.);
#1199=ORIENTED_EDGE('',*,*,#872,.F.);
#1200=ORIENTED_EDGE('',*,*,#873,.F.);
#1201=ORIENTED_EDGE('',*,*,#874,.F.);
#1202=ORIENTED_EDGE('',*,*,#875,.F.);
#1203=ORIENTED_EDGE('',*,*,#822,.F.);
#1204=ORIENTED_EDGE('',*,*,#867,.F.);
#1205=ORIENTED_EDGE('',*,*,#876,.F.);
#1206=ORIENTED_EDGE('',*,*,#870,.T.);
#1207=ORIENTED_EDGE('',*,*,#875,.T.);
#1208=ORIENTED_EDGE('',*,*,#877,.T.);
#1209=ORIENTED_EDGE('',*,*,#868,.F.);
#1210=ORIENTED_EDGE('',*,*,#877,.F.);
#1211=ORIENTED_EDGE('',*,*,#864,.F.);
#1212=ORIENTED_EDGE('',*,*,#842,.F.);
#1213=ORIENTED_EDGE('',*,*,#878,.T.);
#1214=ORIENTED_EDGE('',*,*,#860,.F.);
#1215=ORIENTED_EDGE('',*,*,#879,.F.);
#1216=ORIENTED_EDGE('',*,*,#853,.T.);
#1217=ORIENTED_EDGE('',*,*,#848,.F.);
#1218=ORIENTED_EDGE('',*,*,#845,.F.);
#1219=ORIENTED_EDGE('',*,*,#880,.F.);
#1220=ORIENTED_EDGE('',*,*,#881,.F.);
#1221=ORIENTED_EDGE('',*,*,#857,.T.);
#1222=ORIENTED_EDGE('',*,*,#869,.T.);
#1223=ORIENTED_EDGE('',*,*,#882,.F.);
#1224=ORIENTED_EDGE('',*,*,#883,.F.);
#1225=ORIENTED_EDGE('',*,*,#873,.T.);
#1226=ORIENTED_EDGE('',*,*,#884,.T.);
#1227=ORIENTED_EDGE('',*,*,#885,.F.);
#1228=ORIENTED_EDGE('',*,*,#886,.T.);
#1229=ORIENTED_EDGE('',*,*,#887,.F.);
#1230=ORIENTED_EDGE('',*,*,#888,.F.);
#1231=ORIENTED_EDGE('',*,*,#889,.F.);
#1232=ORIENTED_EDGE('',*,*,#890,.F.);
#1233=ORIENTED_EDGE('',*,*,#891,.T.);
#1234=ORIENTED_EDGE('',*,*,#885,.T.);
#1235=ORIENTED_EDGE('',*,*,#892,.F.);
#1236=ORIENTED_EDGE('',*,*,#893,.F.);
#1237=ORIENTED_EDGE('',*,*,#894,.T.);
#1238=ORIENTED_EDGE('',*,*,#890,.T.);
#1239=ORIENTED_EDGE('',*,*,#895,.F.);
#1240=ORIENTED_EDGE('',*,*,#882,.T.);
#1241=ORIENTED_EDGE('',*,*,#896,.T.);
#1242=ORIENTED_EDGE('',*,*,#893,.T.);
#1243=ORIENTED_EDGE('',*,*,#897,.F.);
#1244=ORIENTED_EDGE('',*,*,#886,.F.);
#1245=ORIENTED_EDGE('',*,*,#891,.F.);
#1246=ORIENTED_EDGE('',*,*,#894,.F.);
#1247=ORIENTED_EDGE('',*,*,#896,.F.);
#1248=ORIENTED_EDGE('',*,*,#884,.F.);
#1249=ORIENTED_EDGE('',*,*,#872,.T.);
#1250=ORIENTED_EDGE('',*,*,#898,.F.);
#1251=ORIENTED_EDGE('',*,*,#878,.F.);
#1252=ORIENTED_EDGE('',*,*,#841,.T.);
#1253=ORIENTED_EDGE('',*,*,#899,.T.);
#1254=ORIENTED_EDGE('',*,*,#898,.T.);
#1255=ORIENTED_EDGE('',*,*,#871,.F.);
#1256=ORIENTED_EDGE('',*,*,#876,.T.);
#1257=ORIENTED_EDGE('',*,*,#866,.T.);
#1258=ORIENTED_EDGE('',*,*,#862,.F.);
#1259=ORIENTED_EDGE('',*,*,#880,.T.);
#1260=ORIENTED_EDGE('',*,*,#874,.T.);
#1261=ORIENTED_EDGE('',*,*,#883,.T.);
#1262=ORIENTED_EDGE('',*,*,#895,.T.);
#1263=ORIENTED_EDGE('',*,*,#892,.T.);
#1264=ORIENTED_EDGE('',*,*,#889,.T.);
#1265=ORIENTED_EDGE('',*,*,#888,.T.);
#1266=ORIENTED_EDGE('',*,*,#900,.F.);
#1267=ORIENTED_EDGE('',*,*,#858,.F.);
#1268=ORIENTED_EDGE('',*,*,#865,.T.);
#1269=ORIENTED_EDGE('',*,*,#854,.T.);
#1270=ORIENTED_EDGE('',*,*,#879,.T.);
#1271=ORIENTED_EDGE('',*,*,#887,.T.);
#1272=ORIENTED_EDGE('',*,*,#897,.T.);
#1273=ORIENTED_EDGE('',*,*,#899,.F.);
#1274=ORIENTED_EDGE('',*,*,#844,.T.);
#1275=ORIENTED_EDGE('',*,*,#863,.F.);
#1276=ORIENTED_EDGE('',*,*,#851,.T.);
#1277=ORIENTED_EDGE('',*,*,#881,.T.);
#1278=ORIENTED_EDGE('',*,*,#900,.T.);
#1279=ORIENTED_EDGE('',*,*,#847,.T.);
#1280=ORIENTED_EDGE('',*,*,#850,.T.);
#1281=PLANE('',#1434);
#1282=PLANE('',#1435);
#1283=PLANE('',#1437);
#1284=PLANE('',#1438);
#1285=PLANE('',#1439);
#1286=PLANE('',#1441);
#1287=PLANE('',#1442);
#1288=PLANE('',#1445);
#1289=PLANE('',#1447);
#1290=PLANE('',#1453);
#1291=PLANE('',#1456);
#1292=PLANE('',#1463);
#1293=PLANE('',#1464);
#1294=PLANE('',#1465);
#1295=PLANE('',#1466);
#1296=PLANE('',#1467);
#1297=PLANE('',#1468);
#1298=PLANE('',#1470);
#1299=PLANE('',#1472);
#1300=PLANE('',#1474);
#1301=PLANE('',#1475);
#1302=PLANE('',#1476);
#1303=PLANE('',#1477);
#1304=PLANE('',#1478);
#1305=PLANE('',#1479);
#1306=PLANE('',#1480);
#1307=PLANE('',#1481);
#1308=PLANE('',#1482);
#1309=PLANE('',#1483);
#1310=PLANE('',#1484);
#1311=PLANE('',#1485);
#1312=PLANE('',#1486);
#1313=PLANE('',#1487);
#1314=PLANE('',#1489);
#1315=PLANE('',#1490);
#1316=PLANE('',#1491);
#1317=PLANE('',#1492);
#1318=PLANE('',#1494);
#1319=PLANE('',#1497);
#1320=PLANE('',#1499);
#1321=PLANE('',#1505);
#1322=PLANE('',#1508);
#1323=PLANE('',#1515);
#1324=PLANE('',#1516);
#1325=PLANE('',#1517);
#1326=PLANE('',#1518);
#1327=PLANE('',#1519);
#1328=PLANE('',#1520);
#1329=PLANE('',#1522);
#1330=PLANE('',#1524);
#1331=PLANE('',#1526);
#1332=PLANE('',#1527);
#1333=PLANE('',#1528);
#1334=PLANE('',#1529);
#1335=PLANE('',#1530);
#1336=PLANE('',#1531);
#1337=PLANE('',#1532);
#1338=PLANE('',#1533);
#1339=PLANE('',#1534);
#1340=PLANE('',#1535);
#1341=PLANE('',#1536);
#1342=PLANE('',#1537);
#1343=ADVANCED_FACE('',(#85,#59),#1281,.F.);
#1344=ADVANCED_FACE('',(#86,#60),#1282,.F.);
#1345=ADVANCED_FACE('',(#87),#1283,.F.);
#1346=ADVANCED_FACE('',(#88),#1284,.F.);
#1347=ADVANCED_FACE('',(#89,#61),#1285,.F.);
#1348=ADVANCED_FACE('',(#90),#1286,.F.);
#1349=ADVANCED_FACE('',(#91),#1287,.F.);
#1350=ADVANCED_FACE('',(#92),#21,.F.);
#1351=ADVANCED_FACE('',(#93,#62),#1288,.F.);
#1352=ADVANCED_FACE('',(#94,#63),#1289,.F.);
#1353=ADVANCED_FACE('',(#95),#22,.F.);
#1354=ADVANCED_FACE('',(#96),#23,.F.);
#1355=ADVANCED_FACE('',(#97,#64),#1290,.T.);
#1356=ADVANCED_FACE('',(#98),#24,.F.);
#1357=ADVANCED_FACE('',(#99),#1291,.T.);
#1358=ADVANCED_FACE('',(#100),#25,.F.);
#1359=ADVANCED_FACE('',(#101),#26,.F.);
#1360=ADVANCED_FACE('',(#102),#1292,.F.);
#1361=ADVANCED_FACE('',(#103),#1293,.F.);
#1362=ADVANCED_FACE('',(#104,#65),#1294,.F.);
#1363=ADVANCED_FACE('',(#105),#1295,.F.);
#1364=ADVANCED_FACE('',(#106),#1296,.F.);
#1365=ADVANCED_FACE('',(#107,#66),#1297,.F.);
#1366=ADVANCED_FACE('',(#108,#67),#1298,.T.);
#1367=ADVANCED_FACE('',(#109),#1299,.T.);
#1368=ADVANCED_FACE('',(#110),#27,.F.);
#1369=ADVANCED_FACE('',(#111,#68,#69),#1300,.T.);
#1370=ADVANCED_FACE('',(#112),#1301,.F.);
#1371=ADVANCED_FACE('',(#113),#1302,.F.);
#1372=ADVANCED_FACE('',(#114),#1303,.F.);
#1373=ADVANCED_FACE('',(#115),#1304,.T.);
#1374=ADVANCED_FACE('',(#116),#1305,.F.);
#1375=ADVANCED_FACE('',(#117),#1306,.T.);
#1376=ADVANCED_FACE('',(#118),#1307,.F.);
#1377=ADVANCED_FACE('',(#119),#1308,.F.);
#1378=ADVANCED_FACE('',(#120),#1309,.F.);
#1379=ADVANCED_FACE('',(#121),#1310,.T.);
#1380=ADVANCED_FACE('',(#122,#70,#71),#1311,.F.);
#1381=ADVANCED_FACE('',(#123,#72),#1312,.F.);
#1382=ADVANCED_FACE('',(#124,#73),#1313,.T.);
#1383=ADVANCED_FACE('',(#125),#1314,.T.);
#1384=ADVANCED_FACE('',(#126),#1315,.T.);
#1385=ADVANCED_FACE('',(#127),#1316,.T.);
#1386=ADVANCED_FACE('',(#128,#74),#1317,.T.);
#1387=ADVANCED_FACE('',(#129),#1318,.T.);
#1388=ADVANCED_FACE('',(#130),#28,.F.);
#1389=ADVANCED_FACE('',(#131,#75),#1319,.T.);
#1390=ADVANCED_FACE('',(#132,#76),#1320,.T.);
#1391=ADVANCED_FACE('',(#133),#29,.F.);
#1392=ADVANCED_FACE('',(#134),#30,.F.);
#1393=ADVANCED_FACE('',(#135,#77),#1321,.F.);
#1394=ADVANCED_FACE('',(#136),#31,.F.);
#1395=ADVANCED_FACE('',(#137),#1322,.F.);
#1396=ADVANCED_FACE('',(#138),#32,.F.);
#1397=ADVANCED_FACE('',(#139),#33,.F.);
#1398=ADVANCED_FACE('',(#140),#1323,.T.);
#1399=ADVANCED_FACE('',(#141),#1324,.T.);
#1400=ADVANCED_FACE('',(#142,#78),#1325,.T.);
#1401=ADVANCED_FACE('',(#143),#1326,.T.);
#1402=ADVANCED_FACE('',(#144),#1327,.T.);
#1403=ADVANCED_FACE('',(#145,#79),#1328,.T.);
#1404=ADVANCED_FACE('',(#146,#80),#1329,.F.);
#1405=ADVANCED_FACE('',(#147),#1330,.F.);
#1406=ADVANCED_FACE('',(#148),#34,.F.);
#1407=ADVANCED_FACE('',(#149,#81,#82),#1331,.F.);
#1408=ADVANCED_FACE('',(#150),#1332,.T.);
#1409=ADVANCED_FACE('',(#151),#1333,.T.);
#1410=ADVANCED_FACE('',(#152),#1334,.T.);
#1411=ADVANCED_FACE('',(#153),#1335,.F.);
#1412=ADVANCED_FACE('',(#154),#1336,.T.);
#1413=ADVANCED_FACE('',(#155),#1337,.F.);
#1414=ADVANCED_FACE('',(#156),#1338,.T.);
#1415=ADVANCED_FACE('',(#157),#1339,.T.);
#1416=ADVANCED_FACE('',(#158),#1340,.T.);
#1417=ADVANCED_FACE('',(#159),#1341,.F.);
#1418=ADVANCED_FACE('',(#160,#83,#84),#1342,.T.);
#1419=CLOSED_SHELL('',(#1343,#1344,#1345,#1346,#1347,#1348,#1349,#1350,
#1351,#1352,#1353,#1354,#1355,#1356,#1357,#1358,#1359,#1360,#1361,#1362,
#1363,#1364,#1365,#1366,#1367,#1368,#1369,#1370,#1371,#1372,#1373,#1374,
#1375,#1376,#1377,#1378,#1379,#1380));
#1420=CLOSED_SHELL('',(#1381,#1382,#1383,#1384,#1385,#1386,#1387,#1388,
#1389,#1390,#1391,#1392,#1393,#1394,#1395,#1396,#1397,#1398,#1399,#1400,
#1401,#1402,#1403,#1404,#1405,#1406,#1407,#1408,#1409,#1410,#1411,#1412,
#1413,#1414,#1415,#1416,#1417,#1418));
#1421=DERIVED_UNIT_ELEMENT(#1423,1.);
#1422=DERIVED_UNIT_ELEMENT(#2306,-3.);
#1423=(
MASS_UNIT()
NAMED_UNIT(*)
SI_UNIT(.KILO.,.GRAM.)
);
#1424=DERIVED_UNIT((#1421,#1422));
#1425=MEASURE_REPRESENTATION_ITEM('density measure',
POSITIVE_RATIO_MEASURE(992.85),#1424);
#1426=PROPERTY_DEFINITION_REPRESENTATION(#1431,#1428);
#1427=PROPERTY_DEFINITION_REPRESENTATION(#1432,#1429);
#1428=REPRESENTATION('material name',(#1430),#2303);
#1429=REPRESENTATION('density',(#1425),#2303);
#1430=DESCRIPTIVE_REPRESENTATION_ITEM(
'HP 3D HR CB PA 12 (mit 3D-Drucker HP Jet Fusion 580 Color)',
'HP 3D HR CB PA 12 (mit 3D-Drucker HP Jet Fusion 580 Color)');
#1431=PROPERTY_DEFINITION('material property','material name',#2313);
#1432=PROPERTY_DEFINITION('material property','density of part',#2313);
#1433=AXIS2_PLACEMENT_3D('',#1910,#1538,#1539);
#1434=AXIS2_PLACEMENT_3D('',#1911,#1540,#1541);
#1435=AXIS2_PLACEMENT_3D('',#1928,#1550,#1551);
#1436=AXIS2_PLACEMENT_3D('',#1935,#1555,#1556);
#1437=AXIS2_PLACEMENT_3D('',#1936,#1557,#1558);
#1438=AXIS2_PLACEMENT_3D('',#1940,#1561,#1562);
#1439=AXIS2_PLACEMENT_3D('',#1949,#1567,#1568);
#1440=AXIS2_PLACEMENT_3D('',#1954,#1571,#1572);
#1441=AXIS2_PLACEMENT_3D('',#1955,#1573,#1574);
#1442=AXIS2_PLACEMENT_3D('',#1957,#1576,#1577);
#1443=AXIS2_PLACEMENT_3D('',#1958,#1578,#1579);
#1444=AXIS2_PLACEMENT_3D('',#1961,#1581,#1582);
#1445=AXIS2_PLACEMENT_3D('',#1962,#1583,#1584);
#1446=AXIS2_PLACEMENT_3D('',#1964,#1585,#1586);
#1447=AXIS2_PLACEMENT_3D('',#1965,#1587,#1588);
#1448=AXIS2_PLACEMENT_3D('',#1972,#1592,#1593);
#1449=AXIS2_PLACEMENT_3D('',#1973,#1594,#1595);
#1450=AXIS2_PLACEMENT_3D('',#1975,#1597,#1598);
#1451=AXIS2_PLACEMENT_3D('',#1977,#1599,#1600);
#1452=AXIS2_PLACEMENT_3D('',#1980,#1602,#1603);
#1453=AXIS2_PLACEMENT_3D('',#1981,#1604,#1605);
#1454=AXIS2_PLACEMENT_3D('',#1983,#1606,#1607);
#1455=AXIS2_PLACEMENT_3D('',#1984,#1608,#1609);
#1456=AXIS2_PLACEMENT_3D('',#1986,#1611,#1612);
#1457=AXIS2_PLACEMENT_3D('',#1995,#1617,#1618);
#1458=AXIS2_PLACEMENT_3D('',#1997,#1619,#1620);
#1459=AXIS2_PLACEMENT_3D('',#2000,#1622,#1623);
#1460=AXIS2_PLACEMENT_3D('',#2001,#1624,#1625);
#1461=AXIS2_PLACEMENT_3D('',#2003,#1626,#1627);
#1462=AXIS2_PLACEMENT_3D('',#2006,#1629,#1630);
#1463=AXIS2_PLACEMENT_3D('',#2007,#1631,#1632);
#1464=AXIS2_PLACEMENT_3D('',#2021,#1640,#1641);
#1465=AXIS2_PLACEMENT_3D('',#2025,#1644,#1645);
#1466=AXIS2_PLACEMENT_3D('',#2029,#1648,#1649);
#1467=AXIS2_PLACEMENT_3D('',#2031,#1651,#1652);
#1468=AXIS2_PLACEMENT_3D('',#2034,#1655,#1656);
#1469=AXIS2_PLACEMENT_3D('',#2040,#1660,#1661);
#1470=AXIS2_PLACEMENT_3D('',#2041,#1662,#1663);
#1471=AXIS2_PLACEMENT_3D('',#2054,#1670,#1671);
#1472=AXIS2_PLACEMENT_3D('',#2055,#1672,#1673);
#1473=AXIS2_PLACEMENT_3D('',#2057,#1675,#1676);
#1474=AXIS2_PLACEMENT_3D('',#2059,#1678,#1679);
#1475=AXIS2_PLACEMENT_3D('',#2062,#1682,#1683);
#1476=AXIS2_PLACEMENT_3D('',#2066,#1686,#1687);
#1477=AXIS2_PLACEMENT_3D('',#2072,#1691,#1692);
#1478=AXIS2_PLACEMENT_3D('',#2081,#1697,#1698);
#1479=AXIS2_PLACEMENT_3D('',#2087,#1702,#1703);
#1480=AXIS2_PLACEMENT_3D('',#2093,#1707,#1708);
#1481=AXIS2_PLACEMENT_3D('',#2096,#1711,#1712);
#1482=AXIS2_PLACEMENT_3D('',#2100,#1715,#1716);
#1483=AXIS2_PLACEMENT_3D('',#2102,#1718,#1719);
#1484=AXIS2_PLACEMENT_3D('',#2104,#1721,#1722);
#1485=AXIS2_PLACEMENT_3D('',#2105,#1723,#1724);
#1486=AXIS2_PLACEMENT_3D('',#2106,#1725,#1726);
#1487=AXIS2_PLACEMENT_3D('',#2123,#1735,#1736);
#1488=AXIS2_PLACEMENT_3D('',#2130,#1740,#1741);
#1489=AXIS2_PLACEMENT_3D('',#2131,#1742,#1743);
#1490=AXIS2_PLACEMENT_3D('',#2135,#1746,#1747);
#1491=AXIS2_PLACEMENT_3D('',#2144,#1752,#1753);
#1492=AXIS2_PLACEMENT_3D('',#2148,#1756,#1757);
#1493=AXIS2_PLACEMENT_3D('',#2151,#1759,#1760);
#1494=AXIS2_PLACEMENT_3D('',#2152,#1761,#1762);
#1495=AXIS2_PLACEMENT_3D('',#2153,#1763,#1764);
#1496=AXIS2_PLACEMENT_3D('',#2156,#1766,#1767);
#1497=AXIS2_PLACEMENT_3D('',#2157,#1768,#1769);
#1498=AXIS2_PLACEMENT_3D('',#2159,#1770,#1771);
#1499=AXIS2_PLACEMENT_3D('',#2160,#1772,#1773);
#1500=AXIS2_PLACEMENT_3D('',#2167,#1777,#1778);
#1501=AXIS2_PLACEMENT_3D('',#2168,#1779,#1780);
#1502=AXIS2_PLACEMENT_3D('',#2170,#1782,#1783);
#1503=AXIS2_PLACEMENT_3D('',#2172,#1784,#1785);
#1504=AXIS2_PLACEMENT_3D('',#2175,#1787,#1788);
#1505=AXIS2_PLACEMENT_3D('',#2176,#1789,#1790);
#1506=AXIS2_PLACEMENT_3D('',#2178,#1791,#1792);
#1507=AXIS2_PLACEMENT_3D('',#2179,#1793,#1794);
#1508=AXIS2_PLACEMENT_3D('',#2181,#1796,#1797);
#1509=AXIS2_PLACEMENT_3D('',#2190,#1802,#1803);
#1510=AXIS2_PLACEMENT_3D('',#2192,#1804,#1805);
#1511=AXIS2_PLACEMENT_3D('',#2195,#1807,#1808);
#1512=AXIS2_PLACEMENT_3D('',#2196,#1809,#1810);
#1513=AXIS2_PLACEMENT_3D('',#2198,#1811,#1812);
#1514=AXIS2_PLACEMENT_3D('',#2201,#1814,#1815);
#1515=AXIS2_PLACEMENT_3D('',#2202,#1816,#1817);
#1516=AXIS2_PLACEMENT_3D('',#2216,#1825,#1826);
#1517=AXIS2_PLACEMENT_3D('',#2220,#1829,#1830);
#1518=AXIS2_PLACEMENT_3D('',#2224,#1833,#1834);
#1519=AXIS2_PLACEMENT_3D('',#2226,#1836,#1837);
#1520=AXIS2_PLACEMENT_3D('',#2229,#1840,#1841);
#1521=AXIS2_PLACEMENT_3D('',#2235,#1845,#1846);
#1522=AXIS2_PLACEMENT_3D('',#2236,#1847,#1848);
#1523=AXIS2_PLACEMENT_3D('',#2249,#1855,#1856);
#1524=AXIS2_PLACEMENT_3D('',#2250,#1857,#1858);
#1525=AXIS2_PLACEMENT_3D('',#2252,#1860,#1861);
#1526=AXIS2_PLACEMENT_3D('',#2254,#1863,#1864);
#1527=AXIS2_PLACEMENT_3D('',#2257,#1867,#1868);
#1528=AXIS2_PLACEMENT_3D('',#2261,#1871,#1872);
#1529=AXIS2_PLACEMENT_3D('',#2267,#1876,#1877);
#1530=AXIS2_PLACEMENT_3D('',#2276,#1882,#1883);
#1531=AXIS2_PLACEMENT_3D('',#2282,#1887,#1888);
#1532=AXIS2_PLACEMENT_3D('',#2288,#1892,#1893);
#1533=AXIS2_PLACEMENT_3D('',#2291,#1896,#1897);
#1534=AXIS2_PLACEMENT_3D('',#2295,#1900,#1901);
#1535=AXIS2_PLACEMENT_3D('',#2297,#1903,#1904);
#1536=AXIS2_PLACEMENT_3D('',#2299,#1906,#1907);
#1537=AXIS2_PLACEMENT_3D('',#2300,#1908,#1909);
#1538=DIRECTION('axis',(0.,0.,1.));
#1539=DIRECTION('refdir',(1.,0.,0.));
#1540=DIRECTION('center_axis',(-1.,0.,0.));
#1541=DIRECTION('ref_axis',(0.,0.,1.));
#1542=DIRECTION('',(0.,0.,1.));
#1543=DIRECTION('',(0.,-1.,0.));
#1544=DIRECTION('',(0.,0.,-1.));
#1545=DIRECTION('',(0.,1.,0.));
#1546=DIRECTION('',(0.,0.,1.));
#1547=DIRECTION('',(0.,1.,0.));
#1548=DIRECTION('',(0.,0.,-1.));
#1549=DIRECTION('',(0.,-1.,0.));
#1550=DIRECTION('center_axis',(0.,0.,-1.));
#1551=DIRECTION('ref_axis',(0.,-1.,0.));
#1552=DIRECTION('',(-1.,0.,0.));
#1553=DIRECTION('',(0.,-1.,0.));
#1554=DIRECTION('',(-1.,0.,0.));
#1555=DIRECTION('center_axis',(0.,0.,1.));
#1556=DIRECTION('ref_axis',(-1.,0.,0.));
#1557=DIRECTION('center_axis',(0.,1.,0.));
#1558=DIRECTION('ref_axis',(0.,0.,-1.));
#1559=DIRECTION('',(-1.,0.,0.));
#1560=DIRECTION('',(0.,0.,-1.));
#1561=DIRECTION('center_axis',(0.,1.,0.));
#1562=DIRECTION('ref_axis',(0.,0.,1.));
#1563=DIRECTION('',(0.,0.,1.));
#1564=DIRECTION('',(1.,0.,0.));
#1565=DIRECTION('',(0.,0.,1.));
#1566=DIRECTION('',(-1.,0.,0.));
#1567=DIRECTION('center_axis',(0.,0.,1.));
#1568=DIRECTION('ref_axis',(0.,1.,0.));
#1569=DIRECTION('',(-1.,0.,0.));
#1570=DIRECTION('',(0.,1.,0.));
#1571=DIRECTION('center_axis',(0.,0.,-1.));
#1572=DIRECTION('ref_axis',(-1.,0.,0.));
#1573=DIRECTION('center_axis',(0.,-1.,0.));
#1574=DIRECTION('ref_axis',(0.,0.,1.));
#1575=DIRECTION('',(0.,0.,1.));
#1576=DIRECTION('center_axis',(-1.,0.,0.));
#1577=DIRECTION('ref_axis',(0.,0.,1.));
#1578=DIRECTION('center_axis',(0.,0.,-1.));
#1579=DIRECTION('ref_axis',(-1.,0.,0.));
#1580=DIRECTION('',(0.,0.,-1.));
#1581=DIRECTION('center_axis',(0.,0.,-1.));
#1582=DIRECTION('ref_axis',(-1.,0.,0.));
#1583=DIRECTION('center_axis',(0.,0.,1.));
#1584=DIRECTION('ref_axis',(-1.,0.,0.));
#1585=DIRECTION('center_axis',(0.,0.,1.));
#1586=DIRECTION('ref_axis',(-1.,0.,0.));
#1587=DIRECTION('center_axis',(-0.373466870857975,0.,0.92764351793755));
#1588=DIRECTION('ref_axis',(0.92764351793755,0.,0.373466870857975));
#1589=DIRECTION('',(0.,-1.,0.));
#1590=DIRECTION('',(0.747502359587777,-0.592177193959148,0.300942508405469));
#1591=DIRECTION('',(0.869016928259941,0.349863958130626,0.349863958130626));
#1592=DIRECTION('center_axis',(-0.373466870857975,0.,0.92764351793755));
#1593=DIRECTION('ref_axis',(-0.92764351793755,0.,-0.373466870857975));
#1594=DIRECTION('center_axis',(0.,0.,1.));
#1595=DIRECTION('ref_axis',(-1.,0.,0.));
#1596=DIRECTION('',(0.,0.,1.));
#1597=DIRECTION('center_axis',(0.,0.,-1.));
#1598=DIRECTION('ref_axis',(-1.,0.,0.));
#1599=DIRECTION('center_axis',(-0.263117405792109,0.,-0.964763821237732));
#1600=DIRECTION('ref_axis',(-0.964763821237732,0.,0.263117405792109));
#1601=DIRECTION('',(0.,0.,-1.));
#1602=DIRECTION('center_axis',(0.,0.,-1.));
#1603=DIRECTION('ref_axis',(-1.,0.,0.));
#1604=DIRECTION('center_axis',(0.,0.,1.));
#1605=DIRECTION('ref_axis',(-1.,0.,0.));
#1606=DIRECTION('center_axis',(0.,0.,1.));
#1607=DIRECTION('ref_axis',(-1.,0.,0.));
#1608=DIRECTION('center_axis',(0.,0.,-1.));
#1609=DIRECTION('ref_axis',(-1.,0.,0.));
#1610=DIRECTION('',(0.,0.,-1.));
#1611=DIRECTION('center_axis',(-1.,0.,0.));
#1612=DIRECTION('ref_axis',(0.,-1.,0.));
#1613=DIRECTION('',(0.,0.,-1.));
#1614=DIRECTION('',(0.,-1.,0.));
#1615=DIRECTION('',(0.,0.,1.));
#1616=DIRECTION('',(0.,-1.,0.));
#1617=DIRECTION('center_axis',(0.,0.,1.));
#1618=DIRECTION('ref_axis',(1.,0.,0.));
#1619=DIRECTION('center_axis',(0.,0.,-1.));
#1620=DIRECTION('ref_axis',(1.,0.,0.));
#1621=DIRECTION('',(0.,0.,-1.));
#1622=DIRECTION('center_axis',(0.,0.,-1.));
#1623=DIRECTION('ref_axis',(1.,0.,0.));
#1624=DIRECTION('center_axis',(0.,0.,1.));
#1625=DIRECTION('ref_axis',(1.,0.,0.));
#1626=DIRECTION('center_axis',(0.,0.,-1.));
#1627=DIRECTION('ref_axis',(1.,0.,0.));
#1628=DIRECTION('',(0.,0.,-1.));
#1629=DIRECTION('center_axis',(0.,0.,-1.));
#1630=DIRECTION('ref_axis',(1.,0.,0.));
#1631=DIRECTION('center_axis',(1.,0.,0.));
#1632=DIRECTION('ref_axis',(0.,1.,0.));
#1633=DIRECTION('',(0.,1.,0.));
#1634=DIRECTION('',(0.,0.,-1.));
#1635=DIRECTION('',(0.,1.,0.));
#1636=DIRECTION('',(0.,-1.,0.));
#1637=DIRECTION('',(0.,0.,1.));
#1638=DIRECTION('',(0.,1.,0.));
#1639=DIRECTION('',(0.,0.,1.));
#1640=DIRECTION('center_axis',(-0.373466870857975,0.92764351793755,0.));
#1641=DIRECTION('ref_axis',(0.,0.,1.));
#1642=DIRECTION('',(0.,0.,1.));
#1643=DIRECTION('',(0.899309363833339,0.362059614010825,-0.245266190136365));
#1644=DIRECTION('center_axis',(-0.263117405792109,0.,-0.964763821237732));
#1645=DIRECTION('ref_axis',(-0.964763821237732,0.,0.263117405792109));
#1646=DIRECTION('',(0.,1.,0.));
#1647=DIRECTION('',(0.766520231491575,-0.607243300272547,-0.209050972224975));
#1648=DIRECTION('center_axis',(-0.620963650242331,-0.783839361781303,0.));
#1649=DIRECTION('ref_axis',(0.,0.,1.));
#1650=DIRECTION('',(0.,0.,-1.));
#1651=DIRECTION('center_axis',(0.,1.,0.));
#1652=DIRECTION('ref_axis',(0.,0.,1.));
#1653=DIRECTION('',(1.,0.,0.));
#1654=DIRECTION('',(-1.,0.,0.));
#1655=DIRECTION('center_axis',(0.,0.,1.));
#1656=DIRECTION('ref_axis',(1.,0.,0.));
#1657=DIRECTION('',(0.,-1.,0.));
#1658=DIRECTION('',(1.,0.,0.));
#1659=DIRECTION('',(-1.,0.,0.));
#1660=DIRECTION('center_axis',(0.,0.,-1.));
#1661=DIRECTION('ref_axis',(1.,0.,0.));
#1662=DIRECTION('center_axis',(0.,0.,1.));
#1663=DIRECTION('ref_axis',(1.,0.,0.));
#1664=DIRECTION('',(1.,0.,0.));
#1665=DIRECTION('',(0.,1.,0.));
#1666=DIRECTION('',(-1.,0.,0.));
#1667=DIRECTION('',(0.,1.,0.));
#1668=DIRECTION('',(1.,0.,0.));
#1669=DIRECTION('',(0.,-1.,0.));
#1670=DIRECTION('center_axis',(0.,0.,-1.));
#1671=DIRECTION('ref_axis',(1.,0.,0.));
#1672=DIRECTION('center_axis',(-1.,0.,0.));
#1673=DIRECTION('ref_axis',(0.,-1.,0.));
#1674=DIRECTION('',(0.,0.,-1.));
#1675=DIRECTION('center_axis',(0.,0.,1.));
#1676=DIRECTION('ref_axis',(1.,0.,0.));
#1677=DIRECTION('',(0.,0.,-1.));
#1678=DIRECTION('center_axis',(0.,0.,1.));
#1679=DIRECTION('ref_axis',(1.,0.,0.));
#1680=DIRECTION('',(1.,0.,0.));
#1681=DIRECTION('',(1.,0.,0.));
#1682=DIRECTION('center_axis',(0.,-1.,0.));
#1683=DIRECTION('ref_axis',(0.,0.,1.));
#1684=DIRECTION('',(0.,0.,-1.));
#1685=DIRECTION('',(1.,0.,0.));
#1686=DIRECTION('center_axis',(0.,1.,0.));
#1687=DIRECTION('ref_axis',(0.,0.,-1.));
#1688=DIRECTION('',(-1.,0.,0.));
#1689=DIRECTION('',(0.,0.,1.));
#1690=DIRECTION('',(0.,0.,1.));
#1691=DIRECTION('center_axis',(0.,1.,0.));
#1692=DIRECTION('ref_axis',(0.,0.,-1.));
#1693=DIRECTION('',(1.,0.,0.));
#1694=DIRECTION('',(0.,0.,1.));
#1695=DIRECTION('',(-1.,0.,0.));
#1696=DIRECTION('',(0.,0.,1.));
#1697=DIRECTION('center_axis',(0.,0.,-1.));
#1698=DIRECTION('ref_axis',(0.,1.,0.));
#1699=DIRECTION('',(0.,-1.,0.));
#1700=DIRECTION('',(0.,-1.,0.));
#1701=DIRECTION('',(1.,0.,0.));
#1702=DIRECTION('center_axis',(0.,1.,0.));
#1703=DIRECTION('ref_axis',(0.,0.,1.));
#1704=DIRECTION('',(0.,0.,1.));
#1705=DIRECTION('',(0.,0.,1.));
#1706=DIRECTION('',(1.,0.,0.));
#1707=DIRECTION('center_axis',(0.,0.,1.));
#1708=DIRECTION('ref_axis',(0.,-1.,0.));
#1709=DIRECTION('',(0.,1.,0.));
#1710=DIRECTION('',(0.,1.,0.));
#1711=DIRECTION('center_axis',(1.,0.,0.));
#1712=DIRECTION('ref_axis',(0.,1.,0.));
#1713=DIRECTION('',(0.,1.,0.));
#1714=DIRECTION('',(0.,0.,-1.));
#1715=DIRECTION('center_axis',(0.,-1.,0.));
#1716=DIRECTION('ref_axis',(0.,0.,-1.));
#1717=DIRECTION('',(1.,0.,0.));
#1718=DIRECTION('center_axis',(1.,0.,0.));
#1719=DIRECTION('ref_axis',(0.,1.,0.));
#1720=DIRECTION('',(0.,1.,0.));
#1721=DIRECTION('center_axis',(0.,-1.,0.));
#1722=DIRECTION('ref_axis',(0.,0.,-1.));
#1723=DIRECTION('center_axis',(0.,0.,1.));
#1724=DIRECTION('ref_axis',(1.,0.,0.));
#1725=DIRECTION('center_axis',(1.,0.,0.));
#1726=DIRECTION('ref_axis',(0.,0.,-1.));
#1727=DIRECTION('',(0.,0.,1.));
#1728=DIRECTION('',(0.,1.,0.));
#1729=DIRECTION('',(0.,0.,-1.));
#1730=DIRECTION('',(0.,-1.,0.));
#1731=DIRECTION('',(0.,0.,-1.));
#1732=DIRECTION('',(0.,1.,0.));
#1733=DIRECTION('',(0.,0.,1.));
#1734=DIRECTION('',(0.,-1.,0.));
#1735=DIRECTION('center_axis',(0.,0.,-1.));
#1736=DIRECTION('ref_axis',(0.,1.,0.));
#1737=DIRECTION('',(1.,0.,0.));
#1738=DIRECTION('',(0.,1.,0.));
#1739=DIRECTION('',(1.,0.,0.));
#1740=DIRECTION('center_axis',(0.,0.,1.));
#1741=DIRECTION('ref_axis',(1.,0.,0.));
#1742=DIRECTION('center_axis',(0.,-1.,0.));
#1743=DIRECTION('ref_axis',(0.,0.,-1.));
#1744=DIRECTION('',(1.,0.,0.));
#1745=DIRECTION('',(0.,0.,-1.));
#1746=DIRECTION('center_axis',(0.,-1.,0.));
#1747=DIRECTION('ref_axis',(0.,0.,1.));
#1748=DIRECTION('',(0.,0.,1.));
#1749=DIRECTION('',(1.,0.,0.));
#1750=DIRECTION('',(0.,0.,1.));
#1751=DIRECTION('',(-1.,0.,0.));
#1752=DIRECTION('center_axis',(0.,1.,0.));
#1753=DIRECTION('ref_axis',(0.,0.,1.));
#1754=DIRECTION('',(0.,0.,1.));
#1755=DIRECTION('',(1.,0.,0.));
#1756=DIRECTION('center_axis',(0.,0.,1.));
#1757=DIRECTION('ref_axis',(0.,-1.,0.));
#1758=DIRECTION('',(0.,-1.,0.));
#1759=DIRECTION('center_axis',(0.,0.,-1.));
#1760=DIRECTION('ref_axis',(1.,0.,0.));
#1761=DIRECTION('center_axis',(-1.,0.,0.));
#1762=DIRECTION('ref_axis',(0.,0.,1.));
#1763=DIRECTION('center_axis',(0.,0.,1.));
#1764=DIRECTION('ref_axis',(1.,0.,0.));
#1765=DIRECTION('',(0.,0.,-1.));
#1766=DIRECTION('center_axis',(0.,0.,1.));
#1767=DIRECTION('ref_axis',(1.,0.,0.));
#1768=DIRECTION('center_axis',(0.,0.,-1.));
#1769=DIRECTION('ref_axis',(1.,0.,0.));
#1770=DIRECTION('center_axis',(0.,0.,-1.));
#1771=DIRECTION('ref_axis',(1.,0.,0.));
#1772=DIRECTION('center_axis',(-0.373466870857975,0.,-0.92764351793755));
#1773=DIRECTION('ref_axis',(-0.92764351793755,0.,0.373466870857975));
#1774=DIRECTION('',(0.,-1.,0.));
#1775=DIRECTION('',(-0.869016928259941,0.349863958130626,0.349863958130626));
#1776=DIRECTION('',(-0.747502359587777,-0.592177193959148,0.300942508405469));
#1777=DIRECTION('center_axis',(-0.373466870857975,0.,-0.92764351793755));
#1778=DIRECTION('ref_axis',(0.92764351793755,0.,-0.373466870857975));
#1779=DIRECTION('center_axis',(0.,0.,-1.));
#1780=DIRECTION('ref_axis',(1.,0.,0.));
#1781=DIRECTION('',(0.,0.,1.));
#1782=DIRECTION('center_axis',(0.,0.,1.));
#1783=DIRECTION('ref_axis',(1.,0.,0.));
#1784=DIRECTION('center_axis',(-0.263117405792109,0.,0.964763821237732));
#1785=DIRECTION('ref_axis',(0.964763821237732,0.,0.263117405792109));
#1786=DIRECTION('',(0.,0.,-1.));
#1787=DIRECTION('center_axis',(0.,0.,1.));
#1788=DIRECTION('ref_axis',(1.,0.,0.));
#1789=DIRECTION('center_axis',(0.,0.,-1.));
#1790=DIRECTION('ref_axis',(1.,0.,0.));
#1791=DIRECTION('center_axis',(0.,0.,-1.));
#1792=DIRECTION('ref_axis',(1.,0.,0.));
#1793=DIRECTION('center_axis',(0.,0.,1.));
#1794=DIRECTION('ref_axis',(1.,0.,0.));
#1795=DIRECTION('',(0.,0.,-1.));
#1796=DIRECTION('center_axis',(-1.,0.,0.));
#1797=DIRECTION('ref_axis',(0.,-1.,0.));
#1798=DIRECTION('',(0.,0.,-1.));
#1799=DIRECTION('',(0.,-1.,0.));
#1800=DIRECTION('',(0.,0.,1.));
#1801=DIRECTION('',(0.,-1.,0.));
#1802=DIRECTION('center_axis',(0.,0.,-1.));
#1803=DIRECTION('ref_axis',(-1.,0.,0.));
#1804=DIRECTION('center_axis',(0.,0.,1.));
#1805=DIRECTION('ref_axis',(-1.,0.,0.));
#1806=DIRECTION('',(0.,0.,-1.));
#1807=DIRECTION('center_axis',(0.,0.,1.));
#1808=DIRECTION('ref_axis',(-1.,0.,0.));
#1809=DIRECTION('center_axis',(0.,0.,-1.));
#1810=DIRECTION('ref_axis',(-1.,0.,0.));
#1811=DIRECTION('center_axis',(0.,0.,1.));
#1812=DIRECTION('ref_axis',(-1.,0.,0.));
#1813=DIRECTION('',(0.,0.,-1.));
#1814=DIRECTION('center_axis',(0.,0.,1.));
#1815=DIRECTION('ref_axis',(-1.,0.,0.));
#1816=DIRECTION('center_axis',(1.,0.,0.));
#1817=DIRECTION('ref_axis',(0.,1.,0.));
#1818=DIRECTION('',(0.,1.,0.));
#1819=DIRECTION('',(0.,0.,1.));
#1820=DIRECTION('',(0.,1.,0.));
#1821=DIRECTION('',(0.,0.,1.));
#1822=DIRECTION('',(0.,-1.,0.));
#1823=DIRECTION('',(0.,1.,0.));
#1824=DIRECTION('',(0.,0.,-1.));
#1825=DIRECTION('center_axis',(-0.373466870857975,-0.92764351793755,0.));
#1826=DIRECTION('ref_axis',(0.,0.,1.));
#1827=DIRECTION('',(0.,0.,1.));
#1828=DIRECTION('',(-0.899309363833339,0.362059614010825,-0.245266190136365));
#1829=DIRECTION('center_axis',(-0.263117405792109,0.,0.964763821237732));
#1830=DIRECTION('ref_axis',(0.964763821237732,0.,0.263117405792109));
#1831=DIRECTION('',(0.,1.,0.));
#1832=DIRECTION('',(-0.766520231491575,-0.607243300272547,-0.209050972224975));
#1833=DIRECTION('center_axis',(-0.620963650242331,0.783839361781303,0.));
#1834=DIRECTION('ref_axis',(0.,0.,1.));
#1835=DIRECTION('',(0.,0.,-1.));
#1836=DIRECTION('center_axis',(0.,-1.,0.));
#1837=DIRECTION('ref_axis',(0.,0.,1.));
#1838=DIRECTION('',(1.,0.,0.));
#1839=DIRECTION('',(-1.,0.,0.));
#1840=DIRECTION('center_axis',(0.,0.,-1.));
#1841=DIRECTION('ref_axis',(-1.,0.,0.));
#1842=DIRECTION('',(1.,0.,0.));
#1843=DIRECTION('',(-1.,0.,0.));
#1844=DIRECTION('',(0.,-1.,0.));
#1845=DIRECTION('center_axis',(0.,0.,1.));
#1846=DIRECTION('ref_axis',(-1.,0.,0.));
#1847=DIRECTION('center_axis',(0.,0.,-1.));
#1848=DIRECTION('ref_axis',(-1.,0.,0.));
#1849=DIRECTION('',(-1.,0.,0.));
#1850=DIRECTION('',(0.,-1.,0.));
#1851=DIRECTION('',(-1.,0.,0.));
#1852=DIRECTION('',(0.,1.,0.));
#1853=DIRECTION('',(1.,0.,0.));
#1854=DIRECTION('',(0.,1.,0.));
#1855=DIRECTION('center_axis',(0.,0.,1.));
#1856=DIRECTION('ref_axis',(-1.,0.,0.));
#1857=DIRECTION('center_axis',(-1.,0.,0.));
#1858=DIRECTION('ref_axis',(0.,-1.,0.));
#1859=DIRECTION('',(0.,0.,-1.));
#1860=DIRECTION('center_axis',(0.,0.,-1.));
#1861=DIRECTION('ref_axis',(-1.,0.,0.));
#1862=DIRECTION('',(0.,0.,-1.));
#1863=DIRECTION('center_axis',(0.,0.,-1.));
#1864=DIRECTION('ref_axis',(-1.,0.,0.));
#1865=DIRECTION('',(-1.,0.,0.));
#1866=DIRECTION('',(-1.,0.,0.));
#1867=DIRECTION('center_axis',(0.,1.,0.));
#1868=DIRECTION('ref_axis',(0.,0.,1.));
#1869=DIRECTION('',(0.,0.,-1.));
#1870=DIRECTION('',(-1.,0.,0.));
#1871=DIRECTION('center_axis',(0.,-1.,0.));
#1872=DIRECTION('ref_axis',(0.,0.,-1.));
#1873=DIRECTION('',(1.,0.,0.));
#1874=DIRECTION('',(0.,0.,1.));
#1875=DIRECTION('',(0.,0.,1.));
#1876=DIRECTION('center_axis',(0.,-1.,0.));
#1877=DIRECTION('ref_axis',(0.,0.,-1.));
#1878=DIRECTION('',(-1.,0.,0.));
#1879=DIRECTION('',(0.,0.,1.));
#1880=DIRECTION('',(1.,0.,0.));
#1881=DIRECTION('',(0.,0.,1.));
#1882=DIRECTION('center_axis',(0.,0.,1.));
#1883=DIRECTION('ref_axis',(0.,1.,0.));
#1884=DIRECTION('',(0.,-1.,0.));
#1885=DIRECTION('',(-1.,0.,0.));
#1886=DIRECTION('',(0.,-1.,0.));
#1887=DIRECTION('center_axis',(0.,-1.,0.));
#1888=DIRECTION('ref_axis',(0.,0.,1.));
#1889=DIRECTION('',(0.,0.,1.));
#1890=DIRECTION('',(-1.,0.,0.));
#1891=DIRECTION('',(0.,0.,1.));
#1892=DIRECTION('center_axis',(0.,0.,-1.));
#1893=DIRECTION('ref_axis',(0.,-1.,0.));
#1894=DIRECTION('',(0.,1.,0.));
#1895=DIRECTION('',(0.,1.,0.));
#1896=DIRECTION('center_axis',(1.,0.,0.));
#1897=DIRECTION('ref_axis',(0.,1.,0.));
#1898=DIRECTION('',(0.,1.,0.));
#1899=DIRECTION('',(0.,0.,-1.));
#1900=DIRECTION('center_axis',(0.,1.,0.));
#1901=DIRECTION('ref_axis',(0.,0.,-1.));
#1902=DIRECTION('',(-1.,0.,0.));
#1903=DIRECTION('center_axis',(1.,0.,0.));
#1904=DIRECTION('ref_axis',(0.,1.,0.));
#1905=DIRECTION('',(0.,1.,0.));
#1906=DIRECTION('center_axis',(0.,1.,0.));
#1907=DIRECTION('ref_axis',(0.,0.,-1.));
#1908=DIRECTION('center_axis',(0.,0.,-1.));
#1909=DIRECTION('ref_axis',(-1.,0.,0.));
#1910=CARTESIAN_POINT('',(0.,0.,0.));
#1911=CARTESIAN_POINT('Origin',(-114.,2.,-15.));
#1912=CARTESIAN_POINT('',(-114.,-7.5,-24.5));
#1913=CARTESIAN_POINT('',(-114.,-7.5,-5.5));
#1914=CARTESIAN_POINT('',(-114.,-7.5,-24.5));
#1915=CARTESIAN_POINT('',(-114.,11.5,-24.5));
#1916=CARTESIAN_POINT('',(-114.,11.5,-24.5));
#1917=CARTESIAN_POINT('',(-114.,11.5,-5.5));
#1918=CARTESIAN_POINT('',(-114.,11.5,-5.5));
#1919=CARTESIAN_POINT('',(-114.,-7.5,-5.5));
#1920=CARTESIAN_POINT('',(-114.,9.75,-22.75));
#1921=CARTESIAN_POINT('',(-114.,9.75,-7.25));
#1922=CARTESIAN_POINT('',(-114.,9.75,-11.125));
#1923=CARTESIAN_POINT('',(-114.,-5.75,-22.75));
#1924=CARTESIAN_POINT('',(-114.,5.875,-22.75));
#1925=CARTESIAN_POINT('',(-114.,-5.75,-7.25));
#1926=CARTESIAN_POINT('',(-114.,-5.75,-18.875));
#1927=CARTESIAN_POINT('',(-114.,-1.875,-7.25));
#1928=CARTESIAN_POINT('Origin',(-113.,9.75,-22.75));
#1929=CARTESIAN_POINT('',(-148.,9.75,-22.75));
#1930=CARTESIAN_POINT('',(-113.,9.75,-22.75));
#1931=CARTESIAN_POINT('',(-148.,-5.75,-22.75));
#1932=CARTESIAN_POINT('',(-148.,9.75,-22.75));
#1933=CARTESIAN_POINT('',(-113.,-5.75,-22.75));
#1934=CARTESIAN_POINT('',(-131.000001974404,2.00079988079071,-22.75));
#1935=CARTESIAN_POINT('Origin',(-132.500001974404,2.00079988079071,-22.75));
#1936=CARTESIAN_POINT('Origin',(-113.,9.75,-7.25));
#1937=CARTESIAN_POINT('',(-148.,9.75,-7.25));
#1938=CARTESIAN_POINT('',(-113.,9.75,-7.25));
#1939=CARTESIAN_POINT('',(-148.,9.75,-7.25));
#1940=CARTESIAN_POINT('Origin',(-178.75,16.,-37.5));
#1941=CARTESIAN_POINT('',(-160.,16.,-40.));
#1942=CARTESIAN_POINT('',(-160.,16.,-35.));
#1943=CARTESIAN_POINT('',(-160.,16.,-36.25));
#1944=CARTESIAN_POINT('',(-200.,16.,-35.));
#1945=CARTESIAN_POINT('',(-179.375,16.,-35.));
#1946=CARTESIAN_POINT('',(-200.,16.,-40.));
#1947=CARTESIAN_POINT('',(-200.,16.,-38.75));
#1948=CARTESIAN_POINT('',(-179.375,16.,-40.));
#1949=CARTESIAN_POINT('Origin',(-113.,-5.75,-7.25));
#1950=CARTESIAN_POINT('',(-148.,-5.75,-7.25));
#1951=CARTESIAN_POINT('',(-113.,-5.75,-7.25));
#1952=CARTESIAN_POINT('',(-148.,-5.75,-7.25));
#1953=CARTESIAN_POINT('',(-131.000001974404,2.00079988079071,-7.25));
#1954=CARTESIAN_POINT('Origin',(-132.500001974404,2.00079988079071,-7.25));
#1955=CARTESIAN_POINT('Origin',(-113.,-5.75,-22.75));
#1956=CARTESIAN_POINT('',(-148.,-5.75,-22.75));
#1957=CARTESIAN_POINT('Origin',(-148.,2.,-15.));
#1958=CARTESIAN_POINT('Origin',(-132.500001974404,2.00079988079071,5.));
#1959=CARTESIAN_POINT('',(-131.000001974404,2.00079988079071,-30.));
#1960=CARTESIAN_POINT('',(-131.000001974404,2.00079988079071,5.));
#1961=CARTESIAN_POINT('Origin',(-132.500001974404,2.00079988079071,-30.));
#1962=CARTESIAN_POINT('Origin',(-132.500001974404,2.00079988079071,-30.));
#1963=CARTESIAN_POINT('',(-129.000001974404,2.00079988079071,-30.));
#1964=CARTESIAN_POINT('Origin',(-132.500001974404,2.00079988079071,-30.));
#1965=CARTESIAN_POINT('Origin',(-152.5,42.,-40.));
#1966=CARTESIAN_POINT('',(-152.5,42.,-40.));
#1967=CARTESIAN_POINT('',(-152.5,-23.,-40.));
#1968=CARTESIAN_POINT('',(-152.5,2.,-40.));
#1969=CARTESIAN_POINT('',(-152.5,42.,-40.));
#1970=CARTESIAN_POINT('',(-152.5,-23.,-40.));
#1971=CARTESIAN_POINT('',(-129.000001974404,2.00079988079071,-30.5389618338509));
#1972=CARTESIAN_POINT('Origin',(-132.500001974404,2.00079988079071,-31.9480527429418));
#1973=CARTESIAN_POINT('Origin',(-132.500001974404,2.00079988079071,-45.));
#1974=CARTESIAN_POINT('',(-129.000001974404,2.00079988079071,-45.));
#1975=CARTESIAN_POINT('Origin',(-132.500001974404,2.00079988079071,5.));
#1976=CARTESIAN_POINT('',(-129.000001974404,2.00079988079071,-1.40909037061713));
#1977=CARTESIAN_POINT('Origin',(-132.500001974404,2.00079988079071,-0.454544916071676));
#1978=CARTESIAN_POINT('',(-129.000001974404,2.00079988079071,-1.5));
#1979=CARTESIAN_POINT('',(-129.000001974404,2.00079988079071,5.));
#1980=CARTESIAN_POINT('Origin',(-132.500001974404,2.00079988079071,-1.5));
#1981=CARTESIAN_POINT('Origin',(-132.500001974404,2.00079988079071,-1.5));
#1982=CARTESIAN_POINT('',(-131.000001974404,2.00079988079071,-1.5));
#1983=CARTESIAN_POINT('Origin',(-132.500001974404,2.00079988079071,-1.5));
#1984=CARTESIAN_POINT('Origin',(-132.500001974404,2.00079988079071,5.));
#1985=CARTESIAN_POINT('',(-131.000001974404,2.00079988079071,5.));
#1986=CARTESIAN_POINT('Origin',(-200.,44.,0.));
#1987=CARTESIAN_POINT('',(-200.,42.,5.));
#1988=CARTESIAN_POINT('',(-200.,42.,0.));
#1989=CARTESIAN_POINT('',(-200.,42.,-17.5));
#1990=CARTESIAN_POINT('',(-200.,2.,0.));
#1991=CARTESIAN_POINT('',(-200.,44.,0.));
#1992=CARTESIAN_POINT('',(-200.,2.,5.));
#1993=CARTESIAN_POINT('',(-200.,2.,-7.5));
#1994=CARTESIAN_POINT('',(-200.,44.,5.));
#1995=CARTESIAN_POINT('Origin',(-190.4,32.,0.));
#1996=CARTESIAN_POINT('',(-192.9,32.,5.));
#1997=CARTESIAN_POINT('Origin',(-190.4,32.,5.));
#1998=CARTESIAN_POINT('',(-192.9,32.,0.));
#1999=CARTESIAN_POINT('',(-192.9,32.,0.));
#2000=CARTESIAN_POINT('Origin',(-190.4,32.,0.));
#2001=CARTESIAN_POINT('Origin',(-190.4,12.,0.));
#2002=CARTESIAN_POINT('',(-192.9,12.,5.));
#2003=CARTESIAN_POINT('Origin',(-190.4,12.,5.));
#2004=CARTESIAN_POINT('',(-192.9,12.,0.));
#2005=CARTESIAN_POINT('',(-192.9,12.,0.));
#2006=CARTESIAN_POINT('Origin',(-190.4,12.,0.));
#2007=CARTESIAN_POINT('Origin',(-160.,22.,-17.5));
#2008=CARTESIAN_POINT('',(-160.,2.,0.));
#2009=CARTESIAN_POINT('',(-160.,9.00000013411045,-1.34110451077696E-7));
#2010=CARTESIAN_POINT('',(-160.,22.,0.));
#2011=CARTESIAN_POINT('',(-160.,9.00000013411045,-35.0000005215406));
#2012=CARTESIAN_POINT('',(-160.,9.00000013411045,-26.2500002607703));
#2013=CARTESIAN_POINT('',(-160.,2.,-35.));
#2014=CARTESIAN_POINT('',(-160.,-23.,-40.));
#2015=CARTESIAN_POINT('',(-160.,12.,-40.));
#2016=CARTESIAN_POINT('',(-160.,-23.,5.));
#2017=CARTESIAN_POINT('',(-160.,-23.,-25.));
#2018=CARTESIAN_POINT('',(-160.,2.,5.));
#2019=CARTESIAN_POINT('',(-160.,42.,5.));
#2020=CARTESIAN_POINT('',(-160.,2.,-25.));
#2021=CARTESIAN_POINT('Origin',(-152.5,-23.,-40.));
#2022=CARTESIAN_POINT('',(-152.5,-23.,5.));
#2023=CARTESIAN_POINT('',(-152.5,-23.,-5.));
#2024=CARTESIAN_POINT('',(-152.5,-23.,5.));
#2025=CARTESIAN_POINT('Origin',(-152.5,-23.,5.));
#2026=CARTESIAN_POINT('',(-152.5,42.,5.));
#2027=CARTESIAN_POINT('',(-152.5,15.75,5.));
#2028=CARTESIAN_POINT('',(-152.5,42.,5.));
#2029=CARTESIAN_POINT('Origin',(-152.5,42.,5.));
#2030=CARTESIAN_POINT('',(-152.5,42.,-25.));
#2031=CARTESIAN_POINT('Origin',(-177.5,2.,-15.));
#2032=CARTESIAN_POINT('',(-178.75,2.,5.));
#2033=CARTESIAN_POINT('',(-178.75,2.,0.));
#2034=CARTESIAN_POINT('Origin',(-180.,22.,-40.));
#2035=CARTESIAN_POINT('',(-200.,42.,-40.));
#2036=CARTESIAN_POINT('',(-200.,44.,-40.));
#2037=CARTESIAN_POINT('',(-170.,42.,-40.));
#2038=CARTESIAN_POINT('',(-157.5,-23.,-40.));
#2039=CARTESIAN_POINT('',(-192.9,32.,-40.));
#2040=CARTESIAN_POINT('Origin',(-190.4,32.,-40.));
#2041=CARTESIAN_POINT('Origin',(-180.,22.,-35.));
#2042=CARTESIAN_POINT('',(-155.5,9.00000013411045,-35.0000005215406));
#2043=CARTESIAN_POINT('',(-157.5,9.00000013411045,-35.));
#2044=CARTESIAN_POINT('',(-155.5,22.,-35.0000005215406));
#2045=CARTESIAN_POINT('',(-155.5,2.,-35.));
#2046=CARTESIAN_POINT('',(-160.,22.,-35.0000005215406));
#2047=CARTESIAN_POINT('',(-157.5,22.,-35.));
#2048=CARTESIAN_POINT('',(-160.,42.,-35.));
#2049=CARTESIAN_POINT('',(-160.,0.,-35.));
#2050=CARTESIAN_POINT('',(-200.,42.,-35.));
#2051=CARTESIAN_POINT('',(-155.5,42.,-35.));
#2052=CARTESIAN_POINT('',(-200.,44.,-35.));
#2053=CARTESIAN_POINT('',(-192.9,32.,-35.));
#2054=CARTESIAN_POINT('Origin',(-190.4,32.,-35.));
#2055=CARTESIAN_POINT('Origin',(-200.,44.,-40.));
#2056=CARTESIAN_POINT('',(-200.,42.,-57.5));
#2057=CARTESIAN_POINT('Origin',(-190.4,32.,-40.));
#2058=CARTESIAN_POINT('',(-192.9,32.,-40.));
#2059=CARTESIAN_POINT('Origin',(-180.,22.,5.));
#2060=CARTESIAN_POINT('',(-152.5,-23.,5.));
#2061=CARTESIAN_POINT('',(-155.5,42.,5.));
#2062=CARTESIAN_POINT('Origin',(-155.,9.00000013411045,-35.0000005215406));
#2063=CARTESIAN_POINT('',(-155.5,9.00000013411045,-1.34110451077696E-7));
#2064=CARTESIAN_POINT('',(-155.5,9.00000013411045,-27.1000004246831));
#2065=CARTESIAN_POINT('',(-155.,9.00000013411045,-1.34110451077696E-7));
#2066=CARTESIAN_POINT('Origin',(-155.,22.,-3.40000013411045));
#2067=CARTESIAN_POINT('',(-155.5,22.,-22.75));
#2068=CARTESIAN_POINT('',(-160.,22.,-22.75));
#2069=CARTESIAN_POINT('',(-144.,22.,-22.75));
#2070=CARTESIAN_POINT('',(-160.,22.,-10.4500000670552));
#2071=CARTESIAN_POINT('',(-155.5,22.,-11.300000230968));
#2072=CARTESIAN_POINT('Origin',(-155.,22.,-3.40000013411045));
#2073=CARTESIAN_POINT('',(-160.,22.,-7.25));
#2074=CARTESIAN_POINT('',(-155.5,22.,-7.25));
#2075=CARTESIAN_POINT('',(-144.,22.,-7.25));
#2076=CARTESIAN_POINT('',(-155.5,22.,-1.34110451077696E-7));
#2077=CARTESIAN_POINT('',(-155.5,22.,-3.40000013411045));
#2078=CARTESIAN_POINT('',(-160.,22.,-1.34110451077696E-7));
#2079=CARTESIAN_POINT('',(-155.,22.,-1.34110451077696E-7));
#2080=CARTESIAN_POINT('',(-160.,22.,-10.4500000670552));
#2081=CARTESIAN_POINT('Origin',(-133.,14.5,-7.25));
#2082=CARTESIAN_POINT('',(-155.5,29.75,-7.25));
#2083=CARTESIAN_POINT('',(-155.5,18.25,-7.25));
#2084=CARTESIAN_POINT('',(-160.,29.75,-7.25));
#2085=CARTESIAN_POINT('',(-160.,25.75,-7.25));
#2086=CARTESIAN_POINT('',(-133.,29.75,-7.25));
#2087=CARTESIAN_POINT('Origin',(-133.,29.75,-7.5));
#2088=CARTESIAN_POINT('',(-155.5,29.75,-22.75));
#2089=CARTESIAN_POINT('',(-155.5,29.75,-11.25));
#2090=CARTESIAN_POINT('',(-160.,29.75,-22.75));
#2091=CARTESIAN_POINT('',(-160.,29.75,-20.));
#2092=CARTESIAN_POINT('',(-133.,29.75,-22.75));
#2093=CARTESIAN_POINT('Origin',(-133.,29.5,-22.75));
#2094=CARTESIAN_POINT('',(-155.5,25.75,-22.75));
#2095=CARTESIAN_POINT('',(-160.,25.75,-22.75));
#2096=CARTESIAN_POINT('Origin',(-160.,22.,-17.5));
#2097=CARTESIAN_POINT('',(-160.,42.,0.));
#2098=CARTESIAN_POINT('',(-160.,22.,0.));
#2099=CARTESIAN_POINT('',(-160.,42.,-25.0000001303852));
#2100=CARTESIAN_POINT('Origin',(-160.,42.,-35.));
#2101=CARTESIAN_POINT('',(-170.,42.,0.));
#2102=CARTESIAN_POINT('Origin',(-155.5,22.,-15.));
#2103=CARTESIAN_POINT('',(-155.5,12.2500001005828,-1.34110451077696E-7));
#2104=CARTESIAN_POINT('Origin',(-152.5,-23.,5.));
#2105=CARTESIAN_POINT('Origin',(-180.,22.,0.));
#2106=CARTESIAN_POINT('Origin',(-92.,2.,-15.));
#2107=CARTESIAN_POINT('',(-92.,-7.5,-24.5));
#2108=CARTESIAN_POINT('',(-92.,-7.5,-5.5));
#2109=CARTESIAN_POINT('',(-92.,-7.5,-24.5));
#2110=CARTESIAN_POINT('',(-92.,11.5,-5.5));
#2111=CARTESIAN_POINT('',(-92.,-7.5,-5.5));
#2112=CARTESIAN_POINT('',(-92.,11.5,-24.5));
#2113=CARTESIAN_POINT('',(-92.,11.5,-5.5));
#2114=CARTESIAN_POINT('',(-92.,11.5,-24.5));
#2115=CARTESIAN_POINT('',(-92.,9.75,-7.25));
#2116=CARTESIAN_POINT('',(-92.,9.75,-22.75));
#2117=CARTESIAN_POINT('',(-92.,9.75,-11.125));
#2118=CARTESIAN_POINT('',(-92.,-5.75,-7.25));
#2119=CARTESIAN_POINT('',(-92.,-1.875,-7.25));
#2120=CARTESIAN_POINT('',(-92.,-5.75,-22.75));
#2121=CARTESIAN_POINT('',(-92.,-5.75,-18.875));
#2122=CARTESIAN_POINT('',(-92.,5.875,-22.75));
#2123=CARTESIAN_POINT('Origin',(-93.,-5.75,-7.25));
#2124=CARTESIAN_POINT('',(-58.,9.75,-7.25));
#2125=CARTESIAN_POINT('',(-93.,9.75,-7.25));
#2126=CARTESIAN_POINT('',(-58.,-5.75,-7.25));
#2127=CARTESIAN_POINT('',(-58.,-5.75,-7.25));
#2128=CARTESIAN_POINT('',(-93.,-5.75,-7.25));
#2129=CARTESIAN_POINT('',(-74.9999980255962,2.00079988079071,-7.25));
#2130=CARTESIAN_POINT('Origin',(-73.4999980255962,2.00079988079071,-7.25));
#2131=CARTESIAN_POINT('Origin',(-93.,9.75,-7.25));
#2132=CARTESIAN_POINT('',(-58.,9.75,-22.75));
#2133=CARTESIAN_POINT('',(-93.,9.75,-22.75));
#2134=CARTESIAN_POINT('',(-58.,9.75,-7.25));
#2135=CARTESIAN_POINT('Origin',(-27.25,16.,-37.5));
#2136=CARTESIAN_POINT('',(-46.,16.,-40.));
#2137=CARTESIAN_POINT('',(-46.,16.,-35.));
#2138=CARTESIAN_POINT('',(-46.,16.,-36.25));
#2139=CARTESIAN_POINT('',(-6.00000000000001,16.,-40.));
#2140=CARTESIAN_POINT('',(-26.625,16.,-40.));
#2141=CARTESIAN_POINT('',(-6.00000000000001,16.,-35.));
#2142=CARTESIAN_POINT('',(-6.00000000000001,16.,-38.75));
#2143=CARTESIAN_POINT('',(-26.625,16.,-35.));
#2144=CARTESIAN_POINT('Origin',(-93.,-5.75,-22.75));
#2145=CARTESIAN_POINT('',(-58.,-5.75,-22.75));
#2146=CARTESIAN_POINT('',(-58.,-5.75,-22.75));
#2147=CARTESIAN_POINT('',(-93.,-5.75,-22.75));
#2148=CARTESIAN_POINT('Origin',(-93.,9.75,-22.75));
#2149=CARTESIAN_POINT('',(-58.,9.75,-22.75));
#2150=CARTESIAN_POINT('',(-74.9999980255962,2.00079988079071,-22.75));
#2151=CARTESIAN_POINT('Origin',(-73.4999980255962,2.00079988079071,-22.75));
#2152=CARTESIAN_POINT('Origin',(-58.,2.,-15.));
#2153=CARTESIAN_POINT('Origin',(-73.4999980255962,2.00079988079071,5.));
#2154=CARTESIAN_POINT('',(-74.9999980255962,2.00079988079071,-30.));
#2155=CARTESIAN_POINT('',(-74.9999980255962,2.00079988079071,5.));
#2156=CARTESIAN_POINT('Origin',(-73.4999980255962,2.00079988079071,-30.));
#2157=CARTESIAN_POINT('Origin',(-73.4999980255962,2.00079988079071,-30.));
#2158=CARTESIAN_POINT('',(-76.9999980255962,2.00079988079071,-30.));
#2159=CARTESIAN_POINT('Origin',(-73.4999980255962,2.00079988079071,-30.));
#2160=CARTESIAN_POINT('Origin',(-53.5,42.,-40.));
#2161=CARTESIAN_POINT('',(-53.5,42.,-40.));
#2162=CARTESIAN_POINT('',(-53.5,-23.,-40.));
#2163=CARTESIAN_POINT('',(-53.5,2.,-40.));
#2164=CARTESIAN_POINT('',(-53.5,-23.,-40.));
#2165=CARTESIAN_POINT('',(-53.5,42.,-40.));
#2166=CARTESIAN_POINT('',(-76.9999980255962,2.00079988079071,-30.5389618338509));
#2167=CARTESIAN_POINT('Origin',(-73.4999980255962,2.00079988079071,-31.9480527429418));
#2168=CARTESIAN_POINT('Origin',(-73.4999980255962,2.00079988079071,-45.));
#2169=CARTESIAN_POINT('',(-76.9999980255962,2.00079988079071,-45.));
#2170=CARTESIAN_POINT('Origin',(-73.4999980255962,2.00079988079071,5.));
#2171=CARTESIAN_POINT('',(-76.9999980255962,2.00079988079071,-1.40909037061713));
#2172=CARTESIAN_POINT('Origin',(-73.4999980255962,2.00079988079071,-0.454544916071676));
#2173=CARTESIAN_POINT('',(-76.9999980255962,2.00079988079071,-1.5));
#2174=CARTESIAN_POINT('',(-76.9999980255962,2.00079988079071,5.));
#2175=CARTESIAN_POINT('Origin',(-73.4999980255962,2.00079988079071,-1.5));
#2176=CARTESIAN_POINT('Origin',(-73.4999980255962,2.00079988079071,-1.5));
#2177=CARTESIAN_POINT('',(-74.9999980255962,2.00079988079071,-1.5));
#2178=CARTESIAN_POINT('Origin',(-73.4999980255962,2.00079988079071,-1.5));
#2179=CARTESIAN_POINT('Origin',(-73.4999980255962,2.00079988079071,5.));
#2180=CARTESIAN_POINT('',(-74.9999980255962,2.00079988079071,5.));
#2181=CARTESIAN_POINT('Origin',(-6.00000000000001,44.,0.));
#2182=CARTESIAN_POINT('',(-6.00000000000001,42.,5.));
#2183=CARTESIAN_POINT('',(-6.00000000000001,42.,0.));
#2184=CARTESIAN_POINT('',(-6.00000000000001,42.,-17.5));
#2185=CARTESIAN_POINT('',(-6.00000000000001,2.,5.));
#2186=CARTESIAN_POINT('',(-6.00000000000001,44.,5.));
#2187=CARTESIAN_POINT('',(-6.00000000000001,2.,0.));
#2188=CARTESIAN_POINT('',(-6.00000000000001,2.,-7.5));
#2189=CARTESIAN_POINT('',(-6.00000000000001,44.,0.));
#2190=CARTESIAN_POINT('Origin',(-15.6,32.,0.));
#2191=CARTESIAN_POINT('',(-13.1,32.,5.));
#2192=CARTESIAN_POINT('Origin',(-15.6,32.,5.));
#2193=CARTESIAN_POINT('',(-13.1,32.,0.));
#2194=CARTESIAN_POINT('',(-13.1,32.,0.));
#2195=CARTESIAN_POINT('Origin',(-15.6,32.,0.));
#2196=CARTESIAN_POINT('Origin',(-15.6,12.,0.));
#2197=CARTESIAN_POINT('',(-13.1,12.,5.));
#2198=CARTESIAN_POINT('Origin',(-15.6,12.,5.));
#2199=CARTESIAN_POINT('',(-13.1,12.,0.));
#2200=CARTESIAN_POINT('',(-13.1,12.,0.));
#2201=CARTESIAN_POINT('Origin',(-15.6,12.,0.));
#2202=CARTESIAN_POINT('Origin',(-46.,22.,-17.5));
#2203=CARTESIAN_POINT('',(-46.,2.,0.));
#2204=CARTESIAN_POINT('',(-46.,9.00000013411045,-1.34110451077696E-7));
#2205=CARTESIAN_POINT('',(-46.,22.,0.));
#2206=CARTESIAN_POINT('',(-46.,2.,5.));
#2207=CARTESIAN_POINT('',(-46.,2.,-25.));
#2208=CARTESIAN_POINT('',(-46.,-23.,5.));
#2209=CARTESIAN_POINT('',(-46.,42.,5.));
#2210=CARTESIAN_POINT('',(-46.,-23.,-40.));
#2211=CARTESIAN_POINT('',(-46.,-23.,-25.));
#2212=CARTESIAN_POINT('',(-46.,12.,-40.));
#2213=CARTESIAN_POINT('',(-46.,9.00000013411045,-35.0000005215406));
#2214=CARTESIAN_POINT('',(-46.,2.,-35.));
#2215=CARTESIAN_POINT('',(-46.,9.00000013411045,-26.2500002607703));
#2216=CARTESIAN_POINT('Origin',(-53.5,-23.,-40.));
#2217=CARTESIAN_POINT('',(-53.5,-23.,5.));
#2218=CARTESIAN_POINT('',(-53.5,-23.,-5.));
#2219=CARTESIAN_POINT('',(-53.5,-23.,5.));
#2220=CARTESIAN_POINT('Origin',(-53.5,-23.,5.));
#2221=CARTESIAN_POINT('',(-53.5,42.,5.));
#2222=CARTESIAN_POINT('',(-53.5,15.75,5.));
#2223=CARTESIAN_POINT('',(-53.5,42.,5.));
#2224=CARTESIAN_POINT('Origin',(-53.5,42.,5.));
#2225=CARTESIAN_POINT('',(-53.5,42.,-25.));
#2226=CARTESIAN_POINT('Origin',(-28.5,2.,-15.));
#2227=CARTESIAN_POINT('',(-27.25,2.,0.));
#2228=CARTESIAN_POINT('',(-27.25,2.,5.));
#2229=CARTESIAN_POINT('Origin',(-26.,22.,-40.));
#2230=CARTESIAN_POINT('',(-48.5,-23.,-40.));
#2231=CARTESIAN_POINT('',(-6.00000000000001,42.,-40.));
#2232=CARTESIAN_POINT('',(-36.,42.,-40.));
#2233=CARTESIAN_POINT('',(-6.00000000000001,44.,-40.));
#2234=CARTESIAN_POINT('',(-13.1,32.,-40.));
#2235=CARTESIAN_POINT('Origin',(-15.6,32.,-40.));
#2236=CARTESIAN_POINT('Origin',(-26.,22.,-35.));
#2237=CARTESIAN_POINT('',(-50.5,9.00000013411045,-35.0000005215406));
#2238=CARTESIAN_POINT('',(-48.5,9.00000013411045,-35.));
#2239=CARTESIAN_POINT('',(-6.00000000000001,42.,-35.));
#2240=CARTESIAN_POINT('',(-6.00000000000001,44.,-35.));
#2241=CARTESIAN_POINT('',(-46.,42.,-35.));
#2242=CARTESIAN_POINT('',(-50.5,42.,-35.));
#2243=CARTESIAN_POINT('',(-46.,22.,-35.0000005215406));
#2244=CARTESIAN_POINT('',(-46.,0.,-35.));
#2245=CARTESIAN_POINT('',(-50.5,22.,-35.0000005215406));
#2246=CARTESIAN_POINT('',(-48.5,22.,-35.));
#2247=CARTESIAN_POINT('',(-50.5,2.,-35.));
#2248=CARTESIAN_POINT('',(-13.1,32.,-35.));
#2249=CARTESIAN_POINT('Origin',(-15.6,32.,-35.));
#2250=CARTESIAN_POINT('Origin',(-6.00000000000001,44.,-40.));
#2251=CARTESIAN_POINT('',(-6.00000000000001,42.,-57.5));
#2252=CARTESIAN_POINT('Origin',(-15.6,32.,-40.));
#2253=CARTESIAN_POINT('',(-13.1,32.,-40.));
#2254=CARTESIAN_POINT('Origin',(-26.,22.,5.));
#2255=CARTESIAN_POINT('',(-50.5,42.,5.));
#2256=CARTESIAN_POINT('',(-53.5,-23.,5.));
#2257=CARTESIAN_POINT('Origin',(-51.,9.00000013411045,-35.0000005215406));
#2258=CARTESIAN_POINT('',(-50.5,9.00000013411045,-1.34110451077696E-7));
#2259=CARTESIAN_POINT('',(-50.5,9.00000013411045,-27.1000004246831));
#2260=CARTESIAN_POINT('',(-51.,9.00000013411045,-1.34110451077696E-7));
#2261=CARTESIAN_POINT('Origin',(-51.,22.,-3.40000013411045));
#2262=CARTESIAN_POINT('',(-50.5,22.,-22.75));
#2263=CARTESIAN_POINT('',(-46.,22.,-22.75));
#2264=CARTESIAN_POINT('',(-62.,22.,-22.75));
#2265=CARTESIAN_POINT('',(-50.5,22.,-11.300000230968));
#2266=CARTESIAN_POINT('',(-46.,22.,-10.4500000670552));
#2267=CARTESIAN_POINT('Origin',(-51.,22.,-3.40000013411045));
#2268=CARTESIAN_POINT('',(-46.,22.,-7.25));
#2269=CARTESIAN_POINT('',(-50.5,22.,-7.25));
#2270=CARTESIAN_POINT('',(-62.,22.,-7.25));
#2271=CARTESIAN_POINT('',(-46.,22.,-1.34110451077696E-7));
#2272=CARTESIAN_POINT('',(-46.,22.,-10.4500000670552));
#2273=CARTESIAN_POINT('',(-50.5,22.,-1.34110451077696E-7));
#2274=CARTESIAN_POINT('',(-51.,22.,-1.34110451077696E-7));
#2275=CARTESIAN_POINT('',(-50.5,22.,-3.40000013411045));
#2276=CARTESIAN_POINT('Origin',(-73.,14.5,-7.25));
#2277=CARTESIAN_POINT('',(-50.5,29.75,-7.25));
#2278=CARTESIAN_POINT('',(-50.5,18.25,-7.25));
#2279=CARTESIAN_POINT('',(-46.,29.75,-7.25));
#2280=CARTESIAN_POINT('',(-73.,29.75,-7.25));
#2281=CARTESIAN_POINT('',(-46.,25.75,-7.25));
#2282=CARTESIAN_POINT('Origin',(-73.,29.75,-7.5));
#2283=CARTESIAN_POINT('',(-50.5,29.75,-22.75));
#2284=CARTESIAN_POINT('',(-50.5,29.75,-11.25));
#2285=CARTESIAN_POINT('',(-46.,29.75,-22.75));
#2286=CARTESIAN_POINT('',(-73.,29.75,-22.75));
#2287=CARTESIAN_POINT('',(-46.,29.75,-20.));
#2288=CARTESIAN_POINT('Origin',(-73.,29.5,-22.75));
#2289=CARTESIAN_POINT('',(-50.5,25.75,-22.75));
#2290=CARTESIAN_POINT('',(-46.,25.75,-22.75));
#2291=CARTESIAN_POINT('Origin',(-46.,22.,-17.5));
#2292=CARTESIAN_POINT('',(-46.,42.,0.));
#2293=CARTESIAN_POINT('',(-46.,22.,0.));
#2294=CARTESIAN_POINT('',(-46.,42.,-25.0000001303852));
#2295=CARTESIAN_POINT('Origin',(-46.,42.,-35.));
#2296=CARTESIAN_POINT('',(-36.,42.,0.));
#2297=CARTESIAN_POINT('Origin',(-50.5,22.,-15.));
#2298=CARTESIAN_POINT('',(-50.5,12.2500001005828,-1.34110451077696E-7));
#2299=CARTESIAN_POINT('Origin',(-53.5,-23.,5.));
#2300=CARTESIAN_POINT('Origin',(-26.,22.,0.));
#2301=UNCERTAINTY_MEASURE_WITH_UNIT(LENGTH_MEASURE(0.01),#2305,
'DISTANCE_ACCURACY_VALUE',
'Maximum model space distance between geometric entities at asserted c
onnectivities');
#2302=UNCERTAINTY_MEASURE_WITH_UNIT(LENGTH_MEASURE(0.01),#2305,
'DISTANCE_ACCURACY_VALUE',
'Maximum model space distance between geometric entities at asserted c
onnectivities');
#2303=(
GEOMETRIC_REPRESENTATION_CONTEXT(3)
GLOBAL_UNCERTAINTY_ASSIGNED_CONTEXT((#2301))
GLOBAL_UNIT_ASSIGNED_CONTEXT((#2305,#2307,#2308))
REPRESENTATION_CONTEXT('','3D')
);
#2304=(
GEOMETRIC_REPRESENTATION_CONTEXT(3)
GLOBAL_UNCERTAINTY_ASSIGNED_CONTEXT((#2302))
GLOBAL_UNIT_ASSIGNED_CONTEXT((#2305,#2307,#2308))
REPRESENTATION_CONTEXT('','3D')
);
#2305=(
LENGTH_UNIT()
NAMED_UNIT(*)
SI_UNIT(.MILLI.,.METRE.)
);
#2306=(
LENGTH_UNIT()
NAMED_UNIT(*)
SI_UNIT($,.METRE.)
);
#2307=(
NAMED_UNIT(*)
PLANE_ANGLE_UNIT()
SI_UNIT($,.RADIAN.)
);
#2308=(
NAMED_UNIT(*)
SI_UNIT($,.STERADIAN.)
SOLID_ANGLE_UNIT()
);
#2309=SHAPE_DEFINITION_REPRESENTATION(#2310,#2311);
#2310=PRODUCT_DEFINITION_SHAPE('',$,#2313);
#2311=SHAPE_REPRESENTATION('',(#1433),#2303);
#2312=PRODUCT_DEFINITION_CONTEXT('part definition',#2317,'design');
#2313=PRODUCT_DEFINITION('SV08max 1515 holder rev4',
'SV08max 1515 holder rev4 v1',#2314,#2312);
#2314=PRODUCT_DEFINITION_FORMATION('',$,#2319);
#2315=PRODUCT_RELATED_PRODUCT_CATEGORY('SV08max 1515 holder rev4 v1',
'SV08max 1515 holder rev4 v1',(#2319));
#2316=APPLICATION_PROTOCOL_DEFINITION('international standard',
'automotive_design',2009,#2317);
#2317=APPLICATION_CONTEXT(
'Core Data for Automotive Mechanical Design Process');
#2318=PRODUCT_CONTEXT('part definition',#2317,'mechanical');
#2319=PRODUCT('SV08max 1515 holder rev4','SV08max 1515 holder rev4 v1',
$,(#2318));
#2320=PRESENTATION_STYLE_ASSIGNMENT((#2321));
#2321=SURFACE_STYLE_USAGE(.BOTH.,#2322);
#2322=SURFACE_SIDE_STYLE('',(#2323));
#2323=SURFACE_STYLE_FILL_AREA(#2324);
#2324=FILL_AREA_STYLE(
'HP 3D HR CB PA 12 (mit 3D-Drucker HP Jet Fusion 580 Color)',(#2325));
#2325=FILL_AREA_STYLE_COLOUR(
'HP 3D HR CB PA 12 (mit 3D-Drucker HP Jet Fusion 580 Color)',#2326);
#2326=COLOUR_RGB(
'HP 3D HR CB PA 12 (mit 3D-Drucker HP Jet Fusion 580 Color)',0.964705882352941,
0.964705882352941,0.952941176470588);
ENDSEC;
END-ISO-10303-21;
