ISO-10303-21;
HEADER;
/* Generated by software containing ST-Developer
 * from STEP Tools, Inc. (www.steptools.com) 
 */

FILE_DESCRIPTION(
/* description */ (''),
/* implementation_level */ '2;1');

FILE_NAME(
/* name */ 'SV08max 1515 holder rev7.step',
/* time_stamp */ '2026-08-03T13:59:15+02:00',
/* author */ (''),
/* organization */ (''),
/* preprocessor_version */ 'ST-DEVELOPER v20.1',
/* originating_system */ 'Autodesk Translation Framework v15.8.0.0',
/* authorisation */ '');

FILE_SCHEMA (('AUTOMOTIVE_DESIGN { 1 0 10303 214 3 1 1 }'));
ENDSEC;

DATA;
#10=MECHANICAL_DESIGN_GEOMETRIC_PRESENTATION_REPRESENTATION('',(#13,#14),
#1734);
#11=SHAPE_REPRESENTATION_RELATIONSHIP('SRR','None',#1741,#12);
#12=ADVANCED_BREP_SHAPE_REPRESENTATION('',(#15,#16),#1733);
#13=STYLED_ITEM('',(#1750),#15);
#14=STYLED_ITEM('',(#1750),#16);
#15=MANIFOLD_SOLID_BREP('K\X\F6rper5',#1035);
#16=MANIFOLD_SOLID_BREP('K\X\F6rper13',#1036);
#17=B_SPLINE_CURVE_WITH_KNOTS('',3,(#1544,#1545,#1546,#1547,#1548,#1549,
#1550),.UNSPECIFIED.,.F.,.F.,(4,3,4),(-0.135408931330442,-0.0666904464207526,
0.),.UNSPECIFIED.);
#18=B_SPLINE_CURVE_WITH_KNOTS('',3,(#1626,#1627,#1628,#1629,#1630,#1631,
#1632),.UNSPECIFIED.,.F.,.F.,(4,3,4),(-0.135408619740653,-0.068654902072498,
0.),.UNSPECIFIED.);
#19=B_SPLINE_SURFACE_WITH_KNOTS('',3,3,((#1528,#1529,#1530,#1531),(#1532,
#1533,#1534,#1535),(#1536,#1537,#1538,#1539),(#1540,#1541,#1542,#1543)),
 .UNSPECIFIED.,.F.,.F.,.F.,(4,4),(4,4),(0.,1.),(0.978354539463679,1.),
 .UNSPECIFIED.);
#20=B_SPLINE_SURFACE_WITH_KNOTS('',3,3,((#1609,#1610,#1611,#1612),(#1613,
#1614,#1615,#1616),(#1617,#1618,#1619,#1620),(#1621,#1622,#1623,#1624)),
 .UNSPECIFIED.,.F.,.F.,.F.,(4,4),(4,4),(0.,1.),(0.978354539463678,1.),
 .UNSPECIFIED.);
#21=CYLINDRICAL_SURFACE('',#1060,1.5);
#22=CYLINDRICAL_SURFACE('',#1065,3.5);
#23=CYLINDRICAL_SURFACE('',#1066,3.5);
#24=CYLINDRICAL_SURFACE('',#1072,1.5);
#25=CYLINDRICAL_SURFACE('',#1085,2.5);
#26=CYLINDRICAL_SURFACE('',#1087,2.5);
#27=CYLINDRICAL_SURFACE('',#1099,1.5);
#28=CYLINDRICAL_SURFACE('',#1104,3.5);
#29=CYLINDRICAL_SURFACE('',#1105,3.5);
#30=CYLINDRICAL_SURFACE('',#1111,1.5);
#31=CYLINDRICAL_SURFACE('',#1129,2.5);
#32=CYLINDRICAL_SURFACE('',#1130,2.5);
#33=ELLIPSE('',#1058,3.62783089804271,3.5);
#34=ELLIPSE('',#1067,3.77300108535402,3.5);
#35=ELLIPSE('',#1097,3.62783089804271,3.5);
#36=ELLIPSE('',#1106,3.77300108535402,3.5);
#37=FACE_BOUND('',#139,.T.);
#38=FACE_BOUND('',#140,.T.);
#39=FACE_BOUND('',#145,.T.);
#40=FACE_BOUND('',#149,.T.);
#41=FACE_BOUND('',#153,.T.);
#42=FACE_BOUND('',#155,.T.);
#43=FACE_BOUND('',#159,.T.);
#44=FACE_BOUND('',#162,.T.);
#45=FACE_BOUND('',#175,.T.);
#46=FACE_BOUND('',#176,.T.);
#47=FACE_BOUND('',#184,.T.);
#48=FACE_BOUND('',#188,.T.);
#49=FACE_BOUND('',#192,.T.);
#50=FACE_BOUND('',#194,.T.);
#51=FACE_BOUND('',#198,.T.);
#52=FACE_BOUND('',#201,.T.);
#53=FACE_BOUND('',#208,.T.);
#54=FACE_BOUND('',#209,.T.);
#55=FACE_BOUND('',#211,.T.);
#56=FACE_BOUND('',#212,.T.);
#57=CIRCLE('',#1052,2.5);
#58=CIRCLE('',#1053,2.5);
#59=CIRCLE('',#1061,1.5);
#60=CIRCLE('',#1062,1.5);
#61=CIRCLE('',#1064,3.5);
#62=CIRCLE('',#1068,3.5);
#63=CIRCLE('',#1071,1.5);
#64=CIRCLE('',#1073,1.5);
#65=CIRCLE('',#1086,2.5);
#66=CIRCLE('',#1088,2.5);
#67=CIRCLE('',#1100,1.5);
#68=CIRCLE('',#1101,1.5);
#69=CIRCLE('',#1103,3.5);
#70=CIRCLE('',#1107,3.5);
#71=CIRCLE('',#1110,1.5);
#72=CIRCLE('',#1112,1.5);
#73=CIRCLE('',#1123,2.5);
#74=CIRCLE('',#1124,2.5);
#75=CIRCLE('',#1126,2.5);
#76=CIRCLE('',#1127,2.5);
#77=FACE_OUTER_BOUND('',#137,.T.);
#78=FACE_OUTER_BOUND('',#138,.T.);
#79=FACE_OUTER_BOUND('',#141,.T.);
#80=FACE_OUTER_BOUND('',#142,.T.);
#81=FACE_OUTER_BOUND('',#143,.T.);
#82=FACE_OUTER_BOUND('',#144,.T.);
#83=FACE_OUTER_BOUND('',#146,.T.);
#84=FACE_OUTER_BOUND('',#147,.T.);
#85=FACE_OUTER_BOUND('',#148,.T.);
#86=FACE_OUTER_BOUND('',#150,.T.);
#87=FACE_OUTER_BOUND('',#151,.T.);
#88=FACE_OUTER_BOUND('',#152,.T.);
#89=FACE_OUTER_BOUND('',#154,.T.);
#90=FACE_OUTER_BOUND('',#156,.T.);
#91=FACE_OUTER_BOUND('',#157,.T.);
#92=FACE_OUTER_BOUND('',#158,.T.);
#93=FACE_OUTER_BOUND('',#160,.T.);
#94=FACE_OUTER_BOUND('',#161,.T.);
#95=FACE_OUTER_BOUND('',#163,.T.);
#96=FACE_OUTER_BOUND('',#164,.T.);
#97=FACE_OUTER_BOUND('',#165,.T.);
#98=FACE_OUTER_BOUND('',#166,.T.);
#99=FACE_OUTER_BOUND('',#167,.T.);
#100=FACE_OUTER_BOUND('',#168,.T.);
#101=FACE_OUTER_BOUND('',#169,.T.);
#102=FACE_OUTER_BOUND('',#170,.T.);
#103=FACE_OUTER_BOUND('',#171,.T.);
#104=FACE_OUTER_BOUND('',#172,.T.);
#105=FACE_OUTER_BOUND('',#173,.T.);
#106=FACE_OUTER_BOUND('',#174,.T.);
#107=FACE_OUTER_BOUND('',#177,.T.);
#108=FACE_OUTER_BOUND('',#178,.T.);
#109=FACE_OUTER_BOUND('',#179,.T.);
#110=FACE_OUTER_BOUND('',#180,.T.);
#111=FACE_OUTER_BOUND('',#181,.T.);
#112=FACE_OUTER_BOUND('',#182,.T.);
#113=FACE_OUTER_BOUND('',#183,.T.);
#114=FACE_OUTER_BOUND('',#185,.T.);
#115=FACE_OUTER_BOUND('',#186,.T.);
#116=FACE_OUTER_BOUND('',#187,.T.);
#117=FACE_OUTER_BOUND('',#189,.T.);
#118=FACE_OUTER_BOUND('',#190,.T.);
#119=FACE_OUTER_BOUND('',#191,.T.);
#120=FACE_OUTER_BOUND('',#193,.T.);
#121=FACE_OUTER_BOUND('',#195,.T.);
#122=FACE_OUTER_BOUND('',#196,.T.);
#123=FACE_OUTER_BOUND('',#197,.T.);
#124=FACE_OUTER_BOUND('',#199,.T.);
#125=FACE_OUTER_BOUND('',#200,.T.);
#126=FACE_OUTER_BOUND('',#202,.T.);
#127=FACE_OUTER_BOUND('',#203,.T.);
#128=FACE_OUTER_BOUND('',#204,.T.);
#129=FACE_OUTER_BOUND('',#205,.T.);
#130=FACE_OUTER_BOUND('',#206,.T.);
#131=FACE_OUTER_BOUND('',#207,.T.);
#132=FACE_OUTER_BOUND('',#210,.T.);
#133=FACE_OUTER_BOUND('',#213,.T.);
#134=FACE_OUTER_BOUND('',#214,.T.);
#135=FACE_OUTER_BOUND('',#215,.T.);
#136=FACE_OUTER_BOUND('',#216,.T.);
#137=EDGE_LOOP('',(#657,#658,#659,#660,#661,#662));
#138=EDGE_LOOP('',(#663,#664,#665,#666,#667,#668));
#139=EDGE_LOOP('',(#669));
#140=EDGE_LOOP('',(#670));
#141=EDGE_LOOP('',(#671,#672,#673,#674));
#142=EDGE_LOOP('',(#675,#676,#677,#678,#679,#680));
#143=EDGE_LOOP('',(#681,#682,#683,#684,#685));
#144=EDGE_LOOP('',(#686,#687,#688,#689));
#145=EDGE_LOOP('',(#690));
#146=EDGE_LOOP('',(#691,#692,#693,#694));
#147=EDGE_LOOP('',(#695,#696,#697,#698));
#148=EDGE_LOOP('',(#699));
#149=EDGE_LOOP('',(#700));
#150=EDGE_LOOP('',(#701,#702,#703,#704));
#151=EDGE_LOOP('',(#705,#706,#707,#708));
#152=EDGE_LOOP('',(#709,#710,#711,#712));
#153=EDGE_LOOP('',(#713));
#154=EDGE_LOOP('',(#714));
#155=EDGE_LOOP('',(#715));
#156=EDGE_LOOP('',(#716,#717,#718,#719));
#157=EDGE_LOOP('',(#720,#721,#722,#723));
#158=EDGE_LOOP('',(#724,#725,#726,#727));
#159=EDGE_LOOP('',(#728));
#160=EDGE_LOOP('',(#729,#730,#731,#732));
#161=EDGE_LOOP('',(#733,#734,#735,#736));
#162=EDGE_LOOP('',(#737));
#163=EDGE_LOOP('',(#738,#739,#740,#741,#742));
#164=EDGE_LOOP('',(#743,#744,#745,#746,#747,#748,#749,#750,#751,#752,#753,
#754));
#165=EDGE_LOOP('',(#755,#756,#757));
#166=EDGE_LOOP('',(#758,#759,#760));
#167=EDGE_LOOP('',(#761,#762,#763));
#168=EDGE_LOOP('',(#764,#765,#766));
#169=EDGE_LOOP('',(#767,#768,#769,#770));
#170=EDGE_LOOP('',(#771,#772,#773,#774));
#171=EDGE_LOOP('',(#775,#776,#777,#778));
#172=EDGE_LOOP('',(#779,#780,#781,#782));
#173=EDGE_LOOP('',(#783,#784,#785,#786));
#174=EDGE_LOOP('',(#787,#788,#789,#790));
#175=EDGE_LOOP('',(#791));
#176=EDGE_LOOP('',(#792));
#177=EDGE_LOOP('',(#793,#794,#795,#796,#797,#798));
#178=EDGE_LOOP('',(#799,#800,#801,#802,#803,#804));
#179=EDGE_LOOP('',(#805,#806,#807,#808));
#180=EDGE_LOOP('',(#809,#810,#811,#812));
#181=EDGE_LOOP('',(#813,#814,#815,#816,#817));
#182=EDGE_LOOP('',(#818,#819,#820));
#183=EDGE_LOOP('',(#821,#822,#823,#824));
#184=EDGE_LOOP('',(#825));
#185=EDGE_LOOP('',(#826,#827,#828,#829));
#186=EDGE_LOOP('',(#830,#831,#832,#833));
#187=EDGE_LOOP('',(#834));
#188=EDGE_LOOP('',(#835));
#189=EDGE_LOOP('',(#836,#837,#838,#839));
#190=EDGE_LOOP('',(#840,#841,#842,#843));
#191=EDGE_LOOP('',(#844,#845,#846,#847));
#192=EDGE_LOOP('',(#848));
#193=EDGE_LOOP('',(#849));
#194=EDGE_LOOP('',(#850));
#195=EDGE_LOOP('',(#851,#852,#853,#854));
#196=EDGE_LOOP('',(#855,#856,#857,#858));
#197=EDGE_LOOP('',(#859,#860,#861,#862));
#198=EDGE_LOOP('',(#863));
#199=EDGE_LOOP('',(#864,#865,#866,#867));
#200=EDGE_LOOP('',(#868,#869,#870,#871));
#201=EDGE_LOOP('',(#872));
#202=EDGE_LOOP('',(#873,#874,#875,#876,#877,#878,#879,#880,#881,#882,#883,
#884));
#203=EDGE_LOOP('',(#885,#886,#887));
#204=EDGE_LOOP('',(#888,#889,#890));
#205=EDGE_LOOP('',(#891,#892,#893,#894,#895));
#206=EDGE_LOOP('',(#896,#897,#898));
#207=EDGE_LOOP('',(#899,#900,#901,#902,#903,#904));
#208=EDGE_LOOP('',(#905));
#209=EDGE_LOOP('',(#906));
#210=EDGE_LOOP('',(#907,#908,#909,#910));
#211=EDGE_LOOP('',(#911));
#212=EDGE_LOOP('',(#912));
#213=EDGE_LOOP('',(#913,#914,#915,#916));
#214=EDGE_LOOP('',(#917,#918,#919,#920));
#215=EDGE_LOOP('',(#921,#922,#923,#924));
#216=EDGE_LOOP('',(#925,#926,#927,#928));
#217=LINE('',#1412,#327);
#218=LINE('',#1414,#328);
#219=LINE('',#1416,#329);
#220=LINE('',#1418,#330);
#221=LINE('',#1420,#331);
#222=LINE('',#1421,#332);
#223=LINE('',#1425,#333);
#224=LINE('',#1427,#334);
#225=LINE('',#1428,#335);
#226=LINE('',#1430,#336);
#227=LINE('',#1431,#337);
#228=LINE('',#1438,#338);
#229=LINE('',#1440,#339);
#230=LINE('',#1441,#340);
#231=LINE('',#1444,#341);
#232=LINE('',#1445,#342);
#233=LINE('',#1446,#343);
#234=LINE('',#1449,#344);
#235=LINE('',#1451,#345);
#236=LINE('',#1453,#346);
#237=LINE('',#1454,#347);
#238=LINE('',#1457,#348);
#239=LINE('',#1458,#349);
#240=LINE('',#1463,#350);
#241=LINE('',#1464,#351);
#242=LINE('',#1469,#352);
#243=LINE('',#1475,#353);
#244=LINE('',#1480,#354);
#245=LINE('',#1483,#355);
#246=LINE('',#1484,#356);
#247=LINE('',#1491,#357);
#248=LINE('',#1495,#358);
#249=LINE('',#1497,#359);
#250=LINE('',#1499,#360);
#251=LINE('',#1500,#361);
#252=LINE('',#1504,#362);
#253=LINE('',#1505,#363);
#254=LINE('',#1506,#364);
#255=LINE('',#1509,#365);
#256=LINE('',#1510,#366);
#257=LINE('',#1513,#367);
#258=LINE('',#1514,#368);
#259=LINE('',#1517,#369);
#260=LINE('',#1518,#370);
#261=LINE('',#1520,#371);
#262=LINE('',#1521,#372);
#263=LINE('',#1524,#373);
#264=LINE('',#1526,#374);
#265=LINE('',#1527,#375);
#266=LINE('',#1552,#376);
#267=LINE('',#1557,#377);
#268=LINE('',#1558,#378);
#269=LINE('',#1561,#379);
#270=LINE('',#1565,#380);
#271=LINE('',#1568,#381);
#272=LINE('',#1573,#382);
#273=LINE('',#1575,#383);
#274=LINE('',#1577,#384);
#275=LINE('',#1579,#385);
#276=LINE('',#1581,#386);
#277=LINE('',#1582,#387);
#278=LINE('',#1585,#388);
#279=LINE('',#1587,#389);
#280=LINE('',#1589,#390);
#281=LINE('',#1591,#391);
#282=LINE('',#1592,#392);
#283=LINE('',#1595,#393);
#284=LINE('',#1596,#394);
#285=LINE('',#1599,#395);
#286=LINE('',#1600,#396);
#287=LINE('',#1603,#397);
#288=LINE('',#1605,#398);
#289=LINE('',#1607,#399);
#290=LINE('',#1608,#400);
#291=LINE('',#1634,#401);
#292=LINE('',#1635,#402);
#293=LINE('',#1637,#403);
#294=LINE('',#1639,#404);
#295=LINE('',#1640,#405);
#296=LINE('',#1645,#406);
#297=LINE('',#1646,#407);
#298=LINE('',#1651,#408);
#299=LINE('',#1657,#409);
#300=LINE('',#1662,#410);
#301=LINE('',#1665,#411);
#302=LINE('',#1672,#412);
#303=LINE('',#1676,#413);
#304=LINE('',#1678,#414);
#305=LINE('',#1680,#415);
#306=LINE('',#1681,#416);
#307=LINE('',#1685,#417);
#308=LINE('',#1686,#418);
#309=LINE('',#1687,#419);
#310=LINE('',#1690,#420);
#311=LINE('',#1691,#421);
#312=LINE('',#1694,#422);
#313=LINE('',#1695,#423);
#314=LINE('',#1697,#424);
#315=LINE('',#1698,#425);
#316=LINE('',#1699,#426);
#317=LINE('',#1702,#427);
#318=LINE('',#1703,#428);
#319=LINE('',#1705,#429);
#320=LINE('',#1710,#430);
#321=LINE('',#1711,#431);
#322=LINE('',#1718,#432);
#323=LINE('',#1719,#433);
#324=LINE('',#1725,#434);
#325=LINE('',#1727,#435);
#326=LINE('',#1729,#436);
#327=VECTOR('',#1136,10.);
#328=VECTOR('',#1137,10.);
#329=VECTOR('',#1138,10.);
#330=VECTOR('',#1139,10.);
#331=VECTOR('',#1140,10.);
#332=VECTOR('',#1141,10.);
#333=VECTOR('',#1144,10.);
#334=VECTOR('',#1145,10.);
#335=VECTOR('',#1146,10.);
#336=VECTOR('',#1147,10.);
#337=VECTOR('',#1148,10.);
#338=VECTOR('',#1155,10.);
#339=VECTOR('',#1156,10.);
#340=VECTOR('',#1157,10.);
#341=VECTOR('',#1160,10.);
#342=VECTOR('',#1161,10.);
#343=VECTOR('',#1162,10.);
#344=VECTOR('',#1165,10.);
#345=VECTOR('',#1166,10.);
#346=VECTOR('',#1167,10.);
#347=VECTOR('',#1168,10.);
#348=VECTOR('',#1171,10.);
#349=VECTOR('',#1172,10.);
#350=VECTOR('',#1177,10.);
#351=VECTOR('',#1178,10.);
#352=VECTOR('',#1183,1.5);
#353=VECTOR('',#1192,3.5);
#354=VECTOR('',#1197,3.5);
#355=VECTOR('',#1202,10.);
#356=VECTOR('',#1203,10.);
#357=VECTOR('',#1212,1.5);
#358=VECTOR('',#1215,10.);
#359=VECTOR('',#1216,10.);
#360=VECTOR('',#1217,10.);
#361=VECTOR('',#1218,10.);
#362=VECTOR('',#1221,10.);
#363=VECTOR('',#1222,10.);
#364=VECTOR('',#1223,10.);
#365=VECTOR('',#1226,10.);
#366=VECTOR('',#1227,10.);
#367=VECTOR('',#1230,10.);
#368=VECTOR('',#1231,10.);
#369=VECTOR('',#1234,10.);
#370=VECTOR('',#1235,10.);
#371=VECTOR('',#1238,10.);
#372=VECTOR('',#1239,10.);
#373=VECTOR('',#1242,10.);
#374=VECTOR('',#1243,50.8558010457017);
#375=VECTOR('',#1244,10.);
#376=VECTOR('',#1247,10.);
#377=VECTOR('',#1254,10.);
#378=VECTOR('',#1255,10.);
#379=VECTOR('',#1258,2.5);
#380=VECTOR('',#1263,2.5);
#381=VECTOR('',#1268,10.);
#382=VECTOR('',#1273,10.);
#383=VECTOR('',#1274,10.);
#384=VECTOR('',#1275,10.);
#385=VECTOR('',#1276,10.);
#386=VECTOR('',#1277,10.);
#387=VECTOR('',#1278,10.);
#388=VECTOR('',#1281,10.);
#389=VECTOR('',#1282,10.);
#390=VECTOR('',#1283,10.);
#391=VECTOR('',#1284,10.);
#392=VECTOR('',#1285,10.);
#393=VECTOR('',#1288,10.);
#394=VECTOR('',#1289,10.);
#395=VECTOR('',#1292,10.);
#396=VECTOR('',#1293,10.);
#397=VECTOR('',#1296,10.);
#398=VECTOR('',#1297,10.);
#399=VECTOR('',#1298,10.);
#400=VECTOR('',#1299,10.);
#401=VECTOR('',#1300,10.);
#402=VECTOR('',#1301,50.8558010457017);
#403=VECTOR('',#1304,10.);
#404=VECTOR('',#1305,10.);
#405=VECTOR('',#1306,10.);
#406=VECTOR('',#1311,10.);
#407=VECTOR('',#1312,10.);
#408=VECTOR('',#1317,1.5);
#409=VECTOR('',#1326,3.5);
#410=VECTOR('',#1331,3.5);
#411=VECTOR('',#1336,10.);
#412=VECTOR('',#1345,1.5);
#413=VECTOR('',#1348,10.);
#414=VECTOR('',#1349,10.);
#415=VECTOR('',#1350,10.);
#416=VECTOR('',#1351,10.);
#417=VECTOR('',#1354,10.);
#418=VECTOR('',#1355,10.);
#419=VECTOR('',#1356,10.);
#420=VECTOR('',#1359,10.);
#421=VECTOR('',#1360,10.);
#422=VECTOR('',#1363,10.);
#423=VECTOR('',#1364,10.);
#424=VECTOR('',#1367,10.);
#425=VECTOR('',#1368,10.);
#426=VECTOR('',#1369,10.);
#427=VECTOR('',#1372,10.);
#428=VECTOR('',#1373,10.);
#429=VECTOR('',#1376,10.);
#430=VECTOR('',#1383,10.);
#431=VECTOR('',#1384,10.);
#432=VECTOR('',#1391,10.);
#433=VECTOR('',#1392,10.);
#434=VECTOR('',#1399,10.);
#435=VECTOR('',#1402,2.5);
#436=VECTOR('',#1405,2.5);
#437=VERTEX_POINT('',#1410);
#438=VERTEX_POINT('',#1411);
#439=VERTEX_POINT('',#1413);
#440=VERTEX_POINT('',#1415);
#441=VERTEX_POINT('',#1417);
#442=VERTEX_POINT('',#1419);
#443=VERTEX_POINT('',#1423);
#444=VERTEX_POINT('',#1424);
#445=VERTEX_POINT('',#1426);
#446=VERTEX_POINT('',#1429);
#447=VERTEX_POINT('',#1432);
#448=VERTEX_POINT('',#1434);
#449=VERTEX_POINT('',#1437);
#450=VERTEX_POINT('',#1439);
#451=VERTEX_POINT('',#1443);
#452=VERTEX_POINT('',#1448);
#453=VERTEX_POINT('',#1450);
#454=VERTEX_POINT('',#1452);
#455=VERTEX_POINT('',#1456);
#456=VERTEX_POINT('',#1459);
#457=VERTEX_POINT('',#1462);
#458=VERTEX_POINT('',#1466);
#459=VERTEX_POINT('',#1468);
#460=VERTEX_POINT('',#1472);
#461=VERTEX_POINT('',#1477);
#462=VERTEX_POINT('',#1479);
#463=VERTEX_POINT('',#1486);
#464=VERTEX_POINT('',#1489);
#465=VERTEX_POINT('',#1493);
#466=VERTEX_POINT('',#1494);
#467=VERTEX_POINT('',#1496);
#468=VERTEX_POINT('',#1498);
#469=VERTEX_POINT('',#1502);
#470=VERTEX_POINT('',#1503);
#471=VERTEX_POINT('',#1508);
#472=VERTEX_POINT('',#1512);
#473=VERTEX_POINT('',#1516);
#474=VERTEX_POINT('',#1523);
#475=VERTEX_POINT('',#1525);
#476=VERTEX_POINT('',#1556);
#477=VERTEX_POINT('',#1560);
#478=VERTEX_POINT('',#1564);
#479=VERTEX_POINT('',#1571);
#480=VERTEX_POINT('',#1572);
#481=VERTEX_POINT('',#1574);
#482=VERTEX_POINT('',#1576);
#483=VERTEX_POINT('',#1578);
#484=VERTEX_POINT('',#1580);
#485=VERTEX_POINT('',#1584);
#486=VERTEX_POINT('',#1586);
#487=VERTEX_POINT('',#1588);
#488=VERTEX_POINT('',#1590);
#489=VERTEX_POINT('',#1594);
#490=VERTEX_POINT('',#1598);
#491=VERTEX_POINT('',#1602);
#492=VERTEX_POINT('',#1604);
#493=VERTEX_POINT('',#1606);
#494=VERTEX_POINT('',#1625);
#495=VERTEX_POINT('',#1633);
#496=VERTEX_POINT('',#1638);
#497=VERTEX_POINT('',#1641);
#498=VERTEX_POINT('',#1644);
#499=VERTEX_POINT('',#1648);
#500=VERTEX_POINT('',#1650);
#501=VERTEX_POINT('',#1654);
#502=VERTEX_POINT('',#1659);
#503=VERTEX_POINT('',#1661);
#504=VERTEX_POINT('',#1667);
#505=VERTEX_POINT('',#1670);
#506=VERTEX_POINT('',#1674);
#507=VERTEX_POINT('',#1675);
#508=VERTEX_POINT('',#1677);
#509=VERTEX_POINT('',#1679);
#510=VERTEX_POINT('',#1683);
#511=VERTEX_POINT('',#1684);
#512=VERTEX_POINT('',#1689);
#513=VERTEX_POINT('',#1693);
#514=VERTEX_POINT('',#1701);
#515=VERTEX_POINT('',#1709);
#516=VERTEX_POINT('',#1712);
#517=VERTEX_POINT('',#1714);
#518=VERTEX_POINT('',#1717);
#519=VERTEX_POINT('',#1720);
#520=VERTEX_POINT('',#1722);
#521=EDGE_CURVE('',#437,#438,#217,.T.);
#522=EDGE_CURVE('',#439,#438,#218,.T.);
#523=EDGE_CURVE('',#440,#439,#219,.T.);
#524=EDGE_CURVE('',#440,#441,#220,.T.);
#525=EDGE_CURVE('',#441,#442,#221,.T.);
#526=EDGE_CURVE('',#437,#442,#222,.T.);
#527=EDGE_CURVE('',#443,#444,#223,.T.);
#528=EDGE_CURVE('',#444,#445,#224,.T.);
#529=EDGE_CURVE('',#445,#441,#225,.T.);
#530=EDGE_CURVE('',#440,#446,#226,.T.);
#531=EDGE_CURVE('',#446,#443,#227,.T.);
#532=EDGE_CURVE('',#447,#447,#57,.T.);
#533=EDGE_CURVE('',#448,#448,#58,.T.);
#534=EDGE_CURVE('',#444,#449,#228,.T.);
#535=EDGE_CURVE('',#450,#449,#229,.T.);
#536=EDGE_CURVE('',#450,#445,#230,.T.);
#537=EDGE_CURVE('',#451,#438,#231,.T.);
#538=EDGE_CURVE('',#449,#437,#232,.T.);
#539=EDGE_CURVE('',#443,#451,#233,.T.);
#540=EDGE_CURVE('',#441,#452,#234,.T.);
#541=EDGE_CURVE('',#452,#453,#235,.T.);
#542=EDGE_CURVE('',#453,#454,#236,.T.);
#543=EDGE_CURVE('',#442,#454,#237,.T.);
#544=EDGE_CURVE('',#445,#455,#238,.T.);
#545=EDGE_CURVE('',#455,#452,#239,.T.);
#546=EDGE_CURVE('',#456,#456,#33,.T.);
#547=EDGE_CURVE('',#450,#457,#240,.T.);
#548=EDGE_CURVE('',#457,#455,#241,.T.);
#549=EDGE_CURVE('',#458,#458,#59,.T.);
#550=EDGE_CURVE('',#458,#459,#242,.T.);
#551=EDGE_CURVE('',#459,#459,#60,.T.);
#552=EDGE_CURVE('',#460,#460,#61,.T.);
#553=EDGE_CURVE('',#456,#460,#243,.T.);
#554=EDGE_CURVE('',#461,#461,#34,.T.);
#555=EDGE_CURVE('',#461,#462,#244,.T.);
#556=EDGE_CURVE('',#462,#462,#62,.T.);
#557=EDGE_CURVE('',#442,#450,#245,.T.);
#558=EDGE_CURVE('',#454,#457,#246,.T.);
#559=EDGE_CURVE('',#463,#463,#63,.T.);
#560=EDGE_CURVE('',#464,#464,#64,.T.);
#561=EDGE_CURVE('',#464,#463,#247,.T.);
#562=EDGE_CURVE('',#465,#466,#248,.T.);
#563=EDGE_CURVE('',#467,#465,#249,.T.);
#564=EDGE_CURVE('',#468,#467,#250,.T.);
#565=EDGE_CURVE('',#466,#468,#251,.T.);
#566=EDGE_CURVE('',#469,#470,#252,.T.);
#567=EDGE_CURVE('',#470,#465,#253,.T.);
#568=EDGE_CURVE('',#469,#466,#254,.T.);
#569=EDGE_CURVE('',#471,#469,#255,.T.);
#570=EDGE_CURVE('',#471,#468,#256,.T.);
#571=EDGE_CURVE('',#472,#471,#257,.T.);
#572=EDGE_CURVE('',#472,#467,#258,.T.);
#573=EDGE_CURVE('',#473,#472,#259,.T.);
#574=EDGE_CURVE('',#470,#473,#260,.T.);
#575=EDGE_CURVE('',#473,#453,#261,.T.);
#576=EDGE_CURVE('',#473,#453,#262,.T.);
#577=EDGE_CURVE('',#474,#473,#263,.T.);
#578=EDGE_CURVE('',#475,#473,#264,.T.);
#579=EDGE_CURVE('',#475,#474,#265,.T.);
#580=EDGE_CURVE('',#453,#475,#17,.T.);
#581=EDGE_CURVE('',#453,#474,#266,.T.);
#582=EDGE_CURVE('',#439,#476,#267,.T.);
#583=EDGE_CURVE('',#476,#446,#268,.T.);
#584=EDGE_CURVE('',#448,#477,#269,.T.);
#585=EDGE_CURVE('',#477,#477,#65,.T.);
#586=EDGE_CURVE('',#447,#478,#270,.T.);
#587=EDGE_CURVE('',#478,#478,#66,.T.);
#588=EDGE_CURVE('',#476,#451,#271,.T.);
#589=EDGE_CURVE('',#479,#480,#272,.T.);
#590=EDGE_CURVE('',#480,#481,#273,.T.);
#591=EDGE_CURVE('',#482,#481,#274,.T.);
#592=EDGE_CURVE('',#483,#482,#275,.T.);
#593=EDGE_CURVE('',#484,#483,#276,.T.);
#594=EDGE_CURVE('',#479,#484,#277,.T.);
#595=EDGE_CURVE('',#484,#485,#278,.T.);
#596=EDGE_CURVE('',#486,#485,#279,.T.);
#597=EDGE_CURVE('',#487,#486,#280,.T.);
#598=EDGE_CURVE('',#487,#488,#281,.T.);
#599=EDGE_CURVE('',#488,#479,#282,.T.);
#600=EDGE_CURVE('',#489,#483,#283,.T.);
#601=EDGE_CURVE('',#485,#489,#284,.T.);
#602=EDGE_CURVE('',#482,#490,#285,.T.);
#603=EDGE_CURVE('',#489,#490,#286,.T.);
#604=EDGE_CURVE('',#485,#491,#287,.T.);
#605=EDGE_CURVE('',#492,#491,#288,.T.);
#606=EDGE_CURVE('',#493,#492,#289,.T.);
#607=EDGE_CURVE('',#486,#493,#290,.T.);
#608=EDGE_CURVE('',#494,#492,#18,.T.);
#609=EDGE_CURVE('',#495,#492,#291,.T.);
#610=EDGE_CURVE('',#494,#495,#292,.T.);
#611=EDGE_CURVE('',#490,#486,#293,.T.);
#612=EDGE_CURVE('',#496,#493,#294,.T.);
#613=EDGE_CURVE('',#490,#496,#295,.T.);
#614=EDGE_CURVE('',#497,#497,#35,.T.);
#615=EDGE_CURVE('',#498,#496,#296,.T.);
#616=EDGE_CURVE('',#489,#498,#297,.T.);
#617=EDGE_CURVE('',#499,#499,#67,.T.);
#618=EDGE_CURVE('',#499,#500,#298,.T.);
#619=EDGE_CURVE('',#500,#500,#68,.T.);
#620=EDGE_CURVE('',#501,#501,#69,.T.);
#621=EDGE_CURVE('',#497,#501,#299,.T.);
#622=EDGE_CURVE('',#502,#502,#36,.T.);
#623=EDGE_CURVE('',#502,#503,#300,.T.);
#624=EDGE_CURVE('',#503,#503,#70,.T.);
#625=EDGE_CURVE('',#491,#498,#301,.T.);
#626=EDGE_CURVE('',#504,#504,#71,.T.);
#627=EDGE_CURVE('',#505,#505,#72,.T.);
#628=EDGE_CURVE('',#505,#504,#302,.T.);
#629=EDGE_CURVE('',#506,#507,#303,.T.);
#630=EDGE_CURVE('',#507,#508,#304,.T.);
#631=EDGE_CURVE('',#508,#509,#305,.T.);
#632=EDGE_CURVE('',#509,#506,#306,.T.);
#633=EDGE_CURVE('',#510,#511,#307,.T.);
#634=EDGE_CURVE('',#511,#509,#308,.T.);
#635=EDGE_CURVE('',#510,#508,#309,.T.);
#636=EDGE_CURVE('',#512,#510,#310,.T.);
#637=EDGE_CURVE('',#512,#507,#311,.T.);
#638=EDGE_CURVE('',#513,#512,#312,.T.);
#639=EDGE_CURVE('',#513,#506,#313,.T.);
#640=EDGE_CURVE('',#511,#495,#314,.T.);
#641=EDGE_CURVE('',#495,#513,#315,.T.);
#642=EDGE_CURVE('',#495,#492,#316,.T.);
#643=EDGE_CURVE('',#514,#492,#317,.T.);
#644=EDGE_CURVE('',#514,#494,#318,.T.);
#645=EDGE_CURVE('',#495,#514,#319,.T.);
#646=EDGE_CURVE('',#515,#481,#320,.T.);
#647=EDGE_CURVE('',#487,#515,#321,.T.);
#648=EDGE_CURVE('',#516,#516,#73,.T.);
#649=EDGE_CURVE('',#517,#517,#74,.T.);
#650=EDGE_CURVE('',#488,#518,#322,.T.);
#651=EDGE_CURVE('',#518,#480,#323,.T.);
#652=EDGE_CURVE('',#519,#519,#75,.T.);
#653=EDGE_CURVE('',#520,#520,#76,.T.);
#654=EDGE_CURVE('',#518,#515,#324,.T.);
#655=EDGE_CURVE('',#516,#520,#325,.T.);
#656=EDGE_CURVE('',#517,#519,#326,.T.);
#657=ORIENTED_EDGE('',*,*,#521,.T.);
#658=ORIENTED_EDGE('',*,*,#522,.F.);
#659=ORIENTED_EDGE('',*,*,#523,.F.);
#660=ORIENTED_EDGE('',*,*,#524,.T.);
#661=ORIENTED_EDGE('',*,*,#525,.T.);
#662=ORIENTED_EDGE('',*,*,#526,.F.);
#663=ORIENTED_EDGE('',*,*,#527,.T.);
#664=ORIENTED_EDGE('',*,*,#528,.T.);
#665=ORIENTED_EDGE('',*,*,#529,.T.);
#666=ORIENTED_EDGE('',*,*,#524,.F.);
#667=ORIENTED_EDGE('',*,*,#530,.T.);
#668=ORIENTED_EDGE('',*,*,#531,.T.);
#669=ORIENTED_EDGE('',*,*,#532,.T.);
#670=ORIENTED_EDGE('',*,*,#533,.T.);
#671=ORIENTED_EDGE('',*,*,#534,.T.);
#672=ORIENTED_EDGE('',*,*,#535,.F.);
#673=ORIENTED_EDGE('',*,*,#536,.T.);
#674=ORIENTED_EDGE('',*,*,#528,.F.);
#675=ORIENTED_EDGE('',*,*,#537,.T.);
#676=ORIENTED_EDGE('',*,*,#521,.F.);
#677=ORIENTED_EDGE('',*,*,#538,.F.);
#678=ORIENTED_EDGE('',*,*,#534,.F.);
#679=ORIENTED_EDGE('',*,*,#527,.F.);
#680=ORIENTED_EDGE('',*,*,#539,.T.);
#681=ORIENTED_EDGE('',*,*,#525,.F.);
#682=ORIENTED_EDGE('',*,*,#540,.T.);
#683=ORIENTED_EDGE('',*,*,#541,.T.);
#684=ORIENTED_EDGE('',*,*,#542,.T.);
#685=ORIENTED_EDGE('',*,*,#543,.F.);
#686=ORIENTED_EDGE('',*,*,#529,.F.);
#687=ORIENTED_EDGE('',*,*,#544,.T.);
#688=ORIENTED_EDGE('',*,*,#545,.T.);
#689=ORIENTED_EDGE('',*,*,#540,.F.);
#690=ORIENTED_EDGE('',*,*,#546,.T.);
#691=ORIENTED_EDGE('',*,*,#536,.F.);
#692=ORIENTED_EDGE('',*,*,#547,.T.);
#693=ORIENTED_EDGE('',*,*,#548,.T.);
#694=ORIENTED_EDGE('',*,*,#544,.F.);
#695=ORIENTED_EDGE('',*,*,#549,.T.);
#696=ORIENTED_EDGE('',*,*,#550,.T.);
#697=ORIENTED_EDGE('',*,*,#551,.T.);
#698=ORIENTED_EDGE('',*,*,#550,.F.);
#699=ORIENTED_EDGE('',*,*,#552,.F.);
#700=ORIENTED_EDGE('',*,*,#549,.F.);
#701=ORIENTED_EDGE('',*,*,#546,.F.);
#702=ORIENTED_EDGE('',*,*,#553,.T.);
#703=ORIENTED_EDGE('',*,*,#552,.T.);
#704=ORIENTED_EDGE('',*,*,#553,.F.);
#705=ORIENTED_EDGE('',*,*,#554,.F.);
#706=ORIENTED_EDGE('',*,*,#555,.T.);
#707=ORIENTED_EDGE('',*,*,#556,.T.);
#708=ORIENTED_EDGE('',*,*,#555,.F.);
#709=ORIENTED_EDGE('',*,*,#557,.F.);
#710=ORIENTED_EDGE('',*,*,#543,.T.);
#711=ORIENTED_EDGE('',*,*,#558,.T.);
#712=ORIENTED_EDGE('',*,*,#547,.F.);
#713=ORIENTED_EDGE('',*,*,#554,.T.);
#714=ORIENTED_EDGE('',*,*,#556,.F.);
#715=ORIENTED_EDGE('',*,*,#559,.F.);
#716=ORIENTED_EDGE('',*,*,#560,.T.);
#717=ORIENTED_EDGE('',*,*,#561,.T.);
#718=ORIENTED_EDGE('',*,*,#559,.T.);
#719=ORIENTED_EDGE('',*,*,#561,.F.);
#720=ORIENTED_EDGE('',*,*,#562,.F.);
#721=ORIENTED_EDGE('',*,*,#563,.F.);
#722=ORIENTED_EDGE('',*,*,#564,.F.);
#723=ORIENTED_EDGE('',*,*,#565,.F.);
#724=ORIENTED_EDGE('',*,*,#566,.T.);
#725=ORIENTED_EDGE('',*,*,#567,.T.);
#726=ORIENTED_EDGE('',*,*,#562,.T.);
#727=ORIENTED_EDGE('',*,*,#568,.F.);
#728=ORIENTED_EDGE('',*,*,#560,.F.);
#729=ORIENTED_EDGE('',*,*,#569,.T.);
#730=ORIENTED_EDGE('',*,*,#568,.T.);
#731=ORIENTED_EDGE('',*,*,#565,.T.);
#732=ORIENTED_EDGE('',*,*,#570,.F.);
#733=ORIENTED_EDGE('',*,*,#571,.T.);
#734=ORIENTED_EDGE('',*,*,#570,.T.);
#735=ORIENTED_EDGE('',*,*,#564,.T.);
#736=ORIENTED_EDGE('',*,*,#572,.F.);
#737=ORIENTED_EDGE('',*,*,#551,.F.);
#738=ORIENTED_EDGE('',*,*,#573,.T.);
#739=ORIENTED_EDGE('',*,*,#572,.T.);
#740=ORIENTED_EDGE('',*,*,#563,.T.);
#741=ORIENTED_EDGE('',*,*,#567,.F.);
#742=ORIENTED_EDGE('',*,*,#574,.T.);
#743=ORIENTED_EDGE('',*,*,#573,.F.);
#744=ORIENTED_EDGE('',*,*,#575,.T.);
#745=ORIENTED_EDGE('',*,*,#541,.F.);
#746=ORIENTED_EDGE('',*,*,#545,.F.);
#747=ORIENTED_EDGE('',*,*,#548,.F.);
#748=ORIENTED_EDGE('',*,*,#558,.F.);
#749=ORIENTED_EDGE('',*,*,#542,.F.);
#750=ORIENTED_EDGE('',*,*,#576,.F.);
#751=ORIENTED_EDGE('',*,*,#574,.F.);
#752=ORIENTED_EDGE('',*,*,#566,.F.);
#753=ORIENTED_EDGE('',*,*,#569,.F.);
#754=ORIENTED_EDGE('',*,*,#571,.F.);
#755=ORIENTED_EDGE('',*,*,#577,.T.);
#756=ORIENTED_EDGE('',*,*,#578,.F.);
#757=ORIENTED_EDGE('',*,*,#579,.T.);
#758=ORIENTED_EDGE('',*,*,#580,.T.);
#759=ORIENTED_EDGE('',*,*,#578,.T.);
#760=ORIENTED_EDGE('',*,*,#576,.T.);
#761=ORIENTED_EDGE('',*,*,#581,.T.);
#762=ORIENTED_EDGE('',*,*,#579,.F.);
#763=ORIENTED_EDGE('',*,*,#580,.F.);
#764=ORIENTED_EDGE('',*,*,#577,.F.);
#765=ORIENTED_EDGE('',*,*,#581,.F.);
#766=ORIENTED_EDGE('',*,*,#575,.F.);
#767=ORIENTED_EDGE('',*,*,#557,.T.);
#768=ORIENTED_EDGE('',*,*,#535,.T.);
#769=ORIENTED_EDGE('',*,*,#538,.T.);
#770=ORIENTED_EDGE('',*,*,#526,.T.);
#771=ORIENTED_EDGE('',*,*,#523,.T.);
#772=ORIENTED_EDGE('',*,*,#582,.T.);
#773=ORIENTED_EDGE('',*,*,#583,.T.);
#774=ORIENTED_EDGE('',*,*,#530,.F.);
#775=ORIENTED_EDGE('',*,*,#533,.F.);
#776=ORIENTED_EDGE('',*,*,#584,.T.);
#777=ORIENTED_EDGE('',*,*,#585,.T.);
#778=ORIENTED_EDGE('',*,*,#584,.F.);
#779=ORIENTED_EDGE('',*,*,#532,.F.);
#780=ORIENTED_EDGE('',*,*,#586,.T.);
#781=ORIENTED_EDGE('',*,*,#587,.T.);
#782=ORIENTED_EDGE('',*,*,#586,.F.);
#783=ORIENTED_EDGE('',*,*,#531,.F.);
#784=ORIENTED_EDGE('',*,*,#583,.F.);
#785=ORIENTED_EDGE('',*,*,#588,.T.);
#786=ORIENTED_EDGE('',*,*,#539,.F.);
#787=ORIENTED_EDGE('',*,*,#588,.F.);
#788=ORIENTED_EDGE('',*,*,#582,.F.);
#789=ORIENTED_EDGE('',*,*,#522,.T.);
#790=ORIENTED_EDGE('',*,*,#537,.F.);
#791=ORIENTED_EDGE('',*,*,#585,.F.);
#792=ORIENTED_EDGE('',*,*,#587,.F.);
#793=ORIENTED_EDGE('',*,*,#589,.T.);
#794=ORIENTED_EDGE('',*,*,#590,.T.);
#795=ORIENTED_EDGE('',*,*,#591,.F.);
#796=ORIENTED_EDGE('',*,*,#592,.F.);
#797=ORIENTED_EDGE('',*,*,#593,.F.);
#798=ORIENTED_EDGE('',*,*,#594,.F.);
#799=ORIENTED_EDGE('',*,*,#594,.T.);
#800=ORIENTED_EDGE('',*,*,#595,.T.);
#801=ORIENTED_EDGE('',*,*,#596,.F.);
#802=ORIENTED_EDGE('',*,*,#597,.F.);
#803=ORIENTED_EDGE('',*,*,#598,.T.);
#804=ORIENTED_EDGE('',*,*,#599,.T.);
#805=ORIENTED_EDGE('',*,*,#593,.T.);
#806=ORIENTED_EDGE('',*,*,#600,.F.);
#807=ORIENTED_EDGE('',*,*,#601,.F.);
#808=ORIENTED_EDGE('',*,*,#595,.F.);
#809=ORIENTED_EDGE('',*,*,#592,.T.);
#810=ORIENTED_EDGE('',*,*,#602,.T.);
#811=ORIENTED_EDGE('',*,*,#603,.F.);
#812=ORIENTED_EDGE('',*,*,#600,.T.);
#813=ORIENTED_EDGE('',*,*,#596,.T.);
#814=ORIENTED_EDGE('',*,*,#604,.T.);
#815=ORIENTED_EDGE('',*,*,#605,.F.);
#816=ORIENTED_EDGE('',*,*,#606,.F.);
#817=ORIENTED_EDGE('',*,*,#607,.F.);
#818=ORIENTED_EDGE('',*,*,#608,.T.);
#819=ORIENTED_EDGE('',*,*,#609,.F.);
#820=ORIENTED_EDGE('',*,*,#610,.F.);
#821=ORIENTED_EDGE('',*,*,#611,.T.);
#822=ORIENTED_EDGE('',*,*,#607,.T.);
#823=ORIENTED_EDGE('',*,*,#612,.F.);
#824=ORIENTED_EDGE('',*,*,#613,.F.);
#825=ORIENTED_EDGE('',*,*,#614,.F.);
#826=ORIENTED_EDGE('',*,*,#603,.T.);
#827=ORIENTED_EDGE('',*,*,#613,.T.);
#828=ORIENTED_EDGE('',*,*,#615,.F.);
#829=ORIENTED_EDGE('',*,*,#616,.F.);
#830=ORIENTED_EDGE('',*,*,#617,.F.);
#831=ORIENTED_EDGE('',*,*,#618,.T.);
#832=ORIENTED_EDGE('',*,*,#619,.F.);
#833=ORIENTED_EDGE('',*,*,#618,.F.);
#834=ORIENTED_EDGE('',*,*,#620,.T.);
#835=ORIENTED_EDGE('',*,*,#617,.T.);
#836=ORIENTED_EDGE('',*,*,#614,.T.);
#837=ORIENTED_EDGE('',*,*,#621,.T.);
#838=ORIENTED_EDGE('',*,*,#620,.F.);
#839=ORIENTED_EDGE('',*,*,#621,.F.);
#840=ORIENTED_EDGE('',*,*,#622,.T.);
#841=ORIENTED_EDGE('',*,*,#623,.T.);
#842=ORIENTED_EDGE('',*,*,#624,.F.);
#843=ORIENTED_EDGE('',*,*,#623,.F.);
#844=ORIENTED_EDGE('',*,*,#601,.T.);
#845=ORIENTED_EDGE('',*,*,#616,.T.);
#846=ORIENTED_EDGE('',*,*,#625,.F.);
#847=ORIENTED_EDGE('',*,*,#604,.F.);
#848=ORIENTED_EDGE('',*,*,#622,.F.);
#849=ORIENTED_EDGE('',*,*,#624,.T.);
#850=ORIENTED_EDGE('',*,*,#626,.T.);
#851=ORIENTED_EDGE('',*,*,#627,.F.);
#852=ORIENTED_EDGE('',*,*,#628,.T.);
#853=ORIENTED_EDGE('',*,*,#626,.F.);
#854=ORIENTED_EDGE('',*,*,#628,.F.);
#855=ORIENTED_EDGE('',*,*,#629,.T.);
#856=ORIENTED_EDGE('',*,*,#630,.T.);
#857=ORIENTED_EDGE('',*,*,#631,.T.);
#858=ORIENTED_EDGE('',*,*,#632,.T.);
#859=ORIENTED_EDGE('',*,*,#633,.T.);
#860=ORIENTED_EDGE('',*,*,#634,.T.);
#861=ORIENTED_EDGE('',*,*,#631,.F.);
#862=ORIENTED_EDGE('',*,*,#635,.F.);
#863=ORIENTED_EDGE('',*,*,#619,.T.);
#864=ORIENTED_EDGE('',*,*,#636,.T.);
#865=ORIENTED_EDGE('',*,*,#635,.T.);
#866=ORIENTED_EDGE('',*,*,#630,.F.);
#867=ORIENTED_EDGE('',*,*,#637,.F.);
#868=ORIENTED_EDGE('',*,*,#638,.T.);
#869=ORIENTED_EDGE('',*,*,#637,.T.);
#870=ORIENTED_EDGE('',*,*,#629,.F.);
#871=ORIENTED_EDGE('',*,*,#639,.F.);
#872=ORIENTED_EDGE('',*,*,#627,.T.);
#873=ORIENTED_EDGE('',*,*,#640,.F.);
#874=ORIENTED_EDGE('',*,*,#633,.F.);
#875=ORIENTED_EDGE('',*,*,#636,.F.);
#876=ORIENTED_EDGE('',*,*,#638,.F.);
#877=ORIENTED_EDGE('',*,*,#641,.F.);
#878=ORIENTED_EDGE('',*,*,#609,.T.);
#879=ORIENTED_EDGE('',*,*,#605,.T.);
#880=ORIENTED_EDGE('',*,*,#625,.T.);
#881=ORIENTED_EDGE('',*,*,#615,.T.);
#882=ORIENTED_EDGE('',*,*,#612,.T.);
#883=ORIENTED_EDGE('',*,*,#606,.T.);
#884=ORIENTED_EDGE('',*,*,#642,.F.);
#885=ORIENTED_EDGE('',*,*,#643,.T.);
#886=ORIENTED_EDGE('',*,*,#608,.F.);
#887=ORIENTED_EDGE('',*,*,#644,.F.);
#888=ORIENTED_EDGE('',*,*,#645,.T.);
#889=ORIENTED_EDGE('',*,*,#644,.T.);
#890=ORIENTED_EDGE('',*,*,#610,.T.);
#891=ORIENTED_EDGE('',*,*,#640,.T.);
#892=ORIENTED_EDGE('',*,*,#641,.T.);
#893=ORIENTED_EDGE('',*,*,#639,.T.);
#894=ORIENTED_EDGE('',*,*,#632,.F.);
#895=ORIENTED_EDGE('',*,*,#634,.F.);
#896=ORIENTED_EDGE('',*,*,#645,.F.);
#897=ORIENTED_EDGE('',*,*,#642,.T.);
#898=ORIENTED_EDGE('',*,*,#643,.F.);
#899=ORIENTED_EDGE('',*,*,#591,.T.);
#900=ORIENTED_EDGE('',*,*,#646,.F.);
#901=ORIENTED_EDGE('',*,*,#647,.F.);
#902=ORIENTED_EDGE('',*,*,#597,.T.);
#903=ORIENTED_EDGE('',*,*,#611,.F.);
#904=ORIENTED_EDGE('',*,*,#602,.F.);
#905=ORIENTED_EDGE('',*,*,#648,.F.);
#906=ORIENTED_EDGE('',*,*,#649,.F.);
#907=ORIENTED_EDGE('',*,*,#599,.F.);
#908=ORIENTED_EDGE('',*,*,#650,.T.);
#909=ORIENTED_EDGE('',*,*,#651,.T.);
#910=ORIENTED_EDGE('',*,*,#589,.F.);
#911=ORIENTED_EDGE('',*,*,#652,.T.);
#912=ORIENTED_EDGE('',*,*,#653,.T.);
#913=ORIENTED_EDGE('',*,*,#598,.F.);
#914=ORIENTED_EDGE('',*,*,#647,.T.);
#915=ORIENTED_EDGE('',*,*,#654,.F.);
#916=ORIENTED_EDGE('',*,*,#650,.F.);
#917=ORIENTED_EDGE('',*,*,#648,.T.);
#918=ORIENTED_EDGE('',*,*,#655,.T.);
#919=ORIENTED_EDGE('',*,*,#653,.F.);
#920=ORIENTED_EDGE('',*,*,#655,.F.);
#921=ORIENTED_EDGE('',*,*,#649,.T.);
#922=ORIENTED_EDGE('',*,*,#656,.T.);
#923=ORIENTED_EDGE('',*,*,#652,.F.);
#924=ORIENTED_EDGE('',*,*,#656,.F.);
#925=ORIENTED_EDGE('',*,*,#651,.F.);
#926=ORIENTED_EDGE('',*,*,#654,.T.);
#927=ORIENTED_EDGE('',*,*,#646,.T.);
#928=ORIENTED_EDGE('',*,*,#590,.F.);
#929=PLANE('',#1050);
#930=PLANE('',#1051);
#931=PLANE('',#1054);
#932=PLANE('',#1055);
#933=PLANE('',#1056);
#934=PLANE('',#1057);
#935=PLANE('',#1059);
#936=PLANE('',#1063);
#937=PLANE('',#1069);
#938=PLANE('',#1070);
#939=PLANE('',#1074);
#940=PLANE('',#1075);
#941=PLANE('',#1076);
#942=PLANE('',#1077);
#943=PLANE('',#1078);
#944=PLANE('',#1079);
#945=PLANE('',#1080);
#946=PLANE('',#1081);
#947=PLANE('',#1082);
#948=PLANE('',#1083);
#949=PLANE('',#1084);
#950=PLANE('',#1089);
#951=PLANE('',#1090);
#952=PLANE('',#1091);
#953=PLANE('',#1092);
#954=PLANE('',#1093);
#955=PLANE('',#1094);
#956=PLANE('',#1095);
#957=PLANE('',#1096);
#958=PLANE('',#1098);
#959=PLANE('',#1102);
#960=PLANE('',#1108);
#961=PLANE('',#1109);
#962=PLANE('',#1113);
#963=PLANE('',#1114);
#964=PLANE('',#1115);
#965=PLANE('',#1116);
#966=PLANE('',#1117);
#967=PLANE('',#1118);
#968=PLANE('',#1119);
#969=PLANE('',#1120);
#970=PLANE('',#1121);
#971=PLANE('',#1122);
#972=PLANE('',#1125);
#973=PLANE('',#1128);
#974=PLANE('',#1131);
#975=ADVANCED_FACE('',(#77),#929,.F.);
#976=ADVANCED_FACE('',(#78,#37,#38),#930,.T.);
#977=ADVANCED_FACE('',(#79),#931,.T.);
#978=ADVANCED_FACE('',(#80),#932,.F.);
#979=ADVANCED_FACE('',(#81),#933,.F.);
#980=ADVANCED_FACE('',(#82,#39),#934,.F.);
#981=ADVANCED_FACE('',(#83),#935,.F.);
#982=ADVANCED_FACE('',(#84),#21,.F.);
#983=ADVANCED_FACE('',(#85,#40),#936,.T.);
#984=ADVANCED_FACE('',(#86),#22,.F.);
#985=ADVANCED_FACE('',(#87),#23,.F.);
#986=ADVANCED_FACE('',(#88,#41),#937,.F.);
#987=ADVANCED_FACE('',(#89,#42),#938,.F.);
#988=ADVANCED_FACE('',(#90),#24,.F.);
#989=ADVANCED_FACE('',(#91),#939,.F.);
#990=ADVANCED_FACE('',(#92,#43),#940,.F.);
#991=ADVANCED_FACE('',(#93),#941,.F.);
#992=ADVANCED_FACE('',(#94,#44),#942,.F.);
#993=ADVANCED_FACE('',(#95),#943,.F.);
#994=ADVANCED_FACE('',(#96),#944,.F.);
#995=ADVANCED_FACE('',(#97),#945,.F.);
#996=ADVANCED_FACE('',(#98),#19,.F.);
#997=ADVANCED_FACE('',(#99),#946,.T.);
#998=ADVANCED_FACE('',(#100),#947,.T.);
#999=ADVANCED_FACE('',(#101),#948,.F.);
#1000=ADVANCED_FACE('',(#102),#949,.T.);
#1001=ADVANCED_FACE('',(#103),#25,.F.);
#1002=ADVANCED_FACE('',(#104),#26,.F.);
#1003=ADVANCED_FACE('',(#105),#950,.F.);
#1004=ADVANCED_FACE('',(#106,#45,#46),#951,.F.);
#1005=ADVANCED_FACE('',(#107),#952,.T.);
#1006=ADVANCED_FACE('',(#108),#953,.T.);
#1007=ADVANCED_FACE('',(#109),#954,.T.);
#1008=ADVANCED_FACE('',(#110),#955,.F.);
#1009=ADVANCED_FACE('',(#111),#956,.T.);
#1010=ADVANCED_FACE('',(#112),#20,.T.);
#1011=ADVANCED_FACE('',(#113,#47),#957,.T.);
#1012=ADVANCED_FACE('',(#114),#958,.T.);
#1013=ADVANCED_FACE('',(#115),#27,.F.);
#1014=ADVANCED_FACE('',(#116,#48),#959,.F.);
#1015=ADVANCED_FACE('',(#117),#28,.F.);
#1016=ADVANCED_FACE('',(#118),#29,.F.);
#1017=ADVANCED_FACE('',(#119,#49),#960,.T.);
#1018=ADVANCED_FACE('',(#120,#50),#961,.T.);
#1019=ADVANCED_FACE('',(#121),#30,.F.);
#1020=ADVANCED_FACE('',(#122),#962,.T.);
#1021=ADVANCED_FACE('',(#123,#51),#963,.T.);
#1022=ADVANCED_FACE('',(#124),#964,.T.);
#1023=ADVANCED_FACE('',(#125,#52),#965,.T.);
#1024=ADVANCED_FACE('',(#126),#966,.F.);
#1025=ADVANCED_FACE('',(#127),#967,.T.);
#1026=ADVANCED_FACE('',(#128),#968,.T.);
#1027=ADVANCED_FACE('',(#129),#969,.T.);
#1028=ADVANCED_FACE('',(#130),#970,.T.);
#1029=ADVANCED_FACE('',(#131,#53,#54),#971,.F.);
#1030=ADVANCED_FACE('',(#132,#55,#56),#972,.T.);
#1031=ADVANCED_FACE('',(#133),#973,.F.);
#1032=ADVANCED_FACE('',(#134),#31,.F.);
#1033=ADVANCED_FACE('',(#135),#32,.F.);
#1034=ADVANCED_FACE('',(#136),#974,.T.);
#1035=CLOSED_SHELL('',(#975,#976,#977,#978,#979,#980,#981,#982,#983,#984,
#985,#986,#987,#988,#989,#990,#991,#992,#993,#994,#995,#996,#997,#998,#999,
#1000,#1001,#1002,#1003,#1004));
#1036=CLOSED_SHELL('',(#1005,#1006,#1007,#1008,#1009,#1010,#1011,#1012,
#1013,#1014,#1015,#1016,#1017,#1018,#1019,#1020,#1021,#1022,#1023,#1024,
#1025,#1026,#1027,#1028,#1029,#1030,#1031,#1032,#1033,#1034));
#1037=DERIVED_UNIT_ELEMENT(#1039,1.);
#1038=DERIVED_UNIT_ELEMENT(#1736,-3.);
#1039=(
MASS_UNIT()
NAMED_UNIT(*)
SI_UNIT(.KILO.,.GRAM.)
);
#1040=DERIVED_UNIT((#1037,#1038));
#1041=MEASURE_REPRESENTATION_ITEM('density measure',
POSITIVE_RATIO_MEASURE(992.85),#1040);
#1042=PROPERTY_DEFINITION_REPRESENTATION(#1047,#1044);
#1043=PROPERTY_DEFINITION_REPRESENTATION(#1048,#1045);
#1044=REPRESENTATION('material name',(#1046),#1733);
#1045=REPRESENTATION('density',(#1041),#1733);
#1046=DESCRIPTIVE_REPRESENTATION_ITEM(
'HP 3D HR CB PA 12 (mit 3D-Drucker HP Jet Fusion 580 Color)',
'HP 3D HR CB PA 12 (mit 3D-Drucker HP Jet Fusion 580 Color)');
#1047=PROPERTY_DEFINITION('material property','material name',#1743);
#1048=PROPERTY_DEFINITION('material property','density of part',#1743);
#1049=AXIS2_PLACEMENT_3D('',#1408,#1132,#1133);
#1050=AXIS2_PLACEMENT_3D('',#1409,#1134,#1135);
#1051=AXIS2_PLACEMENT_3D('',#1422,#1142,#1143);
#1052=AXIS2_PLACEMENT_3D('',#1433,#1149,#1150);
#1053=AXIS2_PLACEMENT_3D('',#1435,#1151,#1152);
#1054=AXIS2_PLACEMENT_3D('',#1436,#1153,#1154);
#1055=AXIS2_PLACEMENT_3D('',#1442,#1158,#1159);
#1056=AXIS2_PLACEMENT_3D('',#1447,#1163,#1164);
#1057=AXIS2_PLACEMENT_3D('',#1455,#1169,#1170);
#1058=AXIS2_PLACEMENT_3D('',#1460,#1173,#1174);
#1059=AXIS2_PLACEMENT_3D('',#1461,#1175,#1176);
#1060=AXIS2_PLACEMENT_3D('',#1465,#1179,#1180);
#1061=AXIS2_PLACEMENT_3D('',#1467,#1181,#1182);
#1062=AXIS2_PLACEMENT_3D('',#1470,#1184,#1185);
#1063=AXIS2_PLACEMENT_3D('',#1471,#1186,#1187);
#1064=AXIS2_PLACEMENT_3D('',#1473,#1188,#1189);
#1065=AXIS2_PLACEMENT_3D('',#1474,#1190,#1191);
#1066=AXIS2_PLACEMENT_3D('',#1476,#1193,#1194);
#1067=AXIS2_PLACEMENT_3D('',#1478,#1195,#1196);
#1068=AXIS2_PLACEMENT_3D('',#1481,#1198,#1199);
#1069=AXIS2_PLACEMENT_3D('',#1482,#1200,#1201);
#1070=AXIS2_PLACEMENT_3D('',#1485,#1204,#1205);
#1071=AXIS2_PLACEMENT_3D('',#1487,#1206,#1207);
#1072=AXIS2_PLACEMENT_3D('',#1488,#1208,#1209);
#1073=AXIS2_PLACEMENT_3D('',#1490,#1210,#1211);
#1074=AXIS2_PLACEMENT_3D('',#1492,#1213,#1214);
#1075=AXIS2_PLACEMENT_3D('',#1501,#1219,#1220);
#1076=AXIS2_PLACEMENT_3D('',#1507,#1224,#1225);
#1077=AXIS2_PLACEMENT_3D('',#1511,#1228,#1229);
#1078=AXIS2_PLACEMENT_3D('',#1515,#1232,#1233);
#1079=AXIS2_PLACEMENT_3D('',#1519,#1236,#1237);
#1080=AXIS2_PLACEMENT_3D('',#1522,#1240,#1241);
#1081=AXIS2_PLACEMENT_3D('',#1551,#1245,#1246);
#1082=AXIS2_PLACEMENT_3D('',#1553,#1248,#1249);
#1083=AXIS2_PLACEMENT_3D('',#1554,#1250,#1251);
#1084=AXIS2_PLACEMENT_3D('',#1555,#1252,#1253);
#1085=AXIS2_PLACEMENT_3D('',#1559,#1256,#1257);
#1086=AXIS2_PLACEMENT_3D('',#1562,#1259,#1260);
#1087=AXIS2_PLACEMENT_3D('',#1563,#1261,#1262);
#1088=AXIS2_PLACEMENT_3D('',#1566,#1264,#1265);
#1089=AXIS2_PLACEMENT_3D('',#1567,#1266,#1267);
#1090=AXIS2_PLACEMENT_3D('',#1569,#1269,#1270);
#1091=AXIS2_PLACEMENT_3D('',#1570,#1271,#1272);
#1092=AXIS2_PLACEMENT_3D('',#1583,#1279,#1280);
#1093=AXIS2_PLACEMENT_3D('',#1593,#1286,#1287);
#1094=AXIS2_PLACEMENT_3D('',#1597,#1290,#1291);
#1095=AXIS2_PLACEMENT_3D('',#1601,#1294,#1295);
#1096=AXIS2_PLACEMENT_3D('',#1636,#1302,#1303);
#1097=AXIS2_PLACEMENT_3D('',#1642,#1307,#1308);
#1098=AXIS2_PLACEMENT_3D('',#1643,#1309,#1310);
#1099=AXIS2_PLACEMENT_3D('',#1647,#1313,#1314);
#1100=AXIS2_PLACEMENT_3D('',#1649,#1315,#1316);
#1101=AXIS2_PLACEMENT_3D('',#1652,#1318,#1319);
#1102=AXIS2_PLACEMENT_3D('',#1653,#1320,#1321);
#1103=AXIS2_PLACEMENT_3D('',#1655,#1322,#1323);
#1104=AXIS2_PLACEMENT_3D('',#1656,#1324,#1325);
#1105=AXIS2_PLACEMENT_3D('',#1658,#1327,#1328);
#1106=AXIS2_PLACEMENT_3D('',#1660,#1329,#1330);
#1107=AXIS2_PLACEMENT_3D('',#1663,#1332,#1333);
#1108=AXIS2_PLACEMENT_3D('',#1664,#1334,#1335);
#1109=AXIS2_PLACEMENT_3D('',#1666,#1337,#1338);
#1110=AXIS2_PLACEMENT_3D('',#1668,#1339,#1340);
#1111=AXIS2_PLACEMENT_3D('',#1669,#1341,#1342);
#1112=AXIS2_PLACEMENT_3D('',#1671,#1343,#1344);
#1113=AXIS2_PLACEMENT_3D('',#1673,#1346,#1347);
#1114=AXIS2_PLACEMENT_3D('',#1682,#1352,#1353);
#1115=AXIS2_PLACEMENT_3D('',#1688,#1357,#1358);
#1116=AXIS2_PLACEMENT_3D('',#1692,#1361,#1362);
#1117=AXIS2_PLACEMENT_3D('',#1696,#1365,#1366);
#1118=AXIS2_PLACEMENT_3D('',#1700,#1370,#1371);
#1119=AXIS2_PLACEMENT_3D('',#1704,#1374,#1375);
#1120=AXIS2_PLACEMENT_3D('',#1706,#1377,#1378);
#1121=AXIS2_PLACEMENT_3D('',#1707,#1379,#1380);
#1122=AXIS2_PLACEMENT_3D('',#1708,#1381,#1382);
#1123=AXIS2_PLACEMENT_3D('',#1713,#1385,#1386);
#1124=AXIS2_PLACEMENT_3D('',#1715,#1387,#1388);
#1125=AXIS2_PLACEMENT_3D('',#1716,#1389,#1390);
#1126=AXIS2_PLACEMENT_3D('',#1721,#1393,#1394);
#1127=AXIS2_PLACEMENT_3D('',#1723,#1395,#1396);
#1128=AXIS2_PLACEMENT_3D('',#1724,#1397,#1398);
#1129=AXIS2_PLACEMENT_3D('',#1726,#1400,#1401);
#1130=AXIS2_PLACEMENT_3D('',#1728,#1403,#1404);
#1131=AXIS2_PLACEMENT_3D('',#1730,#1406,#1407);
#1132=DIRECTION('axis',(0.,0.,1.));
#1133=DIRECTION('refdir',(1.,0.,0.));
#1134=DIRECTION('center_axis',(0.,-1.,0.));
#1135=DIRECTION('ref_axis',(0.,0.,-1.));
#1136=DIRECTION('',(0.,0.,1.));
#1137=DIRECTION('',(1.,0.,0.));
#1138=DIRECTION('',(0.,0.,-1.));
#1139=DIRECTION('',(1.,0.,0.));
#1140=DIRECTION('',(-7.96462971673266E-6,0.,-0.999999999968282));
#1141=DIRECTION('',(1.,0.,0.));
#1142=DIRECTION('center_axis',(0.,0.,1.));
#1143=DIRECTION('ref_axis',(1.,0.,0.));
#1144=DIRECTION('',(0.,-1.,0.));
#1145=DIRECTION('',(1.,0.,0.));
#1146=DIRECTION('',(0.,1.,0.));
#1147=DIRECTION('',(0.,-1.,0.));
#1148=DIRECTION('',(1.,0.,0.));
#1149=DIRECTION('center_axis',(0.,0.,-1.));
#1150=DIRECTION('ref_axis',(1.,0.,0.));
#1151=DIRECTION('center_axis',(0.,0.,-1.));
#1152=DIRECTION('ref_axis',(1.,0.,0.));
#1153=DIRECTION('center_axis',(0.,-1.,0.));
#1154=DIRECTION('ref_axis',(0.,0.,-1.));
#1155=DIRECTION('',(0.,0.,-1.));
#1156=DIRECTION('',(-1.,0.,0.));
#1157=DIRECTION('',(0.,0.,1.));
#1158=DIRECTION('center_axis',(1.,0.,0.));
#1159=DIRECTION('ref_axis',(0.,1.,0.));
#1160=DIRECTION('',(0.,1.,0.));
#1161=DIRECTION('',(0.,1.,0.));
#1162=DIRECTION('',(0.,0.,-1.));
#1163=DIRECTION('center_axis',(-0.620963650242331,-0.783839361781303,0.));
#1164=DIRECTION('ref_axis',(0.,0.,1.));
#1165=DIRECTION('',(0.766520231491575,-0.607243300272547,-0.209050972224975));
#1166=DIRECTION('',(0.,0.,-1.));
#1167=DIRECTION('',(0.,0.,-1.));
#1168=DIRECTION('',(0.747502359587777,-0.592177193959148,0.300942508405469));
#1169=DIRECTION('center_axis',(-0.263117405792109,0.,-0.964763821237732));
#1170=DIRECTION('ref_axis',(-0.964763821237732,0.,0.263117405792109));
#1171=DIRECTION('',(0.899309363833339,0.362059614010825,-0.245266190136365));
#1172=DIRECTION('',(0.,1.,0.));
#1173=DIRECTION('center_axis',(-0.263117405792109,0.,-0.964763821237732));
#1174=DIRECTION('ref_axis',(-0.964763821237732,0.,0.263117405792109));
#1175=DIRECTION('center_axis',(-0.373466870857975,0.92764351793755,0.));
#1176=DIRECTION('ref_axis',(0.,0.,1.));
#1177=DIRECTION('',(0.869016928259941,0.349863958130626,0.349863958130626));
#1178=DIRECTION('',(0.,0.,1.));
#1179=DIRECTION('center_axis',(0.,0.,-1.));
#1180=DIRECTION('ref_axis',(-1.,0.,0.));
#1181=DIRECTION('center_axis',(0.,0.,1.));
#1182=DIRECTION('ref_axis',(-1.,0.,0.));
#1183=DIRECTION('',(0.,0.,-1.));
#1184=DIRECTION('center_axis',(0.,0.,-1.));
#1185=DIRECTION('ref_axis',(-1.,0.,0.));
#1186=DIRECTION('center_axis',(0.,0.,1.));
#1187=DIRECTION('ref_axis',(-1.,0.,0.));
#1188=DIRECTION('center_axis',(0.,0.,-1.));
#1189=DIRECTION('ref_axis',(-1.,0.,0.));
#1190=DIRECTION('center_axis',(0.,0.,-1.));
#1191=DIRECTION('ref_axis',(-1.,0.,0.));
#1192=DIRECTION('',(0.,0.,-1.));
#1193=DIRECTION('center_axis',(0.,0.,1.));
#1194=DIRECTION('ref_axis',(-1.,0.,0.));
#1195=DIRECTION('center_axis',(-0.373466870857975,0.,0.92764351793755));
#1196=DIRECTION('ref_axis',(-0.92764351793755,0.,-0.373466870857975));
#1197=DIRECTION('',(0.,0.,1.));
#1198=DIRECTION('center_axis',(0.,0.,1.));
#1199=DIRECTION('ref_axis',(-1.,0.,0.));
#1200=DIRECTION('center_axis',(-0.373466870857975,0.,0.92764351793755));
#1201=DIRECTION('ref_axis',(0.92764351793755,0.,0.373466870857975));
#1202=DIRECTION('',(0.,-1.,0.));
#1203=DIRECTION('',(0.,-1.,0.));
#1204=DIRECTION('center_axis',(0.,0.,1.));
#1205=DIRECTION('ref_axis',(-1.,0.,0.));
#1206=DIRECTION('center_axis',(0.,0.,-1.));
#1207=DIRECTION('ref_axis',(-1.,0.,0.));
#1208=DIRECTION('center_axis',(0.,0.,-1.));
#1209=DIRECTION('ref_axis',(-1.,0.,0.));
#1210=DIRECTION('center_axis',(0.,0.,1.));
#1211=DIRECTION('ref_axis',(-1.,0.,0.));
#1212=DIRECTION('',(0.,0.,-1.));
#1213=DIRECTION('center_axis',(-1.,0.,0.));
#1214=DIRECTION('ref_axis',(0.,0.,1.));
#1215=DIRECTION('',(0.,-1.,0.));
#1216=DIRECTION('',(0.,0.,-1.));
#1217=DIRECTION('',(0.,1.,0.));
#1218=DIRECTION('',(0.,0.,1.));
#1219=DIRECTION('center_axis',(0.,0.,-1.));
#1220=DIRECTION('ref_axis',(0.,-1.,0.));
#1221=DIRECTION('',(0.,1.,0.));
#1222=DIRECTION('',(-1.,0.,0.));
#1223=DIRECTION('',(-1.,0.,0.));
#1224=DIRECTION('center_axis',(0.,-1.,0.));
#1225=DIRECTION('ref_axis',(0.,0.,1.));
#1226=DIRECTION('',(0.,0.,-1.));
#1227=DIRECTION('',(-1.,0.,0.));
#1228=DIRECTION('center_axis',(0.,0.,1.));
#1229=DIRECTION('ref_axis',(0.,1.,0.));
#1230=DIRECTION('',(0.,-1.,0.));
#1231=DIRECTION('',(-1.,0.,0.));
#1232=DIRECTION('center_axis',(0.,1.,0.));
#1233=DIRECTION('ref_axis',(0.,0.,-1.));
#1234=DIRECTION('',(0.,0.,1.));
#1235=DIRECTION('',(0.,0.,1.));
#1236=DIRECTION('center_axis',(-1.,0.,0.));
#1237=DIRECTION('ref_axis',(0.,0.,1.));
#1238=DIRECTION('',(0.,1.,0.));
#1239=DIRECTION('',(0.,1.,0.));
#1240=DIRECTION('center_axis',(-0.642140812018321,-0.766586705820321,0.));
#1241=DIRECTION('ref_axis',(0.,0.,1.));
#1242=DIRECTION('',(0.766586705820321,-0.642140812018321,0.));
#1243=DIRECTION('',(0.757042445667149,-0.634145944747157,0.157307521177589));
#1244=DIRECTION('',(-2.1509048102576E-15,1.80173195144955E-15,1.));
#1245=DIRECTION('center_axis',(0.783839361781301,-0.620963650242333,2.804773903055E-15));
#1246=DIRECTION('ref_axis',(-2.19849218611149E-15,1.74166264094546E-15,
1.));
#1247=DIRECTION('',(-0.620963650242333,-0.783839361781301,0.));
#1248=DIRECTION('center_axis',(0.,0.,-1.));
#1249=DIRECTION('ref_axis',(0.,-1.,0.));
#1250=DIRECTION('center_axis',(0.,0.,1.));
#1251=DIRECTION('ref_axis',(1.,0.,0.));
#1252=DIRECTION('center_axis',(-1.,0.,0.));
#1253=DIRECTION('ref_axis',(0.,-1.,0.));
#1254=DIRECTION('',(0.,-1.,0.));
#1255=DIRECTION('',(0.,0.,1.));
#1256=DIRECTION('center_axis',(0.,0.,1.));
#1257=DIRECTION('ref_axis',(1.,0.,0.));
#1258=DIRECTION('',(0.,0.,-1.));
#1259=DIRECTION('center_axis',(0.,0.,-1.));
#1260=DIRECTION('ref_axis',(1.,0.,0.));
#1261=DIRECTION('center_axis',(0.,0.,1.));
#1262=DIRECTION('ref_axis',(1.,0.,0.));
#1263=DIRECTION('',(0.,0.,-1.));
#1264=DIRECTION('center_axis',(0.,0.,-1.));
#1265=DIRECTION('ref_axis',(1.,0.,0.));
#1266=DIRECTION('center_axis',(0.,1.,0.));
#1267=DIRECTION('ref_axis',(0.,0.,1.));
#1268=DIRECTION('',(1.,0.,0.));
#1269=DIRECTION('center_axis',(0.,0.,1.));
#1270=DIRECTION('ref_axis',(1.,0.,0.));
#1271=DIRECTION('center_axis',(1.,0.,0.));
#1272=DIRECTION('ref_axis',(0.,1.,0.));
#1273=DIRECTION('',(0.,-1.,0.));
#1274=DIRECTION('',(0.,0.,1.));
#1275=DIRECTION('',(0.,1.,0.));
#1276=DIRECTION('',(0.,0.,1.));
#1277=DIRECTION('',(0.,-1.,0.));
#1278=DIRECTION('',(0.,0.,-1.));
#1279=DIRECTION('center_axis',(0.,1.,0.));
#1280=DIRECTION('ref_axis',(0.,0.,-1.));
#1281=DIRECTION('',(-1.,0.,0.));
#1282=DIRECTION('',(0.,0.,-1.));
#1283=DIRECTION('',(-1.,0.,0.));
#1284=DIRECTION('',(0.,0.,-1.));
#1285=DIRECTION('',(-1.,0.,0.));
#1286=DIRECTION('center_axis',(0.,0.,-1.));
#1287=DIRECTION('ref_axis',(-1.,0.,0.));
#1288=DIRECTION('',(1.,0.,0.));
#1289=DIRECTION('',(0.,-1.,0.));
#1290=DIRECTION('center_axis',(0.,1.,0.));
#1291=DIRECTION('ref_axis',(0.,0.,-1.));
#1292=DIRECTION('',(-1.,0.,0.));
#1293=DIRECTION('',(0.,0.,1.));
#1294=DIRECTION('center_axis',(-0.620963650242331,0.783839361781303,0.));
#1295=DIRECTION('ref_axis',(0.,0.,1.));
#1296=DIRECTION('',(-0.747502359587777,-0.592177193959148,0.300942508405469));
#1297=DIRECTION('',(0.,0.,-1.));
#1298=DIRECTION('',(0.,0.,-1.));
#1299=DIRECTION('',(-0.766520231491575,-0.607243300272547,-0.209050972224975));
#1300=DIRECTION('',(0.,1.,0.));
#1301=DIRECTION('',(-0.757042445667149,-0.634145944747157,0.157307521177589));
#1302=DIRECTION('center_axis',(-0.263117405792109,0.,0.964763821237732));
#1303=DIRECTION('ref_axis',(0.964763821237732,0.,0.263117405792109));
#1304=DIRECTION('',(0.,1.,0.));
#1305=DIRECTION('',(0.,1.,0.));
#1306=DIRECTION('',(-0.899309363833339,0.362059614010825,-0.245266190136365));
#1307=DIRECTION('center_axis',(-0.263117405792109,0.,0.964763821237732));
#1308=DIRECTION('ref_axis',(0.964763821237732,0.,0.263117405792109));
#1309=DIRECTION('center_axis',(-0.373466870857975,-0.92764351793755,0.));
#1310=DIRECTION('ref_axis',(0.,0.,1.));
#1311=DIRECTION('',(0.,0.,1.));
#1312=DIRECTION('',(-0.869016928259941,0.349863958130626,0.349863958130626));
#1313=DIRECTION('center_axis',(0.,0.,1.));
#1314=DIRECTION('ref_axis',(1.,0.,0.));
#1315=DIRECTION('center_axis',(0.,0.,-1.));
#1316=DIRECTION('ref_axis',(1.,0.,0.));
#1317=DIRECTION('',(0.,0.,-1.));
#1318=DIRECTION('center_axis',(0.,0.,1.));
#1319=DIRECTION('ref_axis',(1.,0.,0.));
#1320=DIRECTION('center_axis',(0.,0.,-1.));
#1321=DIRECTION('ref_axis',(1.,0.,0.));
#1322=DIRECTION('center_axis',(0.,0.,1.));
#1323=DIRECTION('ref_axis',(1.,0.,0.));
#1324=DIRECTION('center_axis',(0.,0.,1.));
#1325=DIRECTION('ref_axis',(1.,0.,0.));
#1326=DIRECTION('',(0.,0.,-1.));
#1327=DIRECTION('center_axis',(0.,0.,-1.));
#1328=DIRECTION('ref_axis',(1.,0.,0.));
#1329=DIRECTION('center_axis',(-0.373466870857975,0.,-0.92764351793755));
#1330=DIRECTION('ref_axis',(0.92764351793755,0.,-0.373466870857975));
#1331=DIRECTION('',(0.,0.,1.));
#1332=DIRECTION('center_axis',(0.,0.,-1.));
#1333=DIRECTION('ref_axis',(1.,0.,0.));
#1334=DIRECTION('center_axis',(-0.373466870857975,0.,-0.92764351793755));
#1335=DIRECTION('ref_axis',(-0.92764351793755,0.,0.373466870857975));
#1336=DIRECTION('',(0.,-1.,0.));
#1337=DIRECTION('center_axis',(0.,0.,-1.));
#1338=DIRECTION('ref_axis',(1.,0.,0.));
#1339=DIRECTION('center_axis',(0.,0.,1.));
#1340=DIRECTION('ref_axis',(1.,0.,0.));
#1341=DIRECTION('center_axis',(0.,0.,1.));
#1342=DIRECTION('ref_axis',(1.,0.,0.));
#1343=DIRECTION('center_axis',(0.,0.,-1.));
#1344=DIRECTION('ref_axis',(1.,0.,0.));
#1345=DIRECTION('',(0.,0.,-1.));
#1346=DIRECTION('center_axis',(-1.,0.,0.));
#1347=DIRECTION('ref_axis',(0.,0.,1.));
#1348=DIRECTION('',(0.,-1.,0.));
#1349=DIRECTION('',(0.,0.,1.));
#1350=DIRECTION('',(0.,1.,0.));
#1351=DIRECTION('',(0.,0.,-1.));
#1352=DIRECTION('center_axis',(0.,0.,-1.));
#1353=DIRECTION('ref_axis',(0.,1.,0.));
#1354=DIRECTION('',(0.,1.,0.));
#1355=DIRECTION('',(1.,0.,0.));
#1356=DIRECTION('',(1.,0.,0.));
#1357=DIRECTION('center_axis',(0.,1.,0.));
#1358=DIRECTION('ref_axis',(0.,0.,1.));
#1359=DIRECTION('',(0.,0.,1.));
#1360=DIRECTION('',(1.,0.,0.));
#1361=DIRECTION('center_axis',(0.,0.,1.));
#1362=DIRECTION('ref_axis',(0.,-1.,0.));
#1363=DIRECTION('',(0.,-1.,0.));
#1364=DIRECTION('',(1.,0.,0.));
#1365=DIRECTION('center_axis',(1.,0.,0.));
#1366=DIRECTION('ref_axis',(0.,0.,-1.));
#1367=DIRECTION('',(0.,0.,-1.));
#1368=DIRECTION('',(0.,0.,-1.));
#1369=DIRECTION('',(0.,1.,0.));
#1370=DIRECTION('center_axis',(-0.783839361781301,-0.620963650242333,-1.4023869515275E-15));
#1371=DIRECTION('ref_axis',(1.51727855669289E-15,3.43150997520927E-16,-1.));
#1372=DIRECTION('',(-0.620963650242333,0.783839361781301,0.));
#1373=DIRECTION('',(1.0754524051288E-15,9.00865975724773E-16,-1.));
#1374=DIRECTION('center_axis',(-0.642140812018321,0.766586705820321,0.));
#1375=DIRECTION('ref_axis',(0.,0.,1.));
#1376=DIRECTION('',(0.766586705820321,0.642140812018321,0.));
#1377=DIRECTION('center_axis',(0.,-1.,0.));
#1378=DIRECTION('ref_axis',(0.,0.,-1.));
#1379=DIRECTION('center_axis',(0.,0.,-1.));
#1380=DIRECTION('ref_axis',(0.,1.,0.));
#1381=DIRECTION('center_axis',(0.,0.,-1.));
#1382=DIRECTION('ref_axis',(-1.,0.,0.));
#1383=DIRECTION('',(-1.,0.,0.));
#1384=DIRECTION('',(0.,-1.,0.));
#1385=DIRECTION('center_axis',(0.,0.,1.));
#1386=DIRECTION('ref_axis',(-1.,0.,0.));
#1387=DIRECTION('center_axis',(0.,0.,1.));
#1388=DIRECTION('ref_axis',(-1.,0.,0.));
#1389=DIRECTION('center_axis',(0.,0.,-1.));
#1390=DIRECTION('ref_axis',(-1.,0.,0.));
#1391=DIRECTION('',(0.,-1.,0.));
#1392=DIRECTION('',(-1.,0.,0.));
#1393=DIRECTION('center_axis',(0.,0.,1.));
#1394=DIRECTION('ref_axis',(-1.,0.,0.));
#1395=DIRECTION('center_axis',(0.,0.,1.));
#1396=DIRECTION('ref_axis',(-1.,0.,0.));
#1397=DIRECTION('center_axis',(-1.,0.,0.));
#1398=DIRECTION('ref_axis',(0.,-1.,0.));
#1399=DIRECTION('',(0.,0.,1.));
#1400=DIRECTION('center_axis',(0.,0.,-1.));
#1401=DIRECTION('ref_axis',(-1.,0.,0.));
#1402=DIRECTION('',(0.,0.,-1.));
#1403=DIRECTION('center_axis',(0.,0.,-1.));
#1404=DIRECTION('ref_axis',(-1.,0.,0.));
#1405=DIRECTION('',(0.,0.,-1.));
#1406=DIRECTION('center_axis',(0.,-1.,0.));
#1407=DIRECTION('ref_axis',(0.,0.,1.));
#1408=CARTESIAN_POINT('',(0.,0.,0.));
#1409=CARTESIAN_POINT('Origin',(-160.,42.,-35.));
#1410=CARTESIAN_POINT('',(-155.5,42.,-40.));
#1411=CARTESIAN_POINT('',(-155.5,42.,0.));
#1412=CARTESIAN_POINT('',(-155.5,42.,-26.25));
#1413=CARTESIAN_POINT('',(-200.,42.,0.));
#1414=CARTESIAN_POINT('',(-170.,42.,0.));
#1415=CARTESIAN_POINT('',(-200.,42.,5.));
#1416=CARTESIAN_POINT('',(-200.,42.,-17.5));
#1417=CARTESIAN_POINT('',(-152.5,42.,5.));
#1418=CARTESIAN_POINT('',(-155.5,42.,5.));
#1419=CARTESIAN_POINT('',(-152.500290483443,42.,-39.9999999999504));
#1420=CARTESIAN_POINT('',(-152.500159292832,42.,-15.0000298660927));
#1421=CARTESIAN_POINT('',(-170.,42.,-40.));
#1422=CARTESIAN_POINT('Origin',(-180.,22.,5.));
#1423=CARTESIAN_POINT('',(-155.5,2.,5.));
#1424=CARTESIAN_POINT('',(-155.5,-23.,5.));
#1425=CARTESIAN_POINT('',(-155.5,22.,5.));
#1426=CARTESIAN_POINT('',(-152.5,-23.,5.));
#1427=CARTESIAN_POINT('',(-152.5,-23.,5.));
#1428=CARTESIAN_POINT('',(-152.5,15.75,5.));
#1429=CARTESIAN_POINT('',(-200.,2.,5.));
#1430=CARTESIAN_POINT('',(-200.,44.,5.));
#1431=CARTESIAN_POINT('',(-160.,2.,5.));
#1432=CARTESIAN_POINT('',(-192.9,12.,5.));
#1433=CARTESIAN_POINT('Origin',(-190.4,12.,5.));
#1434=CARTESIAN_POINT('',(-192.9,32.,5.));
#1435=CARTESIAN_POINT('Origin',(-190.4,32.,5.));
#1436=CARTESIAN_POINT('Origin',(-152.5,-23.,5.));
#1437=CARTESIAN_POINT('',(-155.5,-23.,-40.));
#1438=CARTESIAN_POINT('',(-155.5,-23.,-6.25));
#1439=CARTESIAN_POINT('',(-152.5,-23.,-40.));
#1440=CARTESIAN_POINT('',(-157.5,-23.,-40.));
#1441=CARTESIAN_POINT('',(-152.5,-23.,-5.));
#1442=CARTESIAN_POINT('Origin',(-155.5,22.,-15.));
#1443=CARTESIAN_POINT('',(-155.5,2.,0.));
#1444=CARTESIAN_POINT('',(-155.5,12.,0.));
#1445=CARTESIAN_POINT('',(-155.5,22.,-40.));
#1446=CARTESIAN_POINT('',(-155.5,2.,-5.));
#1447=CARTESIAN_POINT('Origin',(-152.5,42.,-32.));
#1448=CARTESIAN_POINT('',(-114.,11.5,-5.5));
#1449=CARTESIAN_POINT('',(-152.5,42.,5.));
#1450=CARTESIAN_POINT('',(-114.,11.5,-20.5));
#1451=CARTESIAN_POINT('',(-114.,11.5,-5.5));
#1452=CARTESIAN_POINT('',(-114.,11.5,-24.5));
#1453=CARTESIAN_POINT('',(-114.,11.5,-5.5));
#1454=CARTESIAN_POINT('',(-152.5,42.,-40.));
#1455=CARTESIAN_POINT('Origin',(-152.5,-23.,5.));
#1456=CARTESIAN_POINT('',(-114.,-7.5,-5.5));
#1457=CARTESIAN_POINT('',(-152.5,-23.,5.));
#1458=CARTESIAN_POINT('',(-114.,-7.5,-5.5));
#1459=CARTESIAN_POINT('',(-129.000001974404,2.00079988079071,-1.40909037061713));
#1460=CARTESIAN_POINT('Origin',(-132.500001974404,2.00079988079071,-0.454544916071676));
#1461=CARTESIAN_POINT('Origin',(-152.5,-23.,-40.));
#1462=CARTESIAN_POINT('',(-114.,-7.5,-24.5));
#1463=CARTESIAN_POINT('',(-152.5,-23.,-40.));
#1464=CARTESIAN_POINT('',(-114.,-7.5,-24.5));
#1465=CARTESIAN_POINT('Origin',(-132.500001974404,2.00079988079071,5.));
#1466=CARTESIAN_POINT('',(-131.000001974404,2.00079988079071,-1.5));
#1467=CARTESIAN_POINT('Origin',(-132.500001974404,2.00079988079071,-1.5));
#1468=CARTESIAN_POINT('',(-131.000001974404,2.00079988079071,-7.25));
#1469=CARTESIAN_POINT('',(-131.000001974404,2.00079988079071,5.));
#1470=CARTESIAN_POINT('Origin',(-132.500001974404,2.00079988079071,-7.25));
#1471=CARTESIAN_POINT('Origin',(-132.500001974404,2.00079988079071,-1.5));
#1472=CARTESIAN_POINT('',(-129.000001974404,2.00079988079071,-1.5));
#1473=CARTESIAN_POINT('Origin',(-132.500001974404,2.00079988079071,-1.5));
#1474=CARTESIAN_POINT('Origin',(-132.500001974404,2.00079988079071,5.));
#1475=CARTESIAN_POINT('',(-129.000001974404,2.00079988079071,5.));
#1476=CARTESIAN_POINT('Origin',(-132.500001974404,2.00079988079071,-45.));
#1477=CARTESIAN_POINT('',(-129.000001974404,2.00079988079071,-30.5389618338509));
#1478=CARTESIAN_POINT('Origin',(-132.500001974404,2.00079988079071,-31.9480527429418));
#1479=CARTESIAN_POINT('',(-129.000001974404,2.00079988079071,-30.));
#1480=CARTESIAN_POINT('',(-129.000001974404,2.00079988079071,-45.));
#1481=CARTESIAN_POINT('Origin',(-132.500001974404,2.00079988079071,-30.));
#1482=CARTESIAN_POINT('Origin',(-152.5,42.,-40.));
#1483=CARTESIAN_POINT('',(-152.5,2.,-40.));
#1484=CARTESIAN_POINT('',(-114.,11.5,-24.5));
#1485=CARTESIAN_POINT('Origin',(-132.500001974404,2.00079988079071,-30.));
#1486=CARTESIAN_POINT('',(-131.000001974404,2.00079988079071,-30.));
#1487=CARTESIAN_POINT('Origin',(-132.500001974404,2.00079988079071,-30.));
#1488=CARTESIAN_POINT('Origin',(-132.500001974404,2.00079988079071,5.));
#1489=CARTESIAN_POINT('',(-131.000001974404,2.00079988079071,-22.75));
#1490=CARTESIAN_POINT('Origin',(-132.500001974404,2.00079988079071,-22.75));
#1491=CARTESIAN_POINT('',(-131.000001974404,2.00079988079071,5.));
#1492=CARTESIAN_POINT('Origin',(-148.,2.,-15.));
#1493=CARTESIAN_POINT('',(-148.,9.75,-22.75));
#1494=CARTESIAN_POINT('',(-148.,-5.75,-22.75));
#1495=CARTESIAN_POINT('',(-148.,9.75,-22.75));
#1496=CARTESIAN_POINT('',(-148.,9.75,-7.25));
#1497=CARTESIAN_POINT('',(-148.,9.75,-7.25));
#1498=CARTESIAN_POINT('',(-148.,-5.75,-7.25));
#1499=CARTESIAN_POINT('',(-148.,-5.75,-7.25));
#1500=CARTESIAN_POINT('',(-148.,-5.75,-22.75));
#1501=CARTESIAN_POINT('Origin',(-113.,9.75,-22.75));
#1502=CARTESIAN_POINT('',(-114.,-5.75,-22.75));
#1503=CARTESIAN_POINT('',(-114.,9.75,-22.75));
#1504=CARTESIAN_POINT('',(-114.,5.875,-22.75));
#1505=CARTESIAN_POINT('',(-113.,9.75,-22.75));
#1506=CARTESIAN_POINT('',(-113.,-5.75,-22.75));
#1507=CARTESIAN_POINT('Origin',(-113.,-5.75,-22.75));
#1508=CARTESIAN_POINT('',(-114.,-5.75,-7.25));
#1509=CARTESIAN_POINT('',(-114.,-5.75,-18.875));
#1510=CARTESIAN_POINT('',(-113.,-5.75,-7.25));
#1511=CARTESIAN_POINT('Origin',(-113.,-5.75,-7.25));
#1512=CARTESIAN_POINT('',(-114.,9.75,-7.25));
#1513=CARTESIAN_POINT('',(-114.,-1.875,-7.25));
#1514=CARTESIAN_POINT('',(-113.,9.75,-7.25));
#1515=CARTESIAN_POINT('Origin',(-113.,9.75,-7.25));
#1516=CARTESIAN_POINT('',(-114.,9.75,-20.5));
#1517=CARTESIAN_POINT('',(-114.,9.75,-11.125));
#1518=CARTESIAN_POINT('',(-114.,9.75,-11.125));
#1519=CARTESIAN_POINT('Origin',(-114.,2.,-15.));
#1520=CARTESIAN_POINT('',(-114.,-0.499999999999998,-20.5));
#1521=CARTESIAN_POINT('',(-114.,-0.499999999999998,-20.5));
#1522=CARTESIAN_POINT('Origin',(-152.5,42.,-25.));
#1523=CARTESIAN_POINT('',(-114.833350230648,10.4480661022963,-20.5));
#1524=CARTESIAN_POINT('',(-133.680724533538,26.2358017196521,-20.5));
#1525=CARTESIAN_POINT('',(-114.833350230648,10.4480661022963,-20.6731636842906));
#1526=CARTESIAN_POINT('',(-152.5,42.,-28.5));
#1527=CARTESIAN_POINT('',(-114.833350230648,10.4480661022963,-24.7500001825392));
#1528=CARTESIAN_POINT('Ctrl Pts',(-114.833350230648,10.4480661022963,-20.6731636842906));
#1529=CARTESIAN_POINT('Ctrl Pts',(-114.555566820432,10.2153774015309,-20.6154424561937));
#1530=CARTESIAN_POINT('Ctrl Pts',(-114.277783410216,9.98268870076545,-20.5577212280969));
#1531=CARTESIAN_POINT('Ctrl Pts',(-114.,9.75,-20.5));
#1532=CARTESIAN_POINT('Ctrl Pts',(-114.833350230648,11.0187729169835,-20.6984167215829));
#1533=CARTESIAN_POINT('Ctrl Pts',(-114.555566820432,10.7902930557668,-20.6322778143886));
#1534=CARTESIAN_POINT('Ctrl Pts',(-114.277783410216,10.5618131945501,-20.5661389071943));
#1535=CARTESIAN_POINT('Ctrl Pts',(-114.,10.3333333333333,-20.5));
#1536=CARTESIAN_POINT('Ctrl Pts',(-114.833350230648,11.5894797316706,-20.7236697588753));
#1537=CARTESIAN_POINT('Ctrl Pts',(-114.555566820432,11.3652087100026,-20.6491131725836));
#1538=CARTESIAN_POINT('Ctrl Pts',(-114.277783410216,11.1409376883347,-20.5745565862918));
#1539=CARTESIAN_POINT('Ctrl Pts',(-114.,10.9166666666667,-20.5));
#1540=CARTESIAN_POINT('Ctrl Pts',(-114.833350230648,12.1601865463578,-20.7489227961677));
#1541=CARTESIAN_POINT('Ctrl Pts',(-114.555566820432,11.9401243642385,-20.6659485307785));
#1542=CARTESIAN_POINT('Ctrl Pts',(-114.277783410216,11.7200621821193,-20.5829742653892));
#1543=CARTESIAN_POINT('Ctrl Pts',(-114.,11.5,-20.5));
#1544=CARTESIAN_POINT('Ctrl Pts',(-114.,11.5,-20.5));
#1545=CARTESIAN_POINT('Ctrl Pts',(-114.139853205497,11.3234639865036,-20.5417743341096));
#1546=CARTESIAN_POINT('Ctrl Pts',(-114.280347471967,11.1461187648947,-20.5774777349279));
#1547=CARTESIAN_POINT('Ctrl Pts',(-114.421422826481,10.9680400387039,-20.6067152814524));
#1548=CARTESIAN_POINT('Ctrl Pts',(-114.558334727026,10.7952168199832,-20.6350899616062));
#1549=CARTESIAN_POINT('Ctrl Pts',(-114.695658939187,10.6218731423372,-20.6573468361265));
#1550=CARTESIAN_POINT('Ctrl Pts',(-114.833350230648,10.4480661022963,-20.6731636842906));
#1551=CARTESIAN_POINT('Origin',(-114.,11.5,-24.5000003650784));
#1552=CARTESIAN_POINT('',(-114.,11.5,-20.5));
#1553=CARTESIAN_POINT('Origin',(-114.,11.5,-20.5));
#1554=CARTESIAN_POINT('Origin',(-180.,22.,-40.));
#1555=CARTESIAN_POINT('Origin',(-200.,44.,0.));
#1556=CARTESIAN_POINT('',(-200.,2.,0.));
#1557=CARTESIAN_POINT('',(-200.,44.,0.));
#1558=CARTESIAN_POINT('',(-200.,2.,-7.5));
#1559=CARTESIAN_POINT('Origin',(-190.4,32.,0.));
#1560=CARTESIAN_POINT('',(-192.9,32.,0.));
#1561=CARTESIAN_POINT('',(-192.9,32.,0.));
#1562=CARTESIAN_POINT('Origin',(-190.4,32.,0.));
#1563=CARTESIAN_POINT('Origin',(-190.4,12.,0.));
#1564=CARTESIAN_POINT('',(-192.9,12.,0.));
#1565=CARTESIAN_POINT('',(-192.9,12.,0.));
#1566=CARTESIAN_POINT('Origin',(-190.4,12.,0.));
#1567=CARTESIAN_POINT('Origin',(-177.5,2.,-15.));
#1568=CARTESIAN_POINT('',(-160.,2.,0.));
#1569=CARTESIAN_POINT('Origin',(-180.,22.,0.));
#1570=CARTESIAN_POINT('Origin',(-50.5,22.,-15.));
#1571=CARTESIAN_POINT('',(-50.5,42.,0.));
#1572=CARTESIAN_POINT('',(-50.5,2.,0.));
#1573=CARTESIAN_POINT('',(-50.5,32.,0.));
#1574=CARTESIAN_POINT('',(-50.5,2.,5.));
#1575=CARTESIAN_POINT('',(-50.5,2.,-7.5));
#1576=CARTESIAN_POINT('',(-50.5,-23.,5.));
#1577=CARTESIAN_POINT('',(-50.5,22.,5.));
#1578=CARTESIAN_POINT('',(-50.5,-23.,-40.));
#1579=CARTESIAN_POINT('',(-50.5,-23.,-6.25));
#1580=CARTESIAN_POINT('',(-50.5,42.,-40.));
#1581=CARTESIAN_POINT('',(-50.5,22.,-40.));
#1582=CARTESIAN_POINT('',(-50.5,42.,-26.25));
#1583=CARTESIAN_POINT('Origin',(-46.,42.,-35.));
#1584=CARTESIAN_POINT('',(-53.5,42.,-40.));
#1585=CARTESIAN_POINT('',(-36.,42.,-40.));
#1586=CARTESIAN_POINT('',(-53.5,42.,5.));
#1587=CARTESIAN_POINT('',(-53.5,42.,-25.));
#1588=CARTESIAN_POINT('',(-6.00000000000001,42.,5.));
#1589=CARTESIAN_POINT('',(-50.5,42.,5.));
#1590=CARTESIAN_POINT('',(-6.00000000000001,42.,0.));
#1591=CARTESIAN_POINT('',(-6.00000000000001,42.,-17.5));
#1592=CARTESIAN_POINT('',(-46.,42.,0.));
#1593=CARTESIAN_POINT('Origin',(-26.,22.,-40.));
#1594=CARTESIAN_POINT('',(-53.5,-23.,-40.));
#1595=CARTESIAN_POINT('',(-48.5,-23.,-40.));
#1596=CARTESIAN_POINT('',(-53.5,2.,-40.));
#1597=CARTESIAN_POINT('Origin',(-53.5,-23.,5.));
#1598=CARTESIAN_POINT('',(-53.5,-23.,5.));
#1599=CARTESIAN_POINT('',(-53.5,-23.,5.));
#1600=CARTESIAN_POINT('',(-53.5,-23.,-5.));
#1601=CARTESIAN_POINT('Origin',(-53.5,42.,-32.));
#1602=CARTESIAN_POINT('',(-92.,11.5,-24.5));
#1603=CARTESIAN_POINT('',(-53.5,42.,-40.));
#1604=CARTESIAN_POINT('',(-92.,11.5,-20.5));
#1605=CARTESIAN_POINT('',(-92.,11.5,-5.5));
#1606=CARTESIAN_POINT('',(-92.,11.5,-5.5));
#1607=CARTESIAN_POINT('',(-92.,11.5,-5.5));
#1608=CARTESIAN_POINT('',(-53.5,42.,5.));
#1609=CARTESIAN_POINT('Ctrl Pts',(-91.1666497693516,10.4480661022964,-20.6731636842906));
#1610=CARTESIAN_POINT('Ctrl Pts',(-91.4444331795677,10.2153774015309,-20.6154424561937));
#1611=CARTESIAN_POINT('Ctrl Pts',(-91.7222165897839,9.98268870076546,-20.5577212280969));
#1612=CARTESIAN_POINT('Ctrl Pts',(-92.,9.75,-20.5));
#1613=CARTESIAN_POINT('Ctrl Pts',(-91.1666497693516,11.0187729169835,-20.698416721583));
#1614=CARTESIAN_POINT('Ctrl Pts',(-91.4444331795677,10.7902930557668,-20.6322778143886));
#1615=CARTESIAN_POINT('Ctrl Pts',(-91.7222165897839,10.5618131945501,-20.5661389071943));
#1616=CARTESIAN_POINT('Ctrl Pts',(-92.,10.3333333333333,-20.5));
#1617=CARTESIAN_POINT('Ctrl Pts',(-91.1666497693516,11.5894797316707,-20.7236697588753));
#1618=CARTESIAN_POINT('Ctrl Pts',(-91.4444331795677,11.3652087100027,-20.6491131725836));
#1619=CARTESIAN_POINT('Ctrl Pts',(-91.7222165897839,11.1409376883347,-20.5745565862918));
#1620=CARTESIAN_POINT('Ctrl Pts',(-92.,10.9166666666667,-20.5));
#1621=CARTESIAN_POINT('Ctrl Pts',(-91.1666497693516,12.1601865463578,-20.7489227961677));
#1622=CARTESIAN_POINT('Ctrl Pts',(-91.4444331795677,11.9401243642386,-20.6659485307785));
#1623=CARTESIAN_POINT('Ctrl Pts',(-91.7222165897839,11.7200621821193,-20.5829742653892));
#1624=CARTESIAN_POINT('Ctrl Pts',(-92.,11.5,-20.5));
#1625=CARTESIAN_POINT('',(-91.1666497693516,10.4480661022964,-20.6731636842906));
#1626=CARTESIAN_POINT('Ctrl Pts',(-91.1666497693516,10.4480661022964,-20.6731636842906));
#1627=CARTESIAN_POINT('Ctrl Pts',(-91.3044720156352,10.6220384459658,-20.6573317931087));
#1628=CARTESIAN_POINT('Ctrl Pts',(-91.44192641475,10.7955464579632,-20.6350476277773));
#1629=CARTESIAN_POINT('Ctrl Pts',(-91.5789676003355,10.9685328725547,-20.6066343495674));
#1630=CARTESIAN_POINT('Ctrl Pts',(-91.7199117979762,11.1464460400684,-20.5774118447961));
#1631=CARTESIAN_POINT('Ctrl Pts',(-91.8602758683534,11.3236269157904,-20.5417357795828));
#1632=CARTESIAN_POINT('Ctrl Pts',(-92.,11.5,-20.5));
#1633=CARTESIAN_POINT('',(-92.,9.75,-20.5));
#1634=CARTESIAN_POINT('',(-92.,-0.499999999999998,-20.5));
#1635=CARTESIAN_POINT('',(-53.5,42.,-28.5));
#1636=CARTESIAN_POINT('Origin',(-53.5,-23.,5.));
#1637=CARTESIAN_POINT('',(-53.5,15.75,5.));
#1638=CARTESIAN_POINT('',(-92.,-7.5,-5.5));
#1639=CARTESIAN_POINT('',(-92.,-7.5,-5.5));
#1640=CARTESIAN_POINT('',(-53.5,-23.,5.));
#1641=CARTESIAN_POINT('',(-76.9999980255962,2.00079988079071,-1.40909037061713));
#1642=CARTESIAN_POINT('Origin',(-73.4999980255962,2.00079988079071,-0.454544916071676));
#1643=CARTESIAN_POINT('Origin',(-53.5,-23.,-40.));
#1644=CARTESIAN_POINT('',(-92.,-7.5,-24.5));
#1645=CARTESIAN_POINT('',(-92.,-7.5,-24.5));
#1646=CARTESIAN_POINT('',(-53.5,-23.,-40.));
#1647=CARTESIAN_POINT('Origin',(-73.4999980255962,2.00079988079071,5.));
#1648=CARTESIAN_POINT('',(-74.9999980255962,2.00079988079071,-1.5));
#1649=CARTESIAN_POINT('Origin',(-73.4999980255962,2.00079988079071,-1.5));
#1650=CARTESIAN_POINT('',(-74.9999980255962,2.00079988079071,-7.25));
#1651=CARTESIAN_POINT('',(-74.9999980255962,2.00079988079071,5.));
#1652=CARTESIAN_POINT('Origin',(-73.4999980255962,2.00079988079071,-7.25));
#1653=CARTESIAN_POINT('Origin',(-73.4999980255962,2.00079988079071,-1.5));
#1654=CARTESIAN_POINT('',(-76.9999980255962,2.00079988079071,-1.5));
#1655=CARTESIAN_POINT('Origin',(-73.4999980255962,2.00079988079071,-1.5));
#1656=CARTESIAN_POINT('Origin',(-73.4999980255962,2.00079988079071,5.));
#1657=CARTESIAN_POINT('',(-76.9999980255962,2.00079988079071,5.));
#1658=CARTESIAN_POINT('Origin',(-73.4999980255962,2.00079988079071,-45.));
#1659=CARTESIAN_POINT('',(-76.9999980255962,2.00079988079071,-30.5389618338509));
#1660=CARTESIAN_POINT('Origin',(-73.4999980255962,2.00079988079071,-31.9480527429418));
#1661=CARTESIAN_POINT('',(-76.9999980255962,2.00079988079071,-30.));
#1662=CARTESIAN_POINT('',(-76.9999980255962,2.00079988079071,-45.));
#1663=CARTESIAN_POINT('Origin',(-73.4999980255962,2.00079988079071,-30.));
#1664=CARTESIAN_POINT('Origin',(-53.5,42.,-40.));
#1665=CARTESIAN_POINT('',(-92.,11.5,-24.5));
#1666=CARTESIAN_POINT('Origin',(-73.4999980255962,2.00079988079071,-30.));
#1667=CARTESIAN_POINT('',(-74.9999980255962,2.00079988079071,-30.));
#1668=CARTESIAN_POINT('Origin',(-73.4999980255962,2.00079988079071,-30.));
#1669=CARTESIAN_POINT('Origin',(-73.4999980255962,2.00079988079071,5.));
#1670=CARTESIAN_POINT('',(-74.9999980255962,2.00079988079071,-22.75));
#1671=CARTESIAN_POINT('Origin',(-73.4999980255962,2.00079988079071,-22.75));
#1672=CARTESIAN_POINT('',(-74.9999980255962,2.00079988079071,5.));
#1673=CARTESIAN_POINT('Origin',(-58.,2.,-15.));
#1674=CARTESIAN_POINT('',(-58.,9.75,-22.75));
#1675=CARTESIAN_POINT('',(-58.,-5.75,-22.75));
#1676=CARTESIAN_POINT('',(-58.,9.75,-22.75));
#1677=CARTESIAN_POINT('',(-58.,-5.75,-7.25));
#1678=CARTESIAN_POINT('',(-58.,-5.75,-22.75));
#1679=CARTESIAN_POINT('',(-58.,9.75,-7.25));
#1680=CARTESIAN_POINT('',(-58.,-5.75,-7.25));
#1681=CARTESIAN_POINT('',(-58.,9.75,-7.25));
#1682=CARTESIAN_POINT('Origin',(-93.,-5.75,-7.25));
#1683=CARTESIAN_POINT('',(-92.,-5.75,-7.25));
#1684=CARTESIAN_POINT('',(-92.,9.75,-7.25));
#1685=CARTESIAN_POINT('',(-92.,-1.875,-7.25));
#1686=CARTESIAN_POINT('',(-93.,9.75,-7.25));
#1687=CARTESIAN_POINT('',(-93.,-5.75,-7.25));
#1688=CARTESIAN_POINT('Origin',(-93.,-5.75,-22.75));
#1689=CARTESIAN_POINT('',(-92.,-5.75,-22.75));
#1690=CARTESIAN_POINT('',(-92.,-5.75,-18.875));
#1691=CARTESIAN_POINT('',(-93.,-5.75,-22.75));
#1692=CARTESIAN_POINT('Origin',(-93.,9.75,-22.75));
#1693=CARTESIAN_POINT('',(-92.,9.75,-22.75));
#1694=CARTESIAN_POINT('',(-92.,5.875,-22.75));
#1695=CARTESIAN_POINT('',(-93.,9.75,-22.75));
#1696=CARTESIAN_POINT('Origin',(-92.,2.,-15.));
#1697=CARTESIAN_POINT('',(-92.,9.75,-11.125));
#1698=CARTESIAN_POINT('',(-92.,9.75,-11.125));
#1699=CARTESIAN_POINT('',(-92.,-0.499999999999998,-20.5));
#1700=CARTESIAN_POINT('Origin',(-92.,11.5,-18.75));
#1701=CARTESIAN_POINT('',(-91.1666497693516,10.4480661022964,-20.5));
#1702=CARTESIAN_POINT('',(-91.5741062176166,10.962396373057,-20.5));
#1703=CARTESIAN_POINT('',(-91.1666497693516,10.4480661022964,-21.875));
#1704=CARTESIAN_POINT('Origin',(-53.5,42.,-25.));
#1705=CARTESIAN_POINT('',(-72.75,25.875,-20.5));
#1706=CARTESIAN_POINT('Origin',(-93.,9.75,-7.25));
#1707=CARTESIAN_POINT('Origin',(-92.,9.75,-20.5));
#1708=CARTESIAN_POINT('Origin',(-26.,22.,5.));
#1709=CARTESIAN_POINT('',(-6.00000000000001,2.,5.));
#1710=CARTESIAN_POINT('',(-46.,2.,5.));
#1711=CARTESIAN_POINT('',(-6.00000000000001,44.,5.));
#1712=CARTESIAN_POINT('',(-13.1,32.,5.));
#1713=CARTESIAN_POINT('Origin',(-15.6,32.,5.));
#1714=CARTESIAN_POINT('',(-13.1,12.,5.));
#1715=CARTESIAN_POINT('Origin',(-15.6,12.,5.));
#1716=CARTESIAN_POINT('Origin',(-26.,22.,0.));
#1717=CARTESIAN_POINT('',(-6.00000000000001,2.,0.));
#1718=CARTESIAN_POINT('',(-6.00000000000001,44.,0.));
#1719=CARTESIAN_POINT('',(-46.,2.,0.));
#1720=CARTESIAN_POINT('',(-13.1,12.,0.));
#1721=CARTESIAN_POINT('Origin',(-15.6,12.,0.));
#1722=CARTESIAN_POINT('',(-13.1,32.,0.));
#1723=CARTESIAN_POINT('Origin',(-15.6,32.,0.));
#1724=CARTESIAN_POINT('Origin',(-6.00000000000001,44.,0.));
#1725=CARTESIAN_POINT('',(-6.00000000000001,2.,-7.5));
#1726=CARTESIAN_POINT('Origin',(-15.6,32.,0.));
#1727=CARTESIAN_POINT('',(-13.1,32.,0.));
#1728=CARTESIAN_POINT('Origin',(-15.6,12.,0.));
#1729=CARTESIAN_POINT('',(-13.1,12.,0.));
#1730=CARTESIAN_POINT('Origin',(-28.5,2.,-15.));
#1731=UNCERTAINTY_MEASURE_WITH_UNIT(LENGTH_MEASURE(0.01),#1735,
'DISTANCE_ACCURACY_VALUE',
'Maximum model space distance between geometric entities at asserted c
onnectivities');
#1732=UNCERTAINTY_MEASURE_WITH_UNIT(LENGTH_MEASURE(0.01),#1735,
'DISTANCE_ACCURACY_VALUE',
'Maximum model space distance between geometric entities at asserted c
onnectivities');
#1733=(
GEOMETRIC_REPRESENTATION_CONTEXT(3)
GLOBAL_UNCERTAINTY_ASSIGNED_CONTEXT((#1731))
GLOBAL_UNIT_ASSIGNED_CONTEXT((#1735,#1737,#1738))
REPRESENTATION_CONTEXT('','3D')
);
#1734=(
GEOMETRIC_REPRESENTATION_CONTEXT(3)
GLOBAL_UNCERTAINTY_ASSIGNED_CONTEXT((#1732))
GLOBAL_UNIT_ASSIGNED_CONTEXT((#1735,#1737,#1738))
REPRESENTATION_CONTEXT('','3D')
);
#1735=(
LENGTH_UNIT()
NAMED_UNIT(*)
SI_UNIT(.MILLI.,.METRE.)
);
#1736=(
LENGTH_UNIT()
NAMED_UNIT(*)
SI_UNIT($,.METRE.)
);
#1737=(
NAMED_UNIT(*)
PLANE_ANGLE_UNIT()
SI_UNIT($,.RADIAN.)
);
#1738=(
NAMED_UNIT(*)
SI_UNIT($,.STERADIAN.)
SOLID_ANGLE_UNIT()
);
#1739=SHAPE_DEFINITION_REPRESENTATION(#1740,#1741);
#1740=PRODUCT_DEFINITION_SHAPE('',$,#1743);
#1741=SHAPE_REPRESENTATION('',(#1049),#1733);
#1742=PRODUCT_DEFINITION_CONTEXT('part definition',#1747,'design');
#1743=PRODUCT_DEFINITION('SV08max 1515 holder rev7',
'SV08max 1515 holder rev7 v0',#1744,#1742);
#1744=PRODUCT_DEFINITION_FORMATION('',$,#1749);
#1745=PRODUCT_RELATED_PRODUCT_CATEGORY('SV08max 1515 holder rev7 v0',
'SV08max 1515 holder rev7 v0',(#1749));
#1746=APPLICATION_PROTOCOL_DEFINITION('international standard',
'automotive_design',2009,#1747);
#1747=APPLICATION_CONTEXT(
'Core Data for Automotive Mechanical Design Process');
#1748=PRODUCT_CONTEXT('part definition',#1747,'mechanical');
#1749=PRODUCT('SV08max 1515 holder rev7','SV08max 1515 holder rev7 v0',
$,(#1748));
#1750=PRESENTATION_STYLE_ASSIGNMENT((#1751));
#1751=SURFACE_STYLE_USAGE(.BOTH.,#1752);
#1752=SURFACE_SIDE_STYLE('',(#1753));
#1753=SURFACE_STYLE_FILL_AREA(#1754);
#1754=FILL_AREA_STYLE(
'HP 3D HR CB PA 12 (mit 3D-Drucker HP Jet Fusion 580 Color)',(#1755));
#1755=FILL_AREA_STYLE_COLOUR(
'HP 3D HR CB PA 12 (mit 3D-Drucker HP Jet Fusion 580 Color)',#1756);
#1756=COLOUR_RGB(
'HP 3D HR CB PA 12 (mit 3D-Drucker HP Jet Fusion 580 Color)',0.964705882352941,
0.964705882352941,0.952941176470588);
ENDSEC;
END-ISO-10303-21;
